<svg id="Capa_1" enable-background="new 0 0 512 512" height="512" viewBox="0 0 512 512" width="512" xmlns="http://www.w3.org/2000/svg"><g><path d="m142.344 198.733c-3.942 0-7.277-2.984-7.681-6.94-.033-.326-.323-3.267-.469-8.159-1.439-14.267-7.665-47.012-34.529-73.876-3.017-3.017-3.017-7.909 0-10.927 3.019-3.018 7.91-3.017 10.928 0 12.756 12.756 21.396 26.539 27.247 39.465 6.979-36.456 23.39-65.75 47.552-84.821 3.349-2.644 8.208-2.072 10.851 1.278 2.644 3.349 2.072 8.208-1.278 10.852-43.076 34.002-45.791 95.299-45.313 116.866.468 5.046.431 8.194.421 8.691-.081 4.083-3.327 7.398-7.408 7.565-.107.004-.214.006-.321.006z" fill="#985e33"/><path d="m473.991 153.022c-3.016-3.017-7.908-3.017-10.927 0-4.813 4.814-14.106 7.873-26.873 8.848-2.215.169-4.354.256-6.363.293 5.605-9.517 10.558-20.523 13.173-32.47.913-4.169-1.727-8.287-5.895-9.2-4.167-.913-8.288 1.728-9.199 5.896-7.216 32.973-36.472 59.149-36.795 59.435-3.198 2.82-3.508 7.698-.691 10.899 1.528 1.736 3.66 2.622 5.804 2.622 1.813 0 3.633-.634 5.101-1.926.678-.597 8.997-8.005 18.191-20.007 2.114.123 4.859.23 8.011.23 2.902 0 6.148-.091 9.563-.343 16.876-1.248 29.292-5.74 36.902-13.35 3.016-3.017 3.016-7.909-.002-10.927z" fill="#985e33"/><path d="m512 338.903c0 66.982-54.301 121.283-121.273 121.283h-269.454c-66.972 0-121.273-54.3-121.273-121.283 0-65.818 52.426-119.377 117.801-121.221 27.125-55.589 83.898-94.045 149.737-94.766.639-.021 1.277-.021 1.916-.021 68.352 0 127.207 40.661 153.693 99.124 51.231 14.185 88.853 61.141 88.853 116.884z" fill="#9bd069"/><path d="m172.844 251.204s-90.862 23.519-90.862 90.862c0 67.333 31.791 100.443 74.75 118.121h-35.459c-66.972-.001-121.273-54.301-121.273-121.284 0-65.818 52.426-119.377 117.801-121.221 27.125-55.589 83.898-94.045 149.737-94.766-73.699 1.442-101.349 85.896-94.694 128.288z" fill="#7dbe3b"/><path d="m219.429 460.186-41.135-60.317 16.936-41.949c3.194-7.922-.628-16.926-8.551-20.119-7.901-3.194-16.916.628-20.109 8.54l-9.22 22.839-22.757-33.368c-4.811-7.046-14.423-8.86-21.469-4.059-7.057 4.811-8.87 14.423-4.059 21.479l38.982 57.144c.01.021.021.031.031.052l33.944 49.758" fill="#c17d4f"/><g fill="#985e33"><path d="m164.94 380.309 13.713-33.968c1.594-3.95 4.64-6.879 8.272-8.426-.084-.035-.161-.08-.246-.114-7.901-3.194-16.915.628-20.109 8.54l-9.22 22.839z"/><path d="m160.13 410.377-38.982-57.144c-4.811-7.057-2.998-16.668 4.059-21.479.85-.579 1.738-1.057 2.65-1.446-4.677-1.977-10.227-1.624-14.732 1.446-7.057 4.811-8.87 14.423-4.059 21.479l38.982 57.144c.01.021.021.031.031.051l33.944 49.758h12.082l-33.944-49.758c-.01-.02-.021-.03-.031-.051z"/></g><path d="m327.392 460.186 42.783-94.292 33.955-6.16c8.396-1.525 13.969-9.57 12.445-17.966-1.525-8.396-9.56-13.969-17.966-12.445l-12.898 2.339 10.631-23.437c3.534-7.778.093-16.936-7.685-20.459-7.768-3.523-16.926-.082-20.449 7.685l-22.891 50.438c-.01.01-.01.031-.021.052l-4.924 10.848-26.455-94.303c-2.308-8.221-10.837-13.011-19.048-10.704-8.221 2.308-13.011 10.838-10.714 19.048l36.386 129.669-27.094 59.689" fill="#c17d4f"/><g fill="#985e33"><path d="m344.532 371.617 34.564-76.167c1.756-3.872 4.914-6.668 8.601-8.063-7.549-2.84-16.111.612-19.49 8.063l-27.836 61.337z"/><path d="m295.044 270.829c-2.175-7.773 2.008-15.823 9.434-18.618-2.975-1.123-6.314-1.356-9.609-.43-8.221 2.308-13.011 10.837-10.714 19.048l36.386 129.669-27.094 59.689h10.889l27.094-59.689z"/></g><circle cx="57.817" cy="241.881" fill="#da4a54" r="24.165"/><path d="m65.897 264.658c-2.534.907-5.254 1.391-8.087 1.391-13.341 0-24.158-10.827-24.158-24.168 0-13.351 10.817-24.168 24.158-24.168 2.833 0 5.553.484 8.087 1.391-9.375 3.317-16.091 12.259-16.091 22.777-.001 10.508 6.716 19.46 16.091 22.777z" fill="#c32430"/><g fill="#da4a54"><circle cx="214.344" cy="267.371" r="24.165"/><circle cx="343.874" cy="146.397" r="24.165"/><circle cx="449.515" cy="304.905" r="24.165"/></g><path d="m222.424 290.148c-2.534.907-5.254 1.391-8.087 1.391-13.341 0-24.158-10.827-24.158-24.168 0-13.351 10.817-24.168 24.158-24.168 2.833 0 5.553.484 8.087 1.391-9.374 3.317-16.091 12.259-16.091 22.777-.001 10.508 6.716 19.46 16.091 22.777z" fill="#c32430"/><path d="m351.953 169.174c-2.534.907-5.254 1.391-8.087 1.391-13.341 0-24.158-10.827-24.158-24.168 0-13.351 10.817-24.168 24.158-24.168 2.833 0 5.553.484 8.087 1.391-9.374 3.317-16.091 12.259-16.091 22.777 0 10.508 6.717 19.46 16.091 22.777z" fill="#c32430"/><path d="m457.594 327.683c-2.534.907-5.254 1.391-8.087 1.391-13.341 0-24.158-10.827-24.158-24.168 0-13.351 10.817-24.168 24.158-24.168 2.833 0 5.553.484 8.087 1.391-9.374 3.317-16.091 12.259-16.091 22.777 0 10.507 6.717 19.46 16.091 22.777z" fill="#c32430"/></g></svg>