<svg id="Capa_1" enable-background="new 0 0 512 512" height="512" viewBox="0 0 512 512" width="512" xmlns="http://www.w3.org/2000/svg"><g><path d="m502.408 186.233v30.054c0 6.542-5.302 11.844-11.844 11.844h-20.67c6.542 0 11.844-5.302 11.844-11.844v-30.054c0-6.552-5.302-11.854-11.844-11.854h20.67c6.542-.001 11.844 5.301 11.844 11.854z" fill="#384949"/><path d="m140.624 47.71c-2.6-11.291-4.233-22.841-4.801-34.415-.039-.789-.234-3.796-.432-6.778-.24-3.626 2.718-6.662 6.348-6.511 13.842.577 27.585 1.348 41.312 4.123 18.581 3.756 37.134 9.92 53.456 19.688 26.409 15.803 40.79 39.821 35.814 71.249-2.888 18.239-20.595 36.132-38.397 39.443-54.316 10.102-82.865-41.477-93.3-86.799z" fill="#bbec6c"/><path d="m272.319 95.067c-2.553 16.164-16.753 32.059-32.349 37.764 7.751-7.369 13.518-17.011 15.058-26.747 4.971-31.419-9.405-55.437-35.821-71.239-16.319-9.777-34.87-15.937-53.453-19.688-9.994-2.026-19.998-2.987-30.034-3.576-.083-1.333-.207-3.204-.331-5.064-.238-3.628 2.718-6.666 6.346-6.511 13.849.579 27.584 1.344 41.319 4.124 18.572 3.752 37.134 9.922 53.453 19.688 26.407 15.802 40.793 39.82 35.812 71.249z" fill="#a2e62e"/><path d="m319.227 177.629 51.784-151.834c.517-1.447 1.095-2.875 1.81-4.235 5.801-11.027 17.276-18.043 29.889-18.043 17.965 0 32.506 13.98 33.698 31.422.148 2.16.018 4.33-.251 6.478l-19.982 136.212z" fill="#537983"/><path d="m436.162 41.416-19.99 136.21-22.416.002 20.145-136.658c.27-2.146.394-4.313.249-6.48-.591-8.72-4.531-16.569-10.565-22.251-3.245-3.048-7.092-5.475-11.364-7.05 3.328-1.089 6.864-1.669 10.493-1.669 8.979 0 17.108 3.494 23.132 9.166 6.034 5.671 9.964 13.531 10.565 22.251.145 2.166.01 4.333-.249 6.479z" fill="#496d75"/><path d="m317.971 512h-123.942c-9.904 0-17.932-8.028-17.932-17.932v-40.389h159.807v40.389c-.001 9.904-8.029 17.932-17.933 17.932z" fill="#3e5959"/><path d="m335.899 453.674v40.333c0 9.943-8.046 17.989-17.989 17.989h-20.737c9.943 0 17.989-8.046 17.989-17.989v-40.333z" fill="#384949"/><path d="m31.145 225.697s5.302 166.126 144.919 227.982h159.873c139.617-61.856 144.919-227.982 144.919-227.982z" fill="#8ebac5"/><path d="m480.86 225.693s-5.309 166.133-144.919 227.981h-22.251c139.621-61.848 144.919-227.981 144.919-227.981z" fill="#7ca1b1"/><path d="m491.359 228.041h-470.718c-6.543 0-11.847-5.304-11.847-11.847v-30.234c0-6.543 5.304-11.847 11.847-11.847h470.719c6.543 0 11.847 5.304 11.847 11.847v30.234c-.001 6.543-5.305 11.847-11.848 11.847z" fill="#3e5959"/><path d="m238.09 89.304-23.995-24.265c3.121-6.006 6.798-15.945 4.495-26.631-.902-4.185-5.026-6.845-9.211-5.944-4.184.902-6.846 5.025-5.945 9.21.874 4.053.125 8.124-1.05 11.523l-18.4-18.607c-3.01-3.043-7.918-3.071-10.962-.062-3.044 3.01-3.071 7.918-.062 10.962l35.027 35.421c-3.373.767-7.288 1.042-11.05-.134-4.085-1.278-8.434.997-9.712 5.083s.998 8.434 5.084 9.712c3.398 1.063 6.774 1.487 10.001 1.487 7.148 0 13.54-2.08 17.784-3.906l6.972 7.051c1.516 1.533 3.513 2.301 5.512 2.301 1.969 0 3.939-.746 5.45-2.24 3.045-3.009 3.072-7.917.062-10.961z" fill="#90cc1b"/></g></svg>