<svg height="512" viewBox="0 0 60 57" width="512" xmlns="http://www.w3.org/2000/svg"><g id="Page-1" fill="none" fill-rule="evenodd"><g id="039---Refinery" fill-rule="nonzero"><path id="Shape" d="m38 37v4h-37v-13.2c.00072805-.2653601.10474074-.5200118.29-.71.33242336-.3272382.84693611-.3811791 1.24-.13l6.4 4 3.07 1.92 5 3.12v-8.2c.0028888-.3620925.2012967-.694335.5187094-.8686008.3174126-.1742658.7042344-.1633259 1.0112906.0286008l3.47 2.17 4 2.5 7 4.37h4c.5522847 0 1 .4477153 1 1z" fill="#ff9801"/><path id="Shape" d="m37 36h-3c.5522847 0 1 .4477153 1 1v4h3v-4c0-.5522847-.4477153-1-1-1z" fill="#f57c00"/><path id="Shape" d="m38 41v14c0 .5522847-.4477153 1-1 1h-35c-.55228475 0-1-.4477153-1-1v-14z" fill="#ffdc00"/><path id="Shape" d="m35 41v14c0 .5522847-.4477153 1-1 1h3c.5522847 0 1-.4477153 1-1v-14z" fill="#fec108"/><rect id="Rectangle-path" fill="#02a9f4" height="7" rx="1" width="7" x="5" y="45"/><rect id="Rectangle-path" fill="#02a9f4" height="7" rx="1" width="7" x="16" y="45"/><rect id="Rectangle-path" fill="#02a9f4" height="7" rx="1" width="7" x="27" y="45"/><path id="Shape" d="m36 12v1h-10v-1c0-2.76142375 2.2385763-5 5-5s5 2.23857625 5 5z" fill="#9d27b0"/><path id="Shape" d="m34.54 8.46c-.9408677-.93509541-2.2134875-1.4599612-3.54-1.46-.5100868.0070255-1.016037.09269973-1.5.254 2.0945786.62435789 3.5223832 2.56046086 3.5 4.746v1h3v-1c-.0000388-1.3265125-.5249046-2.59913231-1.46-3.54z" fill="#6a1b9a"/><path id="Shape" d="m36 13v23h-3l-7-4.37v-18.63z" fill="#ffdc00"/><path id="Rectangle-path" d="m33 13h3v23h-3z" fill="#fec108"/><path id="Shape" d="m22 12v1h-10v-1c0-2.76142375 2.2385763-5 5-5s5 2.23857625 5 5z" fill="#9d27b0"/><path id="Shape" d="m20.54 8.46c-.9408677-.93509541-2.2134875-1.4599612-3.54-1.46-.5100868.0070255-1.016037.09269973-1.5.254 2.0945786.62435789 3.5223832 2.56046086 3.5 4.746v1h3v-1c-.0000388-1.3265125-.5249046-2.59913231-1.46-3.54z" fill="#6a1b9a"/><path id="Shape" d="m22 13v16.13l-3.47-2.17c-.3070562-.1919267-.693878-.2028666-1.0112906-.0286008-.3174127.1742658-.5158206.5065083-.5187094.8686008v8.2l-5-3.12v-19.88z" fill="#ffdc00"/><path id="Shape" d="m19 13v14.254l3 1.876v-16.13z" fill="#fec108"/><path id="Shape" d="m58 32v22c-.0032948 1.1032019-.8967981 1.9967052-2 2h-12c-1.1032019-.0032948-1.9967052-.8967981-2-2v-22z" fill="#ffdc00"/><path id="Shape" d="m55 32v22c-.0032948 1.1032019-.8967981 1.9967052-2 2h3c1.1032019-.0032948 1.9967052-.8967981 2-2v-22z" fill="#fec108"/><path id="Shape" d="m58 31v1h-16v-1c0-4.418278 3.581722-8 8-8s8 3.581722 8 8z" fill="#9d27b0"/><path id="Shape" d="m50 23c-.5034323.0013583-1.005629.049904-1.5.145 3.7706182.7197558 6.4985044 4.0163013 6.5 7.855v1h3v-1c0-4.418278-3.581722-8-8-8z" fill="#6a1b9a"/><path id="Shape" d="m8.93 30.96-6.4-4c-.39306389-.2511791-.90757664-.1972382-1.24.13l1.64-22.16c.03682302-.52477544.47393581-.93129033 1-.93h2.14c.52396937.00401792.95803443.40769843 1 .93z" fill="#607d8b"/><g fill="#000"><path id="Shape" d="m11 44h-5c-1.1045695 0-2 .8954305-2 2v5c0 1.1045695.8954305 2 2 2h5c1.1045695 0 2-.8954305 2-2v-5c0-1.1045695-.8954305-2-2-2zm-5 7v-5h5v5z"/><path id="Shape" d="m22 44h-5c-1.1045695 0-2 .8954305-2 2v5c0 1.1045695.8954305 2 2 2h5c1.1045695 0 2-.8954305 2-2v-5c0-1.1045695-.8954305-2-2-2zm-5 7v-5h5v5z"/><path id="Shape" d="m33 44h-5c-1.1045695 0-2 .8954305-2 2v5c0 1.1045695.8954305 2 2 2h5c1.1045695 0 2-.8954305 2-2v-5c0-1.1045695-.8954305-2-2-2zm-5 7v-5h5v5z"/><path id="Shape" d="m59 31c-.0062088-4.5806044-3.4482616-8.4275287-8-8.941v-1.059c-.0033061-2.7600532-2.2399468-4.9966939-5-5h-9v-2h1c.5522847 0 1-.4477153 1-1s-.4477153-1-1-1h-1c.0108139-2.93075555-2.1080301-5.43565288-5-5.911v-2.089c0-2.209139-1.790861-4-4-4h-8c-2.209139 0-4 1.790861-4 4v2.09c-2.8833034.48986653-4.9945704 2.98538412-5 5.91-.5522847 0-1 .4477153-1 1s.4477153 1 1 1v17.071l-1.11-.694-1.823-25.523c-.08309798-1.04287404-.9508351-1.84847475-1.997-1.854h-2.141c-1.04616838.00321125-1.91421205.8098737-1.994 1.853l-1.622 21.89c-.20193692.3157606-.31044668.6821977-.313 1.057v27.2c0 1.1045695.8954305 2 2 2h35c1.1045695 0 2-.8954305 2-2v-18c0-1.1045695-.8954305-2-2-2v-17h9c1.6568542 0 3 1.3431458 3 3v1.059c-4.5517384.5134713-7.9937912 4.3603956-8 8.941-.5522847 0-1 .4477153-1 1s.4477153 1 1 1v21c0 1.6568542 1.3431458 3 3 3h12c1.6568542 0 3-1.3431458 3-3v-21c.5522847 0 1-.4477153 1-1s-.4477153-1-1-1zm-24-19h-8c0-2.209139 1.790861-4 4-4s4 1.790861 4 4zm-15-10h8c1.1045695 0 2 .8954305 2 2v2.09c-2.8833034.48986653-4.9945704 2.98538412-5 5.91h-2c.0108139-2.93075555-2.1080301-5.43565288-5-5.911v-2.089c0-1.1045695.8954305-2 2-2zm12.47 34.848c.0303892.0160239.0617889.0300536.094.042.0293999.0153633.0598022.028727.091.04.1099071.0437149.2267464.0674214.345.07h4v3h-35v-3h6c.55228475 0 1-.4477153 1-1s-.44771525-1-1-1h-6v-3.966l.229-3.087 14.241 8.9c.0325571.0163711.0659345.0310571.1.044.028.013.054.026.083.037.1081332.04252.2228495.0658693.339.069l.008.003h7c.5522847 0 1-.4477153 1-1s-.4477153-1-1-1h-6v-7.2zm-9.47-8.277v-14.571h2v15.821zm-6-20.571c1.0621706-.00427438 2.0820716.41578024 2.8331457 1.16685433.7510741.75107408 1.1711287 1.77097507 1.1668866 2.83314567h-8.0000323c0-2.209139 1.790861-4 4-4zm-4 6h8v13.321l-1.94-1.213c-.615931-.38496-1.3921544-.4057306-2.0277913-.0542608-.6356368.3514697-1.0307586 1.0199254-1.0322087 1.7462608v6.4l-3-1.875zm-9.071-9h2.144l1.719 24.066-4.732-2.958c-.20826475-.1239328-.43732032-.2089815-.676-.251zm-1.929 50v-13h35v13zm31.287-20-6.287-3.929v-17.071h8v21zm16.713-11c3.8641657.0044086 6.9955914 3.1358343 7 7h-14c.0044086-3.8641657 3.1358343-6.9955914 7-7zm7 30c0 .5522847-.4477153 1-1 1h-1v-10c0-.5522847-.4477153-1-1-1s-1 .4477153-1 1v10h-9c-.5522847 0-1-.4477153-1-1v-21h10v6c0 .5522847.4477153 1 1 1s1-.4477153 1-1v-6h2z"/></g></g></g></svg>