<?xml version="1.0" encoding="iso-8859-1"?>
<!-- Generator: Adobe Illustrator 19.0.0, SVG Export Plug-In . SVG Version: 6.00 Build 0)  -->
<svg version="1.1" id="Capa_1" xmlns="http://www.w3.org/2000/svg" xmlns:xlink="http://www.w3.org/1999/xlink" x="0px" y="0px"
	 viewBox="0 0 512.011 512.011" style="enable-background:new 0 0 512.011 512.011;" xml:space="preserve">
<path style="fill:#7A5B44;" d="M328.695,488.219c0,0,54.24-144.224-9.2-338.288l29.04-9.664c0,0,82.896,206.256,35.536,353.776
	L328.695,488.219z"/>
<path style="fill:#8CC63E;" d="M490.679,72.587c-13.168-31.168-44.336-32.656-44.336-32.656
	c-60.432-28.688-97.888,20.032-97.888,20.032c-3.536-42.048,34.32-53.952,34.32-53.952c-31.792-15.904-58.352,4.784-58.352,4.784
	c-35.152,38.896-22.832,63.36-22.832,63.36c-12.544-25.104-61.28-18.64-61.28-18.64c-72.368,15.024-45.424,64.608-45.424,64.608
	c26.176-55.408,92.032-4.144,92.032-4.144c-7.52-3.776-19.664-0.432-19.664-0.432l-65.968,30.32
	c-27.696,17.584-27.344,51.632-27.344,51.632c-9.84,20.704,5.424,33.056,5.424,33.056c-2.496-13.808,25.536-28.016,25.536-28.016
	c-0.416-7.536,28.384-25.488,28.384-25.488c12.496-16.704,30.192-5.872,30.192-5.872c-16.32,3.344-17.376,16.928-17.376,16.928
	l-12.784,55.84c-6.064,15.264,7.728,23.216,7.728,23.216c-10.896,34.304,20.256,60.88,20.256,60.88s-5.424-30.96,20.096-42.24
	c0,0-0.208-19.456,12.352-34.096c12.56-14.64,15.28-42.032,15.28-42.032s22.176-19.232,21.984-40.784
	c-0.192-21.536,15.696-11.504,15.696-11.504l32.192,33.904c0,0,9.84-8.16,34.08,29.088l6.48-7.728c0,0,19.232,41.008,31.984,33.264
	c0,0,13.584,36.608,9.392,47.072c0,0,34.736-29.68-18.144-119.44c0,0-23.84-23.44-57.712-30.976c0,0,28.24-3.12,47.68,5.04
	l-1.456-6.48c0,0,25.728,3.984,38.688,19.888l-0.208-8.992c0,0,24.672,11.312,34.288,33.904c0,0,11.312-39.312-44.512-79.296
	c0,0-15.888-18.416-54.784-22.192c0,0,8.528-20.416,43.312-22.784c0,0,9.328,11.072,22.592,5.024
	C483.863,60.667,490.679,72.587,490.679,72.587z"/>
<path style="fill:#7A5B44;" d="M114.119,490.699c0,0-31.168-82.848,5.28-194.336l-16.688-5.552c0,0-47.616,118.48-20.416,203.232
	L114.119,490.699z"/>
<path style="fill:#8CC63E;" d="M19.831,251.931c7.568-17.904,25.472-18.752,25.472-18.752c34.72-16.48,56.24,11.504,56.24,11.504
	c2.032-24.144-19.712-30.992-19.712-30.992c18.256-9.136,33.52,2.752,33.52,2.752c20.192,22.336,13.104,36.4,13.104,36.4
	c7.2-14.416,35.2-10.704,35.2-10.704c41.584,8.64,26.096,37.12,26.096,37.12c-15.024-31.84-52.864-2.384-52.864-2.384
	c4.32-2.16,11.296-0.24,11.296-0.24l37.904,17.424c15.904,10.096,15.712,29.664,15.712,29.664c5.648,11.888-3.12,18.992-3.12,18.992
	c1.44-7.936-14.672-16.096-14.672-16.096c0.24-4.32-16.304-14.64-16.304-14.64c-7.168-9.6-17.344-3.376-17.344-3.376
	c9.376,1.92,9.984,9.728,9.984,9.728l7.344,32.08c3.488,8.768-4.448,13.344-4.448,13.344c6.256,19.696-11.632,34.976-11.632,34.976
	s3.12-17.776-11.552-24.272c0,0,0.112-11.168-7.104-19.584c-7.216-8.4-8.784-24.144-8.784-24.144s-12.736-11.056-12.624-23.424
	c0.112-12.384-9.008-6.608-9.008-6.608l-18.512,19.44c0,0-5.648-4.688-19.584,16.704l-3.728-4.448c0,0-11.04,23.552-18.384,19.104
	c0,0-7.792,21.024-5.392,27.04c0,0-19.952-17.056,10.416-68.608c0,0,13.696-13.456,33.152-17.792c0,0-16.224-1.792-27.392,2.896
	l0.832-3.728c0,0-14.784,2.288-22.224,11.424l0.112-5.168c0,0-14.176,6.496-19.696,19.472c0,0-6.496-22.592,25.568-45.552
	c0,0,9.12-10.576,31.472-12.752c0,0-4.896-11.728-24.88-13.088c0,0-5.36,6.368-12.976,2.896
	C23.751,245.083,19.831,251.931,19.831,251.931z"/>
<g>
	<path style="fill:#FFD93B;" d="M469.495,512.011c-45.728-48.608-124.528-80.816-214.384-80.816S86.455,463.403,40.743,512.011
		H469.495z"/>
	<circle style="fill:#FFD93B;" cx="82.183" cy="81.995" r="75.088"/>
</g>
<path style="fill:#F4C534;" d="M157.191,82.011c0,41.44-33.6,75.04-75.04,75.04c-28.64,0-53.6-16.16-66.4-39.68
	c10.72,5.6,22.88,8.96,35.68,8.96c41.44,0,75.04-33.6,75.04-75.04c0-12.8-3.2-24.8-8.64-35.36
	C141.191,28.571,157.191,53.531,157.191,82.011z"/>
<g>
</g>
<g>
</g>
<g>
</g>
<g>
</g>
<g>
</g>
<g>
</g>
<g>
</g>
<g>
</g>
<g>
</g>
<g>
</g>
<g>
</g>
<g>
</g>
<g>
</g>
<g>
</g>
<g>
</g>
</svg>
