<?xml version="1.0" encoding="iso-8859-1"?>
<!-- Generator: Adobe Illustrator 19.0.0, SVG Export Plug-In . SVG Version: 6.00 Build 0)  -->
<svg version="1.1" id="Capa_1" xmlns="http://www.w3.org/2000/svg" xmlns:xlink="http://www.w3.org/1999/xlink" x="0px" y="0px"
	 viewBox="0 0 464 464" style="enable-background:new 0 0 464 464;" xml:space="preserve">
<path style="fill:#E6E6E6;" d="M96,4h272v456H96V4z"/>
<path style="fill:#B3B3B3;" d="M368,76h96v376h-96V76z"/>
<path style="fill:#CCCCCC;" d="M0,124h96v328H0V124z"/>
<path style="fill:#3FA9F5;" d="M184,372h96v88h-96V372z"/>
<g>
	<path style="fill:#06AAE9;" d="M128,36h48v48h-48V36z"/>
	<path style="fill:#06AAE9;" d="M208,36h48v48h-48V36z"/>
	<path style="fill:#06AAE9;" d="M288,36h48v48h-48V36z"/>
	<path style="fill:#06AAE9;" d="M128,116h48v48h-48V116z"/>
	<path style="fill:#06AAE9;" d="M208,116h48v48h-48V116z"/>
	<path style="fill:#06AAE9;" d="M288,116h48v48h-48V116z"/>
	<path style="fill:#06AAE9;" d="M128,196h48v48h-48V196z"/>
	<path style="fill:#06AAE9;" d="M208,196h48v48h-48V196z"/>
	<path style="fill:#06AAE9;" d="M288,196h48v48h-48V196z"/>
	<path style="fill:#06AAE9;" d="M128,276h48v48h-48V276z"/>
	<path style="fill:#06AAE9;" d="M208,276h48v48h-48V276z"/>
	<path style="fill:#06AAE9;" d="M288,276h48v48h-48V276z"/>
	<path style="fill:#06AAE9;" d="M32,156h8v8h-8V156z"/>
	<path style="fill:#06AAE9;" d="M64,156h8v8h-8V156z"/>
	<path style="fill:#06AAE9;" d="M32,188h8v8h-8V188z"/>
	<path style="fill:#06AAE9;" d="M64,188h8v8h-8V188z"/>
	<path style="fill:#06AAE9;" d="M32,220h8v8h-8V220z"/>
	<path style="fill:#06AAE9;" d="M64,220h8v8h-8V220z"/>
	<path style="fill:#06AAE9;" d="M32,252h8v8h-8V252z"/>
	<path style="fill:#06AAE9;" d="M64,252h8v8h-8V252z"/>
	<path style="fill:#06AAE9;" d="M32,284h8v8h-8V284z"/>
	<path style="fill:#06AAE9;" d="M64,284h8v8h-8V284z"/>
	<path style="fill:#06AAE9;" d="M32,316h8v8h-8V316z"/>
	<path style="fill:#06AAE9;" d="M64,316h8v8h-8V316z"/>
	<path style="fill:#06AAE9;" d="M32,348h8v8h-8V348z"/>
	<path style="fill:#06AAE9;" d="M64,348h8v8h-8V348z"/>
	<path style="fill:#06AAE9;" d="M32,380h8v8h-8V380z"/>
	<path style="fill:#06AAE9;" d="M64,380h8v8h-8V380z"/>
	<path style="fill:#06AAE9;" d="M32,412h8v8h-8V412z"/>
	<path style="fill:#06AAE9;" d="M64,412h8v8h-8V412z"/>
	<path style="fill:#06AAE9;" d="M400,108h32v32h-32V108z"/>
	<path style="fill:#06AAE9;" d="M400,172h32v32h-32V172z"/>
	<path style="fill:#06AAE9;" d="M400,236h32v32h-32V236z"/>
	<path style="fill:#06AAE9;" d="M400,300h32v32h-32V300z"/>
	<path style="fill:#06AAE9;" d="M400,364h32v32h-32V364z"/>
</g>
<path style="fill:#0378A3;" d="M232,372h48v88h-48V372z"/>
<g>
</g>
<g>
</g>
<g>
</g>
<g>
</g>
<g>
</g>
<g>
</g>
<g>
</g>
<g>
</g>
<g>
</g>
<g>
</g>
<g>
</g>
<g>
</g>
<g>
</g>
<g>
</g>
<g>
</g>
</svg>
