<svg id="Capa_1" enable-background="new 0 0 512 512" height="512" viewBox="0 0 512 512" width="512" xmlns="http://www.w3.org/2000/svg"><circle cx="256" cy="256" fill="#fdba12" r="256"/><path d="m511.339 274.348-81.143-81.143-369.864 28.901 139.403 139.404-94.735 47.35 97.53 97.53c17.247 3.665 35.13 5.61 53.47 5.61 135.214 0 245.931-104.832 255.339-237.652z" fill="#ff9700"/><path d="m407 408.86c-100.667 0-201.333 0-302 0-22.702-73.796-22.702-152.711 0-226.507h302c22.702 73.796 22.702 152.712 0 226.507z" fill="#966857"/><path d="m407 182.354c-50.333 0-100.667 0-151 0v226.506h151c22.702-73.795 22.702-152.711 0-226.506z" fill="#805142"/><path d="m60.332 222.106c9.74-34 130.445-114.608 195.668-148.608 65.223 34 185.929 114.608 195.668 148.608-130.445 0-260.891 0-391.336 0z" fill="#00d65b"/><path d="m256 73.498v148.608h195.668c-9.739-34-130.445-114.608-195.668-148.608z" fill="#06bf51"/><path d="m304.667 408.86h-97.333v-107.193c-.001-26.878 21.788-48.667 48.666-48.667 26.878 0 48.667 21.789 48.667 48.667z" fill="#704639"/><path d="m304.667 301.667c0-26.878-21.789-48.667-48.667-48.667v155.86h48.667z" fill="#4f2f25"/></svg>