<svg id="Layer_1" enable-background="new 0 0 512 512" height="512" viewBox="0 0 512 512" width="512" xmlns="http://www.w3.org/2000/svg"><g><g><path d="m256 233.166-21.333 96 21.333 57.666h46.746c55.951 0 109.225-24.104 146.161-66.131 6.643-7.558 12.65-15.615 18.017-24.061 0 0-191.687-63.474-210.924-63.474z" fill="#7fe680"/><path d="m209.254 386.832h46.746v-153.666c-19.238 0-213.643 59.059-213.643 59.059 6.026 10.065 12.946 19.612 20.737 28.477 36.935 42.026 90.209 66.13 146.16 66.13z" fill="#b6ff9e"/></g><g><path d="m256 240.033-5.599 183.192 5.599 42.176 33.728 14.608v-234.377z" fill="#ff3838"/><path d="m222.272 245.632v234.377l33.728-14.608v-225.368z" fill="#ff5c5c"/></g><g><path d="m312.396 283.075c14.166 6.071 29.165 9.15 44.578 9.15l109.951 4.416c12.905-20.308 22.019-42.921 26.715-66.669 18.36-92.851 18.36-102.327 18.36-105.894 0-50.777-41.31-92.087-92.088-92.087-18.429 0-36.007 5.345-51.159 15.508h-112.753l-20 114.609 20 109.446c19.237 0 38.475 3.84 56.396 11.521z" fill="#0cba68"/><path d="m199.605 283.075c17.92-7.68 37.158-11.521 56.395-11.52v-224.056h-112.754c-15.152-10.163-32.731-15.508-51.159-15.508-50.777 0-92.087 41.31-92.087 92.087 0 3.57 0 13.054 18.36 105.894 4.359 22.04 12.53 43.101 23.996 62.252h112.67c15.413 0 30.413-3.078 44.579-9.149z" fill="#0dca71"/></g><g><path d="m179.333 121.657h-30c0-32.9-26.766-59.667-59.666-59.667v-30c49.442.001 89.666 40.225 89.666 89.667z" fill="#0cba68"/></g><g><path d="m362.667 121.657h-30c0-49.442 40.224-89.667 89.666-89.667v30c-32.9.001-59.666 26.767-59.666 59.667z" fill="#0bad61"/></g><path d="m198.333 212.832h30v30h-30z" fill="#32393f"/><path d="m283.667 212.832h30v30h-30z" fill="#262b2f"/><path d="m80.777 126.499h30v60.592h-30z" fill="#32393f"/><path d="m401.223 126.499h30v60.592h-30z" fill="#262b2f"/></g></svg>