<svg id="Capa_1" enable-background="new 0 0 511.829 511.829" height="512" viewBox="0 0 511.829 511.829" width="512" xmlns="http://www.w3.org/2000/svg"><g><g><path d="m231.135 307.722h53.616v196.684h-53.616z" fill="#e19974" transform="matrix(1 -.003 .003 1 -1.168 .745)"/><path d="m258.546 433.976.203 70.428 26.285-.076-.567-196.683-53.615.155.285 98.924c15.094-.043 27.365 12.158 27.409 27.252z" fill="#d77f4a"/><path d="m336.965 382.964h33.126v121.519h-33.126z" fill="#e19974"/><path d="m336.965 382.964v62c9.459 0 17.126 7.668 17.126 17.126v42.393h16v-121.519z" fill="#d77f4a"/><path d="m428.531 191.993c3.57-2.97 6.5-6.63 8.61-10.74 3.26-6.39 4.54-13.85 3.17-21.45-2.26-12.57-11.19-22.28-22.51-26.19 5.97-10.24 6.41-23.28 0-34.25-6.45-11.04-18.17-17.13-30.16-16.95 2.1-11.65-1.97-24.07-11.77-32.19-9.85-8.18-22.97-9.91-34.17-5.66-2.04-11.67-10.13-21.95-22.12-26.25-12.08-4.33-24.99-1.5-34.06 6.3-5.92-10.26-17.06-17.17-29.81-17.13-12.84.04-24 7.1-29.84 17.51-9.1-7.63-21.94-10.33-33.91-5.95-12.05 4.4-20.11 14.83-22.01 26.6-11.18-4.07-24.17-2.24-33.91 5.94-9.81 8.24-13.8 20.79-11.54 32.5-11.9-.03-23.48 6.11-29.83 17.12-6.39 11.07-5.82 24.22.33 34.46-11.19 4.02-19.96 13.73-22.14 26.23-1.2 6.9-.22 13.67 2.43 19.63 2.19 4.9 5.52 9.25 9.72 12.64-9.13 7.59-14.03 19.7-11.78 32.19 2.26 12.57 11.19 22.28 22.51 26.19-5.97 10.23-6.41 23.28-.01 34.25 6.45 11.04 18.18 17.13 30.17 16.95-2.1 11.65 1.97 24.06 11.76 32.19 9.86 8.18 22.97 9.91 34.17 5.66 2.04 11.67 10.13 21.94 22.13 26.25 8.63 3.09 17.69 2.53 25.46-.9 3.11-1.36 6.01-3.19 8.6-5.41 5.92 10.27 17.06 17.17 29.81 17.14 12.84-.04 24-7.1 29.84-17.51 1.89 1.58 3.94 2.96 6.11 4.09 8.28 4.36 18.3 5.33 27.79 1.86 12.06-4.4 20.12-14.83 22.02-26.6 11.17 4.07 24.17 2.24 33.91-5.95 9.81-8.23 13.8-20.78 11.54-32.49 11.9.03 23.48-6.11 29.83-17.12 6.38-11.08 5.82-24.22-.33-34.46 11.19-4.02 19.96-13.73 22.14-26.23 2.19-12.59-2.86-24.75-12.15-32.27z" fill="#0ab69f"/><g><path d="m428.531 191.993c3.57-2.97 6.5-6.63 8.61-10.74-5.86-3.73-12.43-6.23-19.27-7.37-5.79-6.22-13.11-11.03-21.42-13.8-5.3-1.76-10.8-2.66-16.37-2.66-3.21 0-6.39.3-9.51.88-7.18-3.68-15.22-5.7-23.48-5.7-.43 0-.86.01-1.29.02-8.9.22-17.42 2.73-24.85 7.09-2.17-.28-4.36-.42-6.55-.42-6.45 0-12.77 1.19-18.81 3.55-8.28 3.24-15.43 8.5-20.91 15.12-5.13 1.15-10.05 3.07-14.59 5.72-1.34.77-2.65 1.61-3.93 2.52-6.62-5.37-14.48-9-22.79-10.59-5.62-6.35-12.82-11.34-21.06-14.32-5.66-2.06-11.58-3.1-17.59-3.1-2.76 0-5.49.23-8.19.66-7.46-4.06-15.92-6.3-24.68-6.3-8.9 0-17.48 2.3-25.01 6.47-2.58-.4-5.19-.6-7.82-.6-6.01 0-11.93 1.04-17.59 3.09-8.37 3.03-15.66 8.12-21.31 14.6-5.19 1.03-10.2 2.86-14.83 5.41 2.19 4.9 5.52 9.25 9.72 12.64-9.13 7.59-14.03 19.7-11.78 32.19 2.26 12.57 11.19 22.28 22.51 26.19-5.97 10.23-6.41 23.28-.01 34.25 6.45 11.04 18.18 17.13 30.17 16.95-2.1 11.65 1.97 24.06 11.76 32.19 9.86 8.18 22.97 9.91 34.17 5.66 2.04 11.67 10.13 21.94 22.13 26.25 8.63 3.09 17.69 2.53 25.46-.9 3.11-1.36 6.01-3.19 8.6-5.41 5.92 10.27 22.68-36.52 35.43-36.55 12.84-.04 18.38 46.59 24.22 36.18 1.89 1.58 3.94 2.96 6.11 4.09 8.28 4.36 18.3 5.33 27.79 1.86 12.06-4.4 20.12-14.83 22.02-26.6 11.17 4.07 24.17 2.24 33.91-5.95 9.81-8.23 13.8-20.78 11.54-32.49 11.9.03 23.48-6.11 29.83-17.12 6.38-11.08 5.82-24.22-.33-34.46 11.19-4.02 19.96-13.73 22.14-26.23 2.19-12.59-2.86-24.75-12.15-32.27z" fill="#01998d"/></g><path d="m458.061 311.493c5.65-4.91 8.57-12.61 6.97-20.45-1.6-7.89-7.36-13.89-14.56-16.19 3.63-6.54 3.72-14.77-.47-21.6-4.22-6.87-11.7-10.54-19.25-10.26 1.16-7.37-1.58-15.14-7.87-20.13-6.33-5.01-14.62-5.92-21.62-3.09-1.45-7.32-6.69-13.69-14.31-16.23-7.67-2.56-15.78-.59-21.38 4.45-3.88-6.39-11-10.58-19.03-10.38-8.1.2-15.03 4.81-18.57 11.45-5.84-4.68-13.97-6.2-21.45-3.28-7.54 2.95-12.47 9.64-13.51 17.08-5.83-1.98-12.38-1.43-17.88 1.77-1.19.69-2.33 1.51-3.41 2.45-6.07 5.33-8.41 13.3-6.82 20.65-7.5.15-14.72 4.18-18.56 11.21-3.87 7.07-3.33 15.35.69 21.71-7 2.7-12.39 8.94-13.59 16.85-1.21 7.96 2.15 15.56 8.11 20.17-5.65 4.92-8.57 12.62-6.98 20.46 1.61 7.89 7.37 13.88 14.56 16.19-3.62 6.54-3.72 14.77.48 21.59 4.22 6.87 11.7 10.54 19.25 10.26-1.03 6.53 1 13.36 5.84 18.3.63.64 1.31 1.26 2.03 1.83 6.32 5.02 14.61 5.92 21.61 3.09 1.45 7.32 6.7 13.69 14.32 16.24 7.67 2.56 15.77.59 21.38-4.46 3.88 6.39 10.99 10.59 19.03 10.39 8.09-.21 15.03-4.81 18.56-11.46 5.85 4.68 13.98 6.2 21.46 3.28 7.54-2.94 12.47-9.63 13.51-17.08 7.1 2.41 15.26 1.07 21.29-4.22 6.07-5.33 8.41-13.29 6.82-20.64 7.5-.15 14.71-4.19 18.56-11.21 3.87-7.08 3.33-15.35-.69-21.72 7-2.69 12.39-8.94 13.59-16.85 1.21-7.96-2.15-15.55-8.11-20.17z" fill="#0ed2b3"/><path d="m145.965 382.964h33.126v121.519h-33.126z" fill="#e19974"/><path d="m145.965 382.964v62c9.459 0 17.126 7.668 17.126 17.126v42.393h16v-121.519z" fill="#d77f4a"/><path d="m307.621 339.803c-1.53 8.62-5.21 16.55-10.53 23.18-.15 8.6-2.46 17.18-6.93 24.87-3.89 6.72-9.21 12.36-15.46 16.62-4.84-4.94-6.87-11.77-5.84-18.3-7.55.28-15.03-3.39-19.25-10.26-4.2-6.82-4.1-15.05-.48-21.59-7.19-2.31-12.95-8.3-14.56-16.19-1.59-7.84 1.33-15.54 6.98-20.46-5.96-4.61-9.32-12.21-8.11-20.17 1.2-7.91 6.59-14.15 13.59-16.85-4.02-6.36-4.56-14.64-.69-21.71 3.84-7.03 11.06-11.06 18.56-11.21-1.59-7.35.75-15.32 6.82-20.65 1.08-.94 2.22-1.76 3.41-2.45 5.91 4.19 10.96 9.65 14.7 16.09 4.4 7.57 6.7 16.01 6.92 24.49 5.43 6.68 9.2 14.72 10.76 23.48 1.52 8.62.79 17.33-1.92 25.37 2.81 8.14 3.58 16.98 2.03 25.74z" fill="#0ab69f"/><path d="m270.479 314.2c5.773-4.769 8.885-12.395 7.489-20.272-1.406-7.93-7.017-14.067-14.149-16.553 3.785-6.445 4.088-14.671.068-21.598-4.047-6.973-11.43-10.831-18.986-10.74 1.341-7.344-1.202-15.177-7.362-20.318-6.201-5.176-14.465-6.289-21.534-3.633-1.265-7.358-6.348-13.853-13.903-16.588-7.606-2.754-15.755-.988-21.484 3.913-3.718-6.483-10.727-10.857-18.768-10.857-8.094 0-15.144 4.432-18.843 10.987-5.723-4.827-13.813-6.553-21.369-3.817-7.606 2.754-12.707 9.317-13.929 16.736-7.038-2.589-15.233-1.457-21.392 3.684-6.2 5.176-8.737 13.079-7.335 20.466-7.503-.038-14.816 3.813-18.836 10.74-4.047 6.973-3.714 15.263.143 21.727-7.064 2.517-12.611 8.624-14.007 16.502-1.406 7.93 1.758 15.606 7.604 20.368-5.773 4.769-8.885 12.395-7.489 20.272 1.406 7.93 7.017 14.067 14.149 16.553-3.785 6.445-4.088 14.671-.068 21.598 4.047 6.973 11.43 10.831 18.986 10.74-1.341 7.344 1.202 15.177 7.362 20.318 6.201 5.176 14.465 6.289 21.534 3.633 1.265 7.358 6.348 13.853 13.903 16.588 7.606 2.754 15.755.988 21.484-3.913 3.718 6.483 10.727 10.857 18.768 10.857 8.094 0 15.144-4.432 18.843-10.987 5.723 4.827 13.813 6.553 21.369 3.817 7.606-2.754 12.707-9.317 13.929-16.736 7.038 2.589 15.233 1.458 21.392-3.684 6.2-5.176 8.737-13.079 7.335-20.466 7.503.038 14.816-3.813 18.836-10.741 4.047-6.973 3.714-15.263-.143-21.727 7.064-2.517 12.611-8.624 14.007-16.502 1.406-7.928-1.757-15.605-7.604-20.367z" fill="#5de1c4"/></g><path d="m468.178 311.127c8.837-12.943 4.915-31.727-8.311-40.096 3.326-12.964-3.863-27.652-16.185-32.98 8.064-14.519 6.046-33.687-4.641-46.207 16.04-19.183 10.38-49.754-11.412-61.986 8.481-23.528-7.423-50.29-32.06-54.351-.101-25.012-24.291-44.753-48.83-40.169-8.682-23.462-38.164-33.812-59.69-21.16-16.289-19.078-47.342-18.863-63.372.406-21.695-12.391-51.058-1.637-59.421 21.908-11.85-1.844-24.124 1.441-33.456 9.269-1.976 1.658-3.802 3.5-5.426 5.474-2.632 3.199-2.172 7.926 1.026 10.558 3.199 2.631 7.926 2.171 10.557-1.026 1.041-1.265 2.213-2.447 3.484-3.514 7.335-6.151 17.518-7.928 26.57-4.637 2.101.762 4.432.55 6.36-.581 1.928-1.132 3.25-3.064 3.606-5.271 1.534-9.488 8.126-17.44 17.208-20.753 9.019-3.294 19.198-1.512 26.563 4.656 3.427 3.011 9.218 1.951 11.354-2.077 9.918-17.983 36.545-18.172 46.693-.3 1.117 1.932 3.035 3.267 5.235 3.641 2.203.372 4.453-.251 6.146-1.704 7.342-6.305 17.569-8.191 26.688-4.929 9.019 3.23 15.643 11.079 17.289 20.482.385 2.202 1.733 4.118 3.676 5.225s4.28 1.289 6.369.496c9.077-3.441 19.334-1.747 26.774 4.425 7.359 6.09 10.879 15.699 9.186 25.079-.925 4.463 2.91 9.061 7.493 8.831 20.569-.447 34.106 22.162 23.609 39.92-1.132 1.939-1.335 4.284-.555 6.389.781 2.105 2.464 3.75 4.586 4.482 9.158 3.159 15.904 10.987 17.604 20.432 1.688 9.359-1.839 18.973-9.206 25.088-3.607 2.844-3.568 8.805.076 11.603 7.529 6.088 11.18 15.798 9.466 25.273-5.926-8.7-16.953-13.518-27.263-12.212-6.853-14.115-25.165-20.098-39.064-12.875-11.26-10.911-30.525-10.359-41.142 1.173-14.205-6.372-32.022.512-38.151 14.823-15.939-2.116-29.641 7.012-35.591 22.204-2.271-14.576-16.682-25.48-31.325-23.893-6.495-14.274-24.643-20.729-38.727-13.849-10.984-11.193-30.267-11.128-41.161.145-14.143-6.777-32.245-.197-38.634 14.118-8.117-.686-16.449 2.111-22.466 7.831-.057-7.863 3.408-15.485 9.606-20.63 3.608-2.852 3.567-8.799-.076-11.604-7.501-6.063-11.138-15.7-9.492-25.146 1.637-9.376 8.271-17.217 17.313-20.461 2.114-.759 3.777-2.426 4.531-4.541.754-2.116.521-4.459-.637-6.384-10.747-17.58 2.513-40.388 23.025-40.215.028.001.058.001.085 0 9.909-.337 9.937-14.635.018-15-28.541-.362-49.391 28.839-39.497 55.533-21.634 12.517-26.907 43.163-10.621 62.117-10.264 12.395-12.264 30.985-4.554 45.291-14.444 4.343-23.388 20.645-19.169 35.12-12.953 8.809-16.265 27.693-7.014 40.337-9.159 12.72-5.725 31.585 7.298 40.295-4.234 15.089 5.511 31.639 20.723 35.373 1.219 15.629 16.055 27.842 31.638 26.18 5.844 12.895 21.726 19.779 35.164 15.233v64.845h-47.64c-4.142 0-7.5 3.357-7.5 7.5s3.358 7.5 7.5 7.5h335.108c4.142 0 7.5-3.357 7.5-7.5s-3.358-7.5-7.5-7.5h-49.048v-65.858c13.734 4.522 29.824-2.808 35.352-16.146 15.624 1.17 30.085-11.53 30.782-27.18 15.08-4.234 24.296-21.07 19.575-36.015 12.729-9.132 15.567-28.089 6.001-40.505zm-343.799 106.398c-4.754-1.724-8.234-5.864-9.082-10.807-.661-4.531-5.785-7.454-10.022-5.756-4.802 1.796-10.214.889-14.12-2.363-3.866-3.229-5.709-8.292-4.809-13.215.93-4.46-2.839-8.952-7.378-8.849-10.809.322-18.08-11.711-12.472-21.032 1.141-1.935 1.353-4.281.579-6.391-.773-2.109-2.452-3.761-4.574-4.5-10.247-3.441-12.794-17.151-4.365-23.96 3.626-2.84 3.594-8.794-.041-11.607-8.473-6.801-6.05-20.418 4.194-23.984 2.117-.754 3.784-2.416 4.543-4.53s.531-4.458-.623-6.386c-2.594-4.336-2.63-9.738-.091-14.102 2.514-4.328 7.203-7.008 12.252-7.008 4.606.142 8.446-4.358 7.488-8.879-.245-1.309-.305-2.604-.18-3.848.319-3.708 2.085-7.087 4.959-9.482 3.881-3.234 9.256-4.156 14.028-2.4 4.251 1.684 9.354-1.3 9.988-5.821 1.685-10.706 14.895-15.448 23.115-8.401 1.707 1.436 3.964 2.04 6.161 1.642 2.196-.396 4.102-1.75 5.199-3.692 5.234-9.458 19.308-9.527 24.623-.085 2.168 4.014 7.986 5.012 11.376 1.969 8.138-7.09 21.405-2.476 23.163 8.236.378 2.203 1.719 4.122 3.657 5.235 1.938 1.112 4.272 1.304 6.364.521 4.808-1.801 10.222-.89 14.137 2.378 3.857 3.214 5.693 8.271 4.792 13.199-.937 4.454 2.843 8.957 7.378 8.849 3.056-.048 6.105.889 8.557 2.643.925.661 1.95 1.073 3 1.266.094 1.061.403 2.118.973 3.099 2.513 4.326 2.494 9.703-.05 14.032-2.422 3.902-.373 9.474 3.996 10.882 4.822 1.682 8.368 5.817 9.253 10.784.87 4.922-1.003 9.973-4.889 13.18-3.614 2.837-3.592 8.788.04 11.601 3.942 3.21 5.843 8.282 4.959 13.248-.871 4.924-4.38 9.039-9.157 10.74-2.117.753-3.784 2.416-4.544 4.53-.759 2.114-.531 4.458.623 6.386 3.512 5.701 2.187 13.516-2.966 17.771-2.546 2.153-5.869 3.357-9.238 3.348-.025-.001-.051-.001-.074 0-4.569-.109-8.326 4.435-7.368 8.9 1.364 6.71-2.788 13.74-9.309 15.831-3.058 1.042-6.434.995-9.508-.131-2.099-.771-4.431-.563-6.361.563-1.931 1.126-3.258 3.055-3.621 5.261-1.641 10.694-14.945 15.449-23.099 8.404-3.421-3.029-9.239-1.976-11.376 2.064-.408.728-.893 1.423-1.486 2.119-5.303 6.658-16.382 6.67-21.697-.019-.542-.638-1.021-1.32-1.425-2.026-1.109-1.938-3.025-3.281-5.226-3.664-2.199-.384-4.457.235-6.155 1.687-3.887 3.319-9.29 4.303-14.091 2.57zm152.666-2.118.081 28.261c.012 4.135 3.368 7.479 7.5 7.479 4.15.001 7.513-3.372 7.5-7.521l-.073-25.306c.428-.031.855-.07 1.281-.119 6.02 12.51 21.809 19.095 34.961 14.552v64.076h-36.017l-.062-21.57c-.011-4.142-3.382-7.491-7.521-7.478-4.142.012-7.49 3.38-7.479 7.521l.062 21.476c-9.593.04-29.052.063-38.679.052l-.244-84.232c8.241-4.607 13.781-13.417 14.512-22.652.161-.043.316-.104.476-.15 2.416 1.37 5.012 2.395 7.711 3.031 1.049 9.479 7.256 18.359 15.991 22.58zm-90.819 16.367c13.439 4.548 29.475-2.474 35.187-15.434.651.055 1.303.08 1.955.092l.233 80.398h-37.375zm-33.173 5.798c5.76 1.921 12.415 1.914 18.172-.006v59.263h-18.172zm190.242 59.257v-59.285c5.775 1.926 12.393 1.925 18.172 0v59.285zm115.461-166.37c-.752 4.956-4.155 9.161-8.88 10.975-4.332 1.544-6.197 7.185-3.653 11.009 5.881 9.117-.92 21.33-11.702 21.425-2.241.044-4.345 1.09-5.735 2.849s-1.92 4.047-1.445 6.237c2.398 10.558-8.259 19.755-18.407 16.17-4.287-1.573-9.314 1.529-9.836 6.065-1.426 10.765-14.509 15.809-22.905 8.978-3.497-2.94-9.291-1.729-11.318 2.366-4.359 8.556-16.835 10.031-23.062 2.736-2.512-4.769-8.395-7.905-12.954-3.749-3.802 3.418-9.174 4.539-14.015 2.924-4.796-1.604-8.382-5.659-9.359-10.586-.779-4.496-5.97-7.307-10.158-5.498-9.933 4.18-21.093-4.416-19.307-15.097.767-4.218-2.657-8.477-6.928-8.65 4.97-7.022 6.493-16.063 4.256-24.185 12.967-8.812 16.26-27.692 7.017-40.339 9.158-12.725 5.72-31.577-7.298-40.293 1.917-7.297.937-15.182-2.946-21.867-1.109-1.908-2.93-3.146-4.931-3.569-.004-.509-.06-1.024-.171-1.541-.732-3.378 3.714-12.681 9.379-15.884 6.219-3.519 12.686-2.163 15.987-1.046 4.293 1.574 9.309-1.528 9.836-6.063.702-5.015 4.085-9.28 8.824-11.133 4.721-1.841 10.11-1.018 14.066 2.148 3.49 2.933 9.254 1.746 11.303-2.323 5.024-9.6 19.077-10 24.623-.706 2.272 3.954 8.107 4.808 11.422 1.681 7.966-7.289 21.332-3.004 23.365 7.661.775 4.499 5.976 7.308 10.165 5.495 10.065-4.169 21.2 4.506 19.281 15.309v.002c-.676 4.455 3.227 8.711 7.716 8.45 10.791-.529 18.256 11.309 12.912 20.723-2.332 3.962-.135 9.499 4.277 10.788 4.86 1.55 8.503 5.588 9.51 10.545 1 4.893-.743 9.983-4.547 13.285-3.543 2.921-3.374 8.875.325 11.595 4.02 3.115 6.05 8.139 5.293 13.113z"/></g></svg>