<?xml version="1.0" encoding="iso-8859-1"?>
<!-- Generator: Adobe Illustrator 19.0.0, SVG Export Plug-In . SVG Version: 6.00 Build 0)  -->
<svg version="1.1" id="Capa_1" xmlns="http://www.w3.org/2000/svg" xmlns:xlink="http://www.w3.org/1999/xlink" x="0px" y="0px"
	 viewBox="0 0 512.001 512.001" style="enable-background:new 0 0 512.001 512.001;" xml:space="preserve">
<g>
	
		<rect x="245.484" y="182.794" transform="matrix(-0.7377 -0.6751 0.6751 -0.7377 290.6861 592.8461)" style="fill:#723802;" width="30.043" height="114.325"/>
	
		<rect x="316.836" y="150.8" transform="matrix(-0.9029 -0.4299 0.4299 -0.9029 626.6061 473.2034)" style="fill:#723802;" width="99.838" height="30.044"/>
</g>
<polygon style="fill:#984D00;" points="76.158,218.394 69.782,189.035 196.823,161.445 299.93,182.633 411.917,172.176 
	512.001,182.861 508.811,212.735 411.717,202.369 298.267,212.962 196.995,192.152 "/>
<path style="fill:#79D60D;" d="M62.982,142.059c-21.617-21.617-62.315-15.967-62.315-15.967s-5.65,40.699,15.967,62.315
	c6.725,6.725,15.297,10.81,23.916,13.248c-8.619,2.439-17.191,6.524-23.916,13.248c-21.617,21.617-15.967,62.315-15.967,62.315
	s40.699,5.65,62.315-15.967c18.263-18.262,17.064-50.141,16.253-59.596C80.046,192.201,81.245,160.321,62.982,142.059z"/>
<path style="fill:#33BC00;" d="M40.549,201.656c-8.619,2.439-17.191,6.524-23.916,13.248
	c-21.617,21.617-15.967,62.315-15.967,62.315s40.699,5.65,62.315-15.967c18.263-18.262,17.064-50.141,16.253-59.596L40.549,201.656
	L40.549,201.656z"/>
<path style="fill:#79D60D;" d="M169.73,246.937c-30.571,0-55.354,32.773-55.354,32.773s24.783,32.773,55.354,32.773
	c9.511,0,18.461-3.173,26.279-7.543c-4.37,7.818-7.543,16.769-7.543,26.279c0,30.571,32.773,55.354,32.773,55.354
	s32.773-24.783,32.773-55.354c0-25.827-23.389-47.522-30.649-53.634C217.252,270.326,195.557,246.937,169.73,246.937z"/>
<path style="fill:#33BC00;" d="M196.01,304.941c-4.37,7.818-7.543,16.769-7.543,26.279c0,30.571,32.773,55.354,32.773,55.354
	s32.773-24.783,32.773-55.354c0-25.827-23.389-47.522-30.649-53.634L196.01,304.941z"/>
<g>
</g>
<g>
</g>
<g>
</g>
<g>
</g>
<g>
</g>
<g>
</g>
<g>
</g>
<g>
</g>
<g>
</g>
<g>
</g>
<g>
</g>
<g>
</g>
<g>
</g>
<g>
</g>
<g>
</g>
</svg>
