<svg id="coconut" enable-background="new 0 0 300 300" height="512" viewBox="0 0 300 300" width="512" xmlns="http://www.w3.org/2000/svg"><g><circle cx="117.279" cy="126.527" fill="#edebdc" r="92"/><path d="m55.113 50c-2.209 0-4-1.791-4-4v-8c0-2.209 1.791-4 4-4s4 1.791 4 4v8c0 2.209-1.791 4-4 4z" fill="#4c241d"/><path d="m55.113 74c-2.209 0-4-1.791-4-4v-8c0-2.209 1.791-4 4-4s4 1.791 4 4v8c0 2.209-1.791 4-4 4z" fill="#4c241d"/><path d="m47.113 58h-8c-2.209 0-4-1.791-4-4s1.791-4 4-4h8c2.209 0 4 1.791 4 4s-1.791 4-4 4z" fill="#4c241d"/><path d="m71.113 58h-8c-2.209 0-4-1.791-4-4s1.791-4 4-4h8c2.209 0 4 1.791 4 4s-1.791 4-4 4z" fill="#4c241d"/><path d="m241.113 266c-7.719 0-14-6.281-14-14s6.281-14 14-14 14 6.281 14 14-6.282 14-14 14zm0-20c-3.309 0-6 2.691-6 6s2.691 6 6 6 6-2.691 6-6-2.692-6-6-6z" fill="#4c241d"/><circle cx="90.445" cy="50.708" fill="#4c241d" r="4.276"/><circle cx="270.445" cy="206.708" fill="#4c241d" r="4.276"/><g><path d="m218.83 101.216c14.437 16.625 23.175 38.332 23.175 62.079 0 52.316-42.41 94.726-94.726 94.726s-94.726-42.41-94.726-94.726c0-21.213 4.858-41.291 24.289-60.722z" fill="#bf7e68"/><path d="m147.279 262.021c-54.438 0-98.727-44.289-98.727-98.727 0-17.734 2.895-40.984 25.461-63.551.74-.74 1.742-1.162 2.789-1.172l141.988-1.355c1.238-.102 2.291.492 3.059 1.377 15.578 17.938 24.156 40.916 24.156 64.701 0 54.438-44.289 98.727-98.726 98.727zm-68.748-155.464c-15.389 15.873-21.979 32.941-21.979 56.738 0 50.027 40.699 90.727 90.727 90.727s90.727-40.699 90.727-90.727c0-21.246-7.447-41.791-21.01-58.061z" fill="#4c241d"/></g><g><ellipse cx="147.279" cy="108.202" fill="#fff" rx="75.295" ry="25.675"/><path d="m147.279 137.877c-38.439 0-79.295-10.4-79.295-29.674 0-19.275 40.855-29.676 79.295-29.676s79.295 10.4 79.295 29.676c0 19.274-40.856 29.674-79.295 29.674zm0-51.35c-44.172 0-71.295 12.625-71.295 21.676s27.123 21.674 71.295 21.674 71.295-12.623 71.295-21.674-27.123-21.676-71.295-21.676z" fill="#4c241d"/></g><g><path d="m151.279 95.013c14.931 0 27.741 2.052 33.213 4.977" fill="#fff"/><path d="m184.488 103.99c-.637 0-1.281-.152-1.883-.473-4.191-2.242-15.504-4.504-31.326-4.504-2.209 0-4-1.791-4-4s1.791-4 4-4c15.365 0 28.814 2.088 35.1 5.449 1.947 1.041 2.682 3.465 1.641 5.414-.722 1.349-2.105 2.114-3.532 2.114z" fill="#4c241d"/></g><g fill="#4c241d"><circle cx="183.279" cy="192.527" r="6"/><circle cx="219.279" cy="184.527" r="6"/><circle cx="155.279" cy="188.527" r="6"/><circle cx="123.279" cy="164.527" r="6"/><circle cx="219.279" cy="140.527" r="6"/><circle cx="75.279" cy="144.527" r="6"/><circle cx="167.279" cy="212.527" r="6"/><path d="m85.275 178.527c-.762 0-1.533-.217-2.215-.672-1.838-1.225-2.334-3.709-1.109-5.547l8-12c1.225-1.84 3.705-2.338 5.547-1.109 1.838 1.225 2.334 3.709 1.109 5.547l-8 12c-.772 1.156-2.039 1.781-3.332 1.781z"/><path d="m89.275 226.527c-.762 0-1.533-.217-2.215-.672-1.838-1.225-2.334-3.709-1.109-5.547l8-12c1.225-1.84 3.703-2.338 5.547-1.109 1.838 1.225 2.334 3.709 1.109 5.547l-8 12c-.772 1.156-2.039 1.781-3.332 1.781z"/><path d="m129.275 234.527c-.762 0-1.533-.217-2.215-.672-1.838-1.225-2.334-3.709-1.109-5.547l8-12c1.227-1.838 3.707-2.34 5.547-1.109 1.838 1.225 2.334 3.709 1.109 5.547l-8 12c-.772 1.156-2.039 1.781-3.332 1.781z"/><path d="m197.275 174.527c-.762 0-1.533-.217-2.215-.672-1.838-1.225-2.334-3.709-1.109-5.547l8-12c1.223-1.84 3.707-2.338 5.547-1.109 1.838 1.225 2.334 3.709 1.109 5.547l-8 12c-.772 1.156-2.039 1.781-3.332 1.781z"/><path d="m120.677 202.891c-1.43 0-2.812-.768-3.533-2.117l-6.789-12.727c-1.039-1.949-.303-4.373 1.646-5.412 1.955-1.037 4.371-.303 5.412 1.646l6.789 12.727c1.039 1.949.303 4.373-1.646 5.412-.6.32-1.244.471-1.879.471z"/><path d="m204.677 226.891c-1.43 0-2.812-.768-3.533-2.117l-6.789-12.727c-1.039-1.949-.303-4.373 1.646-5.412 1.955-1.037 4.373-.303 5.412 1.646l6.789 12.727c1.039 1.949.303 4.373-1.646 5.412-.6.32-1.244.471-1.879.471z"/><path d="m160.677 170.891c-1.43 0-2.812-.768-3.533-2.117l-6.789-12.727c-1.039-1.949-.303-4.373 1.646-5.412 1.955-1.039 4.373-.303 5.412 1.646l6.789 12.727c1.039 1.949.303 4.373-1.646 5.412-.6.32-1.244.471-1.879.471z"/></g></g></svg>