<svg height="483pt" viewBox="-2 0 483 483.47024" width="483pt" xmlns="http://www.w3.org/2000/svg"><path d="m344.25 131.46875c-9.785156-.011719-18.585938-5.960938-22.238281-15.039062-9.378907 9.0625-12.316407 22.910156-7.425781 35.003906 4.886718 12.089844 16.625 20.003906 29.664062 20.003906 13.042969 0 24.78125-7.914062 29.667969-20.003906 4.890625-12.09375 1.949219-25.941406-7.425781-35.003906-3.65625 9.078124-12.453126 15.027343-22.242188 15.039062zm0 0" fill="#ab2300"/><path d="m322.011719 116.429688c3.671875 9.054687 12.46875 14.976562 22.238281 14.976562 9.773438 0 18.570312-5.921875 22.242188-14.976562-12.421876-11.949219-32.0625-11.949219-44.480469 0zm0 0" fill="#cd2a00"/><path d="m366.332031 242.910156c-5.300781-8.210937-5.097656-18.8125.515625-26.808594 5.613282-8 15.515625-11.796874 25.035156-9.601562-2.03125-12.882812-11.679687-23.242188-24.382812-26.1875-12.707031-2.941406-25.925781 2.117188-33.417969 12.792969-7.492187 10.675781-7.757812 24.828125-.667969 35.773437 7.089844 10.949219 20.109376 16.5 32.917969 14.03125zm0 0" fill="#ab2300"/><path d="m366.804688 216.0625c-5.617188 8.015625-5.804688 18.636719-.472657 26.847656 16.914063-3.300781 28.199219-19.378906 25.550781-36.410156-9.527343-2.234375-19.457031 1.550781-25.078124 9.5625zm0 0" fill="#cd2a00"/><path d="m286.332031 282.910156c-5.300781-8.210937-5.097656-18.8125.515625-26.808594 5.613282-8 15.515625-11.796874 25.035156-9.601562-2.03125-12.882812-11.679687-23.242188-24.382812-26.1875-12.707031-2.941406-25.925781 2.117188-33.417969 12.792969-7.492187 10.675781-7.757812 24.828125-.667969 35.773437 7.089844 10.949219 20.109376 16.5 32.917969 14.03125zm0 0" fill="#ab2300"/><path d="m286.804688 256.0625c-5.617188 8.015625-5.804688 18.636719-.472657 26.847656 16.914063-3.300781 28.199219-19.378906 25.550781-36.410156-9.527343-2.234375-19.457031 1.550781-25.078124 9.5625zm0 0" fill="#cd2a00"/><path d="m214.332031 330.910156c-5.300781-8.210937-5.097656-18.8125.515625-26.808594 5.613282-8 15.515625-11.796874 25.035156-9.601562-2.03125-12.882812-11.679687-23.242188-24.382812-26.1875-12.707031-2.941406-25.925781 2.117188-33.417969 12.792969-7.492187 10.675781-7.757812 24.828125-.667969 35.773437 7.089844 10.949219 20.109376 16.5 32.917969 14.03125zm0 0" fill="#cca400"/><path d="m214.804688 304.0625c-5.617188 8.015625-5.804688 18.636719-.472657 26.847656 16.914063-3.300781 28.199219-19.378906 25.550781-36.410156-9.527343-2.234375-19.457031 1.550781-25.078124 9.5625zm0 0" fill="#ffcd00"/><path d="m118.058594 337.070312c-.230469.335938-.367188.703126-.582032 1.039063 1.878907-2.242187 3.796876-4.433594 5.71875-6.640625-1.929687 1.652344-3.65625 3.535156-5.136718 5.601562zm0 0" fill="#898890"/><path d="m125.851562 381.660156c7.105469 4.992188 15.933594 6.882813 24.464844 5.25-5.300781-8.210937-5.097656-18.8125.515625-26.808594 5.613281-8 15.515625-11.796874 25.035157-9.601562-1.808594-11.515625-9.742188-21.132812-20.707032-25.09375s-23.214844-1.636719-31.964844 6.0625c-1.921874 2.207031-3.839843 4.398438-5.71875 6.640625-9.390624 14.402344-5.691406 33.660156 8.375 43.550781zm0 0" fill="#4e901e"/><path d="m150.804688 360.0625c-5.617188 8.015625-5.804688 18.636719-.472657 26.847656 16.914063-3.300781 28.199219-19.378906 25.550781-36.410156-9.527343-2.234375-19.457031 1.550781-25.078124 9.5625zm0 0" fill="#5eac24"/><path d="m170.363281 222.054688c-6.628906 7.195312-16.964843 9.636718-26.113281 6.167968.332031 13.035156 8.535156 24.566406 20.746094 29.148438 12.207031 4.585937 25.976562 1.300781 34.800781-8.300782 8.828125-9.597656 10.945313-23.59375 5.355469-35.375s-17.769532-18.992187-30.789063-18.226562c4.234375 8.84375 2.648438 19.378906-4 26.585938zm0 0" fill="#ab2300"/><path d="m170.363281 222.054688c6.636719-7.203126 8.21875-17.71875 4-26.554688-17.191406 1.058594-30.484375 15.5-30.113281 32.722656 9.148438 3.46875 19.484375 1.027344 26.113281-6.167968zm0 0" fill="#cd2a00"/><path d="m98.363281 294.054688c-6.628906 7.195312-16.964843 9.636718-26.113281 6.167968.332031 13.035156 8.535156 24.566406 20.746094 29.148438 12.207031 4.585937 25.976562 1.300781 34.800781-8.300782 8.828125-9.597656 10.945313-23.59375 5.355469-35.375s-17.769532-18.992187-30.789063-18.226562c4.234375 8.84375 2.648438 19.378906-4 26.585938zm0 0" fill="#cca400"/><path d="m98.363281 294.054688c6.636719-7.203126 8.21875-17.71875 4-26.554688-17.191406 1.058594-30.484375 15.5-30.113281 32.722656 9.148438 3.46875 19.484375 1.027344 26.113281-6.167968zm0 0" fill="#ffd422"/><path d="m63.796875 393.140625c8.875-9.59375 11.023437-23.621094 5.425781-35.433594s-17.8125-19.03125-30.859375-18.238281c4.1875 8.835938 2.597657 19.324219-4.019531 26.523438-6.617188 7.195312-16.9375 9.660156-26.09375 6.230468.296875 13.054688 8.496094 24.617188 20.71875 29.21875 12.21875 4.601563 26.007812 1.316406 34.84375-8.300781zm0 0" fill="#4e901e"/><path d="m34.363281 366.054688c6.648438-7.207032 8.234375-17.742188 4-26.585938-17.203125 1.058594-30.5 15.519531-30.113281 32.753906 9.148438 3.46875 19.484375 1.027344 26.113281-6.167968zm0 0" fill="#5eac24"/><path d="m267.964844 149.660156c.082031 9.777344-5.769532 18.625-14.800782 22.371094-9.027343 3.75-19.425781 1.644531-26.289062-5.3125-5.183594 11.964844-2.585938 25.878906 6.5625 35.171875 9.152344 9.289063 23.027344 12.101563 35.070312 7.101563 12.042969-5 19.847657-16.808594 19.730469-29.851563-.121093-13.039063-8.140625-24.703125-20.273437-29.480469zm0 0" fill="#ab2300"/><path d="m253.1875 172.078125c9.027344-3.757813 14.875-12.621094 14.777344-22.402344-16.054688-6.261719-34.191406 1.265625-41.089844 17.058594 6.859375 6.976563 17.273438 9.09375 26.3125 5.34375zm0 0" fill="#cd2a00"/><g fill="#4e901e"><path d="m40.25 443.46875c0 17.671875 39.402344 32 88 32 48.601562 0 104-32 104-32s-55.398438-32-104-32c-48.597656 0-88 14.328125-88 32zm0 0"/><path d="m440.324219 134.78125-48.207031-126.800781s-20.753907 40.710937-6.785157 75.578125c13.96875 34.863281 42.6875 56.152344 54.992188 51.222656zm0 0"/><path d="m444.738281 59.757812c-13.957031-34.863281-52.621093-51.777343-52.621093-51.777343l48.207031 126.800781c12.304687-4.914062 18.382812-40.160156 4.414062-75.023438zm0 0"/></g><path d="m479.601562 120.316406c-1.738281-4.058594-6.441406-5.941406-10.503906-4.199218l-10.613281 4.550781c4.347656-21.445313 2.148437-43.707031-6.3125-63.886719-14.914063-37.214844-54.578125-55.128906-56.800781-56.089844h-.0625c-.492188-.160156-1-.273437-1.511719-.335937-1.457031-.53125-3.066406-.464844-4.472656.1875h-.066407c-.207031.117187-.410156.242187-.605468.382812-.699219.304688-1.351563.714844-1.929688 1.214844-.328125.351563-.628906.730469-.886718 1.136719-.320313.34375-.609376.710937-.863282 1.105468-.914062 1.796876-22.226562 44.382813-7.082031 82.183594 6.582031 16.695313 16.980469 31.617188 30.359375 43.574219 3.289062 2.832031 6.832031 5.355469 10.585938 7.535156l-37.265626 16c6.714844-17.496093.359376-37.308593-15.277343-47.640625-15.636719-10.332031-36.355469-8.40625-49.816407 4.632813h-.042968c-9.652344 9.335937-13.976563 22.890625-11.511719 36.089843 2.460937 13.203126 11.382813 24.285157 23.753906 29.511719l-14.984375 6.398438c-6.566406 2.816406-13.054687 5.808593-19.511718 8.890625 6.605468-20.046875-3.640626-41.753906-23.3125-49.402344-20.050782-7.832031-42.707032 1.578125-51.3125 21.3125-4.253907 9.847656-4.375 20.988281-.34375 30.929688 4.03125 9.941406 11.882812 17.847656 21.792968 21.949218 1.527344.570313 3.085938 1.042969 4.671875 1.425782-10.578125 6.398437-20.921875 13.175781-31.039062 20.328124 4.175781-15.097656-.863281-31.242187-12.886719-41.285156-12.023438-10.039062-28.808594-12.121094-42.917969-5.320312-14.113281 6.800781-22.945312 21.222656-22.582031 36.886718v.070313c.535156 21.707031 18.289062 39.023437 40 39.015625.210938 0 .410156-.054688.609375-.0625-11.296875 9.546875-22.199219 19.539062-32.710937 29.976562-1.554688-21.5-19.859376-37.902343-41.398438-37.09375-21.539062.808594-38.5625 18.539063-38.5 40.09375v.070313c.535156 21.707031 18.289062 39.023437 40 39.015625.664062 0 1.320312-.167969 1.992188-.199219-1.488282 1.824219-3.007813 3.617188-4.472657 5.457031l-21.6875 27.300782c.285157-14.488282-7.304687-28-19.828125-35.292969-12.527344-7.289063-28.023437-7.222656-40.484375.179687-12.460937 7.402344-19.929687 20.976563-19.519531 35.46875v.070313c.535156 21.707031 18.289062 39.023437 40 39.015625 3.242188-.042969 6.464844-.480469 9.601562-1.296875l-47.871093 60.328125c-2.746094 3.464844-2.160157 8.496094 1.304687 11.242188 3.460938 2.742187 8.496094 2.160156 11.238282-1.304688l20.800781-26.242188c11.214843 19.242188 52.230469 29.273438 92.925781 29.273438 50.167969 0 105.664062-31.71875 108-33.070312 2.476562-1.429688 4-4.070313 4-6.929688s-1.523438-5.5-4-6.925781c-2.335938-1.355469-57.832031-33.074219-108-33.074219-19.890625-.207031-39.710938 2.417969-58.863281 7.792969l36.320312-45.792969c4.421875 17.652344 20.296875 30.023438 38.496094 30 2.050781-.042969 4.097656-.234375 6.121094-.574219.519531 0 1.035156-.050781 1.542969-.152343 21.113281-4.136719 35.203124-24.199219 31.921874-45.464844v-.046875c-2.753906-17.945313-17.367187-31.710938-35.441406-33.386719 6.558594-6.773438 13.292969-13.371094 20.199219-19.789062-1.003906 11.136718 2.722656 22.183593 10.261719 30.441406 7.542968 8.257812 18.210937 12.964844 29.394531 12.972656 2.050781-.042969 4.097656-.234375 6.121094-.574219.519531 0 1.035156-.050781 1.542969-.152343 21.113281-4.136719 35.203124-24.199219 31.921874-45.464844v-.046875c-2.773437-18.046875-17.53125-31.855469-35.722656-33.425781 9.914063-7.402344 20.074219-14.449219 30.472656-21.144532-4.183593 12.171875-2.230468 25.617188 5.246094 36.097656 7.472656 10.476563 19.546875 16.703126 32.417969 16.710938 2.050781-.042969 4.097656-.234375 6.121094-.574219.519531 0 1.035156-.050781 1.542969-.152343 21.113281-4.136719 35.203124-24.199219 31.921874-45.464844v-.046875c-2.589843-16.488281-15.175781-29.621094-31.539062-32.90625 10.402344-5.304688 20.96875-10.269531 31.707031-14.894531l3.4375-1.472657c-5.191406 12.339844-3.863281 26.460938 3.535157 37.617188 7.394531 11.15625 19.886718 17.875 33.273437 17.894531 2.050781-.042969 4.097656-.234375 6.121094-.574219.519531 0 1.035156-.050781 1.542969-.152343 21.113281-4.136719 35.203124-24.199219 31.921874-45.464844v-.046875c-2.113281-14.273438-11.914062-26.21875-25.496093-31.074219l101.109375-43.335938c4.0625-1.742187 5.941406-6.441406 4.199218-10.503906zm-146.085937-2.207031c1.308594-.660156 2.675781-1.195313 4.085937-1.601563.328126-.09375.65625-.214843.992188-.292968 3.726562-.867188 7.597656-.867188 11.320312 0 .328126.078125.648438.191406.96875.285156 1.425782.402344 2.8125.9375 4.136719 1.601562.265625.128907.527344.261719.800781.40625-6.457031 6.195313-16.648437 6.195313-23.105468 0zm-13.265625 21.359375c.007812-3.09375.609375-6.160156 1.777344-9.023438 12.371094 12.027344 32.066406 12.027344 44.441406 0 3.667969 8.980469 1.574219 19.285157-5.3125 26.117188s-17.207031 8.847656-26.160156 5.105469c-8.949219-3.738281-14.765625-12.5-14.746094-22.199219zm-67.917969 16.375c.589844-.09375 1.191407-.117188 1.785157-.167969 1.296874-.125 2.601562-.144531 3.902343-.054687l.878907.078125c-1.578126 4.066406-4.75 7.308593-8.777344 8.980469-4.027344 1.671874-8.5625 1.628906-12.558594-.121094.199219-.257813.417969-.503906.632812-.753906.875-.988282 1.828126-1.90625 2.855469-2.734376.417969-.34375.800781-.714843 1.265625-1.023437 2.941406-2.21875 6.394532-3.660156 10.039063-4.1875zm-18.25 32.800781c-1.179687-2.847656-1.804687-5.898437-1.832031-8.984375 3.707031 1.488282 7.664062 2.261719 11.65625 2.28125 4.238281 0 8.433594-.839844 12.34375-2.472656 7.664062-3.15625 13.789062-9.183594 17.066406-16.800781 2.175782 2.195312 3.910156 4.789062 5.101563 7.640625 5.082031 12.242187-.722657 26.289062-12.964844 31.367187-12.246094 5.082031-26.289063-.722656-31.371094-12.964843zm-80.796875 32.160157c.359375-1.261719.828125-2.488282 1.398438-3.671876.238281-.496093.457031-1 .726562-1.472656 1.746094-3.242187 4.28125-5.992187 7.371094-8 .445312-.304687.917969-.550781 1.382812-.800781 1.160157-.691406 2.382813-1.277344 3.648438-1.75.277344-.113281.558594-.214844.847656-.3125.269532 4.34375-1.246094 8.609375-4.1875 11.816406-2.945312 3.203125-7.070312 5.070313-11.421875 5.167969.054688-.320312.144531-.632812.242188-.953125zm6.703125 24.289062c-2.296875-2.113281-4.15625-4.652344-5.472656-7.480469 17.25-.871093 30.640625-15.367187 30.144531-32.632812 10.734375 3.976562 17.167969 14.980469 15.363282 26.285156-1.804688 11.308594-11.339844 19.765625-22.78125 20.203125-6.355469.207031-12.542969-2.074219-17.246094-6.351562zm-142.695312 119.734375c.359375-1.261719.828125-2.488281 1.398437-3.671875.238282-.496094.457032-1 .726563-1.472656 1.746093-3.242188 4.28125-5.992188 7.371093-8 .445313-.300782.917969-.550782 1.382813-.796875 1.160156-.695313 2.382813-1.28125 3.648437-1.753907.277344-.113281.558594-.214843.847657-.3125.261719 4.34375-1.253907 8.601563-4.199219 11.800782-2.949219 3.199218-7.070312 5.0625-11.417969 5.160156.054688-.320312.144531-.632812.242188-.953125zm6.703125 24.289063c-2.296875-2.113282-4.15625-4.652344-5.472656-7.480469 17.25-.871094 30.640624-15.367188 30.144531-32.632813 10.703125 4 17.105469 14.988282 15.304687 26.273438-1.804687 11.28125-11.3125 19.730468-22.730468 20.191406-6.355469.195312-12.539063-2.082031-17.246094-6.351562zm30.335937 62.351562h142.511719c-21.6875 9.503906-44.9375 14.929688-68.59375 16-35.742188 0-62.511719-8-73.917969-16zm142.472657-16h-142.472657c11.40625-8 38.175781-16 73.917969-16 23.640625 1.074219 46.878906 6.5 68.554688 16zm-115.511719-142.640625c.359375-1.261719.828125-2.488281 1.398437-3.671875.238282-.496094.457032-1 .726563-1.472656 1.746093-3.242188 4.28125-5.992188 7.371093-8 .445313-.300782.917969-.550782 1.382813-.796875 1.160156-.695313 2.382813-1.28125 3.648437-1.753907.277344-.113281.558594-.214843.847657-.3125.261719 4.34375-1.253907 8.601563-4.199219 11.800782-2.949219 3.199218-7.070312 5.0625-11.417969 5.160156.054688-.320312.144531-.632812.242188-.953125zm6.703125 24.289063c-2.296875-2.113282-4.15625-4.652344-5.472656-7.480469 17.25-.871094 30.640624-15.367188 30.144531-32.632813 10.703125 4 17.105469 14.988282 15.304687 26.273438-1.804687 11.28125-11.3125 19.730468-22.730468 20.191406-6.355469.214844-12.546876-2.0625-17.246094-6.351562zm72.199218 56.207031c-.390624.351562-.800781.664062-1.238281.984375-1.0625.835937-2.195312 1.574218-3.386719 2.214844l-.800781.425781c-.839843-4.277344.097657-8.710938 2.601563-12.28125 2.503906-3.566407 6.355468-5.960938 10.664062-6.621094 0 .316406-.078125.636719-.128906.957031-.199219 1.3125-.503906 2.605469-.917969 3.863282-.167969.515624-.3125 1.035156-.511719 1.539062-1.296874 3.457031-3.453124 6.527344-6.265624 8.917969zm-20.089843-41.496094c6.273437-1.125 12.734375.316406 17.929687 4 2.542969 1.785156 4.714844 4.039063 6.398438 6.648437-16.949219 3.210938-28.265625 19.328126-25.535156 36.359376-9.40625-2.121094-16.613282-9.695313-18.261719-19.199219-1-5.800781.183593-11.765625 3.328125-16.742188 1.597656-1.921875 3.285156-3.800781 4.925781-5.707031 3.199219-2.746094 7.070313-4.597656 11.214844-5.359375zm84.089843-14.503906c-.390624.351562-.800781.664062-1.238281.984375-1.0625.835937-2.195312 1.574218-3.386719 2.214844l-.800781.425781c-.839843-4.277344.097657-8.710938 2.601563-12.28125 2.503906-3.566407 6.355468-5.960938 10.664062-6.621094 0 .316406-.078125.636719-.128906.957031-.199219 1.3125-.503906 2.605469-.917969 3.863282-.167969.515624-.3125 1.035156-.511719 1.539062-1.296874 3.457031-3.453124 6.527344-6.265624 8.917969zm4.199219-30.863281c-16.945312 3.222656-28.253906 19.335937-25.527343 36.367187-10.5625-2.40625-18.203126-11.59375-18.648438-22.417969-.441406-10.824218 6.421875-20.605468 16.753906-23.867187 10.332032-3.261719 21.570313.800781 27.421875 9.917969zm67.800781-17.136719c-.390624.351562-.800781.664062-1.238281.984375-1.0625.835937-2.195312 1.574218-3.386719 2.214844l-.800781.425781c-.839843-4.277344.097657-8.710938 2.601563-12.28125 2.503906-3.566407 6.355468-5.960938 10.664062-6.621094 0 .316406-.078125.636719-.128906.957031-.199219 1.3125-.503906 2.605469-.917969 3.863282-.167969.515624-.3125 1.035156-.511719 1.539062-1.296874 3.457031-3.453124 6.527344-6.265624 8.917969zm4.207032-30.855469c-16.949219 3.210938-28.265625 19.328125-25.535156 36.359375-10.5625-2.410156-18.203126-11.597656-18.644532-22.421875-.4375-10.828125 6.429688-20.605469 16.761719-23.863281 10.332031-3.261719 21.566406.808593 27.417969 9.925781zm75.792968-9.144531c-.390624.351562-.800781.664062-1.238281.984375-1.0625.835937-2.195312 1.574218-3.386719 2.214844l-.800781.425781c-.839843-4.277344.097657-8.710938 2.601563-12.28125 2.503906-3.566407 6.355468-5.960938 10.664062-6.621094 0 .316406-.078125.636719-.128906.957031-.199219 1.3125-.503906 2.605469-.917969 3.863282-.167969.515624-.3125 1.035156-.511719 1.539062-1.296874 3.457031-3.453124 6.527344-6.265624 8.917969zm4.207032-30.855469c-16.949219 3.210938-28.265625 19.328125-25.535156 36.359375-7.773438-1.792969-14.148438-7.332031-17.011719-14.78125-2.859375-7.449219-1.828125-15.832031 2.746093-22.371094 4.59375-6.527343 12.132813-10.347656 20.113282-10.1875 7.984375.160157 15.363281 4.28125 19.6875 10.988281zm56.914062-135.734375c7.578125 17.476563 9.421875 36.902344 5.269532 55.496094l-34.742188-91.394531c12.914062 9.054687 23.105469 21.46875 29.472656 35.898437zm-44.5625 17.847656c-5.425781-16.113281-5.601562-33.535156-.503906-49.753906l35.648438 93.777344c-3.285157-1.859375-6.371094-4.058594-9.199219-6.558594-11.414063-10.328125-20.292969-23.148437-25.945313-37.464844zm0 0" fill="#231f20"/></svg>