<?xml version="1.0" encoding="iso-8859-1"?>
<!-- Generator: Adobe Illustrator 19.0.0, SVG Export Plug-In . SVG Version: 6.00 Build 0)  -->
<svg version="1.1" id="Capa_1" xmlns="http://www.w3.org/2000/svg" xmlns:xlink="http://www.w3.org/1999/xlink" x="0px" y="0px"
	 viewBox="0 0 512 512" style="enable-background:new 0 0 512 512;" xml:space="preserve">
<circle style="fill:#F0C419;" cx="256" cy="256" r="256"/>
<circle style="fill:#D5AA18;" cx="256" cy="256" r="211.862"/>
<g>
	<path style="fill:#FFD34E;" d="M414.897,317.802c-0.98,0-1.969-0.168-2.94-0.512c-4.599-1.624-7.009-6.665-5.385-11.264
		c5.526-15.625,8.324-32.459,8.324-50.026s-2.798-34.401-8.324-50.026c-1.624-4.599,0.786-9.64,5.385-11.264
		c4.599-1.624,9.64,0.786,11.264,5.385c6.188,17.514,9.331,36.326,9.331,55.905s-3.143,38.391-9.331,55.905
		C421.941,315.533,418.534,317.802,414.897,317.802z"/>
	<path style="fill:#FFD34E;" d="M370.759,300.138c-0.98,0-1.969-0.168-2.94-0.512c-4.599-1.624-7.009-6.665-5.385-11.264
		l1.501-4.175c3.354-9.278,6.824-18.873,6.824-28.186s-3.469-18.909-6.824-28.195l-1.501-4.175
		c-1.624-4.599,0.786-9.64,5.385-11.264c4.59-1.633,9.64,0.786,11.264,5.385l1.457,4.052c3.69,10.222,7.874,21.795,7.874,34.198
		s-4.184,23.976-7.874,34.198l-1.457,4.052C377.803,297.878,374.396,300.138,370.759,300.138z"/>
	<path style="fill:#FFD34E;" d="M97.103,317.802c-3.637,0-7.044-2.269-8.324-5.888c-6.188-17.523-9.331-36.334-9.331-55.914
		s3.143-38.391,9.331-55.905c1.624-4.599,6.665-7.009,11.264-5.385c4.599,1.624,7.009,6.665,5.385,11.264
		c-5.526,15.625-8.324,32.459-8.324,50.026s2.798,34.401,8.324,50.026c1.624,4.599-0.786,9.64-5.385,11.264
		C99.072,317.634,98.083,317.802,97.103,317.802z"/>
	<path style="fill:#FFD34E;" d="M141.241,300.138c-3.637,0-7.044-2.269-8.324-5.888l-1.457-4.052
		c-3.69-10.222-7.874-21.795-7.874-34.198s4.184-23.976,7.874-34.198l1.457-4.052c1.624-4.599,6.665-7.009,11.264-5.385
		c4.599,1.624,7.009,6.665,5.385,11.264l-1.501,4.175c-3.354,9.287-6.824,18.882-6.824,28.195s3.469,18.909,6.824,28.195
		l1.501,4.175c1.624,4.599-0.786,9.64-5.385,11.264C143.21,299.979,142.221,300.138,141.241,300.138z"/>
	<path style="fill:#FFD34E;" d="M273.655,264.828h-61.793c-4.873,0-8.828-3.955-8.828-8.828v-88.276
		c0-4.873,3.955-8.828,8.828-8.828h61.793c29.202,0,52.966,23.755,52.966,52.966S302.857,264.828,273.655,264.828z M220.69,247.172
		h52.966c19.474,0,35.31-15.837,35.31-35.31s-15.837-35.31-35.31-35.31H220.69V247.172z"/>
	<path style="fill:#FFD34E;" d="M273.655,353.103h-61.793c-4.873,0-8.828-3.955-8.828-8.828V256c0-4.873,3.955-8.828,8.828-8.828
		h61.793c29.202,0,52.966,23.755,52.966,52.966C326.621,329.348,302.857,353.103,273.655,353.103z M220.69,335.448h52.966
		c19.474,0,35.31-15.837,35.31-35.31s-15.837-35.31-35.31-35.31H220.69V335.448z"/>
	<path style="fill:#FFD34E;" d="M211.862,176.552h-35.31c-4.873,0-8.828-3.955-8.828-8.828s3.955-8.828,8.828-8.828h35.31
		c4.873,0,8.828,3.955,8.828,8.828S216.735,176.552,211.862,176.552z"/>
	<path style="fill:#FFD34E;" d="M211.862,176.552c-4.873,0-8.828-3.955-8.828-8.828v-35.31c0-4.873,3.955-8.828,8.828-8.828
		c4.873,0,8.828,3.955,8.828,8.828v35.31C220.69,172.597,216.735,176.552,211.862,176.552z"/>
	<path style="fill:#FFD34E;" d="M264.828,176.552c-4.873,0-8.828-3.955-8.828-8.828v-35.31c0-4.873,3.955-8.828,8.828-8.828
		s8.828,3.955,8.828,8.828v35.31C273.655,172.597,269.7,176.552,264.828,176.552z"/>
	<path style="fill:#FFD34E;" d="M211.862,388.414c-4.873,0-8.828-3.955-8.828-8.828v-35.31c0-4.873,3.955-8.828,8.828-8.828
		c4.873,0,8.828,3.955,8.828,8.828v35.31C220.69,384.459,216.735,388.414,211.862,388.414z"/>
	<path style="fill:#FFD34E;" d="M264.828,388.414c-4.873,0-8.828-3.955-8.828-8.828v-35.31c0-4.873,3.955-8.828,8.828-8.828
		s8.828,3.955,8.828,8.828v35.31C273.655,384.459,269.7,388.414,264.828,388.414z"/>
	<path style="fill:#FFD34E;" d="M211.862,353.103h-35.31c-4.873,0-8.828-3.955-8.828-8.828c0-4.873,3.955-8.828,8.828-8.828h35.31
		c4.873,0,8.828,3.955,8.828,8.828C220.69,349.149,216.735,353.103,211.862,353.103z"/>
</g>
<g>
</g>
<g>
</g>
<g>
</g>
<g>
</g>
<g>
</g>
<g>
</g>
<g>
</g>
<g>
</g>
<g>
</g>
<g>
</g>
<g>
</g>
<g>
</g>
<g>
</g>
<g>
</g>
<g>
</g>
</svg>
