<?xml version="1.0" encoding="iso-8859-1"?>
<!-- Generator: Adobe Illustrator 17.1.0, SVG Export Plug-In . SVG Version: 6.00 Build 0)  -->
<!DOCTYPE svg PUBLIC "-//W3C//DTD SVG 1.1//EN" "http://www.w3.org/Graphics/SVG/1.1/DTD/svg11.dtd">
<svg version="1.1" id="Capa_1" xmlns="http://www.w3.org/2000/svg" xmlns:xlink="http://www.w3.org/1999/xlink" x="0px" y="0px"
	 viewBox="0 0 294.656 294.656" style="enable-background:new 0 0 294.656 294.656;" xml:space="preserve">
<g>
	<path d="M249.802,139.271c-3.992,0.463-7.983,0.691-11.946,0.691c-19.499,0-38.43-5.539-54.761-15.913l-12.527,50.033
		c-0.366,1.462-0.881,2.845-1.501,4.158c31.837,24.288,53.433,59.203,60.913,98.616c1.544,8.139-3.802,15.989-11.94,17.534
		c-0.945,0.179-1.886,0.266-2.813,0.266c-7.063,0-13.355-5.012-14.721-12.206c-6.169-32.505-24.12-61.256-50.579-81.075
		l-0.112,0.148C125.622,233.31,87.453,252.2,47.538,252.2c-0.363,0-0.723-0.001-1.087-0.005c-8.284-0.07-14.941-7.082-14.87-15.366
		c0.07-8.24,6.772-15.109,14.996-15.109c0.044,0,0.088,0,0.132,0c0.277,0,0.557,0.241,0.833,0.241
		c30.599,0,59.854-14.36,78.4-38.728l3.035-3.928c-2.602-4.782-3.489-10.485-2.062-16.183l12.872-51.397
		c-18.823,7.15-35.679,19.254-48.404,34.932c-2.965,3.652-7.292,5.551-11.655,5.551c-3.321,0-6.664-1.096-9.444-3.352
		c-6.433-5.221-7.414-14.667-2.193-21.099c19.785-24.375,47.48-41.892,77.983-49.325l15.915-3.878
		c0.063-0.016,0.127-0.022,0.19-0.036c0.285-0.065,0.571-0.116,0.859-0.164c0.218-0.037,0.436-0.077,0.653-0.105
		c0.229-0.028,0.459-0.043,0.689-0.061c0.273-0.022,0.545-0.045,0.816-0.052c0.173-0.004,0.346,0.005,0.519,0.007
		c0.319,0.003,0.637,0.007,0.953,0.03c0.146,0.011,0.292,0.034,0.438,0.049c0.333,0.035,0.665,0.07,0.993,0.127
		c0.168,0.029,0.333,0.072,0.499,0.106c0.298,0.062,0.597,0.122,0.89,0.202c0.218,0.059,0.432,0.136,0.648,0.206
		c0.236,0.076,0.474,0.147,0.706,0.234c0.25,0.095,0.495,0.208,0.741,0.316c0.193,0.085,0.389,0.164,0.578,0.257
		c0.241,0.119,0.475,0.255,0.711,0.388c0.191,0.107,0.385,0.21,0.572,0.326c0.203,0.126,0.399,0.267,0.597,0.404
		c0.215,0.148,0.43,0.294,0.637,0.453c0.159,0.122,0.312,0.255,0.467,0.385c0.236,0.197,0.469,0.396,0.693,0.607
		c0.045,0.042,0.094,0.078,0.138,0.121l11.515,11.154c15.695,15.202,37.141,22.481,58.854,19.96
		c8.239-0.95,15.674,4.943,16.629,13.172C263.928,130.872,258.032,138.316,249.802,139.271z M174.234,65.467
		c18.078,0,32.734-14.655,32.734-32.734S192.312,0,174.234,0S141.5,14.655,141.5,32.734S156.156,65.467,174.234,65.467z"/>
</g>
<g>
</g>
<g>
</g>
<g>
</g>
<g>
</g>
<g>
</g>
<g>
</g>
<g>
</g>
<g>
</g>
<g>
</g>
<g>
</g>
<g>
</g>
<g>
</g>
<g>
</g>
<g>
</g>
<g>
</g>
</svg>
