<svg id="Capa_1" enable-background="new 0 0 512 512" height="512" viewBox="0 0 512 512" width="512" xmlns="http://www.w3.org/2000/svg"><path d="m439.187 482.206c-16.256-49.909-53.207-45.895-74.778-72.642-22.991-28.509 23.451-48.281 37.705-134.267s-58.268-165.198-131.642-206.47c0 0 10.014 57.902-44.615 96.301-36.117 25.387-76.016 31.473-98.914 32.683 23.419 44.835 63.699 77.217 98.66 88.583 69.494 22.592 96.042 86.844 96.961 107.996.92 21.152-13.335 22.531-58.397 48.281-32.662 18.664-33.678 46.749-31.764 60.793.541 3.971 5.152 5.892 8.321 3.44 14.559-11.265 51.517-37.197 87.358-40.781 35.326-3.533 83.679 14.104 104.193 22.467 4.079 1.661 8.276-2.196 6.912-6.384z" fill="#ffaa5c"/><path d="m322.565 394.39c.191 4.389-.284 7.92-1.54 11.001 11.214-6.992 15.295-12.648 14.79-24.254-.919-21.152-27.467-85.404-96.961-107.996-67.069-21.804-153.724-120.933-103.291-237.012-4.674.255-7.252.597-7.252.597-62.746 121.466 27.799 227.076 97.293 249.668s96.041 86.844 96.961 107.996z" fill="#ff9838"/><path d="m128.31 36.726c-31.18 60.359-24.499 116.798-1.367 161.085 22.898-1.211 62.798-7.297 98.914-32.683 54.629-38.399 44.615-96.301 44.615-96.301-73.374-41.273-142.162-32.101-142.162-32.101z" fill="#ffeca1"/><path d="m135.562 36.129c-4.674.255-7.252.597-7.252.597-31.18 60.359-24.499 116.798-1.367 161.086 5.624-.298 12.277-.892 19.643-1.991-26.261-42.815-37.424-98.927-11.024-159.692z" fill="#ffdf85"/><path d="m242.439 293.031c-5.31-2.478-10.912-4.712-16.835-6.637-20.364-6.62-42.531-20.377-62.123-39.564.838 19.488 8.943 50.565 43.208 87.077 54.167 57.718 29.733.006 35.75-40.876z" fill="#ffe55a"/><path d="m212.354 299.647c10.688 3.475 20.357 7.938 29.076 13.075-.123-6.64.078-13.366 1.009-19.69-5.309-2.478-10.912-4.712-16.835-6.637-20.364-6.62-42.531-20.377-62.123-39.564.349 8.118 1.969 18.252 6.205 29.946 14.139 10.561 28.82 18.368 42.668 22.87z" fill="#ffd91d"/><path d="m374.675 163.389c18.488-3.155 36.745-2.459 48.03-1.461 4.417.391 7.266-4.598 4.673-8.195-81.814-113.508-156.906-84.906-156.906-84.906 39.427 22.177 78.599 55.312 104.203 94.562z" fill="#ffe55a"/><path d="m270.472 68.827c39.426 22.177 78.598 55.312 104.202 94.562 6.833-1.166 13.63-1.802 20.06-2.095-21.759-38.257-56.833-71.424-93.879-95.372-18.885-1.464-30.383 2.905-30.383 2.905z" fill="#ffd91d"/><path d="m272.537 165.363c-3.078-7.181-17.419-11.843-29.845-14.604-4.787 4.977-10.35 9.811-16.834 14.368-4.989 3.506-10.05 6.632-15.128 9.44 2.45 13.352 7.431 32.963 15.976 36.625 13.184 5.65 32.183-13.647 32.183-13.647s19.298-18.998 13.648-32.182z" fill="#ffe55a"/><path d="m239.957 197.94c-7.628-3.269-12.414-19.242-15.096-32.132-4.666 3.226-9.389 6.138-14.13 8.76 2.45 13.352 7.431 32.962 15.976 36.625 13.184 5.65 32.183-13.647 32.183-13.647s2.904-2.865 6.128-7.133c-6.736 5.091-16.986 10.988-25.061 7.527z" fill="#ffd91d"/><path d="m6.023 505.979c-8.031-8.031-8.031-21.053 0-29.083l236.425-236.423c8.028-8.028 21.043-8.028 29.072 0 8.031 8.031 8.031 21.053 0 29.083l-236.425 236.423c-8.029 8.028-21.043 8.028-29.072 0z" fill="#994e37"/><path d="m409.774 131.303 86.171-86.17 15.649-37.942c1.762-4.272-2.511-8.546-6.783-6.784l-37.943 15.649-86.16 86.159c9.426 7.939 19.158 17.533 29.066 29.088z" fill="#994e37"/><path d="m258.27 256.303-236.425 236.423c-5.64 5.64-13.736 7.301-20.84 5.017.967 3.01 2.629 5.847 5.018 8.236 8.028 8.029 21.043 8.029 29.072 0l236.425-236.423c8.031-8.031 8.031-21.053 0-29.083-2.389-2.389-5.223-4.049-8.232-5.017 2.284 7.106.623 15.206-5.018 20.847z" fill="#844131"/><path d="m482.694 31.88-85.597 85.596c4.187 4.27 8.414 8.856 12.676 13.827l86.171-86.17 15.648-37.942c1.762-4.272-2.511-8.546-6.783-6.784l-11.008 4.54z" fill="#844131"/><path d="m189.912 85.505h-9.82v-9.818c0-4.313-3.495-7.809-7.808-7.809s-7.808 3.496-7.808 7.809v9.818h-9.82c-4.313 0-7.808 3.497-7.808 7.809 0 4.313 3.495 7.81 7.808 7.81h9.82v9.818c0 4.313 3.495 7.809 7.808 7.809s7.808-3.496 7.808-7.809v-9.818h9.82c4.313 0 7.808-3.497 7.808-7.81 0-4.312-3.495-7.809-7.808-7.809z" fill="#e8834d"/></svg>