<svg id="Capa_1" enable-background="new 0 0 512 512" height="512" viewBox="0 0 512 512" width="512" xmlns="http://www.w3.org/2000/svg"><g><g><g><g><path d="m171.115 11.314h30v58.669h-30z" fill="#ffda44" transform="matrix(.687 -.727 .727 .687 28.7 147.941)"/></g><g><path d="m243.653 0h30v50.805h-30z" fill="#ffda44"/></g><g><g><path d="m258.653 0h15v50.805h-15z" fill="#ff9f22"/></g></g><g><path d="m301.856 25.649h58.669v30h-58.669z" fill="#ff9f22" transform="matrix(.727 -.687 .687 .727 62.631 238.678)"/></g></g></g><path d="m401.004 512h-211.629l76.722-329.993 104.078-31.043 56.829 68.95z" fill="#ff6c6c"/><path d="m370.175 150.964 6.295 48.106-56.148 312.93h87.012l19.67-292.086z" fill="#ff4a4a"/><path d="m362.133 89.5-96.036 92.507 160.907 37.907z" fill="#ff8e8e"/><path d="m374.931 207.646-12.798-118.146 64.871 130.414z" fill="#ff6c6c"/><path d="m327.726 512h-181.617l-61.113-248.692 46.294-62.31 76.963 19.446z" fill="#ff6c6c"/><path d="m327.726 512h-91.54l-96.93-289.106 68.997-2.45z" fill="#ff4a4a"/><path d="m84.996 263.308 123.257-42.864-94.796-73.944z" fill="#ff8e8e"/><path d="m113.457 146.5 31.41 95.987 63.386-22.043z" fill="#ff6c6c"/></g></svg>