<svg id="Capa_1" enable-background="new 0 0 512 512" height="512" viewBox="0 0 512 512" width="512" xmlns="http://www.w3.org/2000/svg"><g><path d="m256 211h-165v301h90l30-30h45 45l30 30h91v-301z" fill="#a34f3e"/><path d="m331 512h91v-301h-166v271h45z" fill="#88363f"/><path d="m309.291 22.582-38.291 19.146v-41.728h-15-15v41.728l-38.291-19.146-13.418 26.836 51.709 25.582 15 15 15-15 51.709-25.582z" fill="#88363f"/><path d="m322.709 49.418-13.418-26.836-38.291 19.146v-41.728h-15v90l15-15z" fill="#6d1d40"/><g><path d="m511.241 216.684c-2.195-8.549-10.225-24.153-42.298-42.241-23.22-13.094-54.923-25.827-87.874-38.418-43.829-16.743-110.069-42.055-110.069-61.025h-15-15c0 18.97-66.24 44.282-110.068 61.025-40.087 15.317-77.848 30.365-101.854 47.139-21.285 14.872-27.078 27.636-28.556 34.798-.731 3.545-.656 7.006-.015 10.569 2.329 12.92 8.145 42.332 33.887 68.075l10.606 10.605 11.605-10.605c7.661-7.661 14.18-16.45 19.395-26.045 5.215 9.595 11.733 18.384 19.395 26.045l10.605 10.605 10.605-10.605c7.661-7.661 14.18-16.45 19.395-26.045 5.215 9.595 11.733 18.384 19.395 26.045l10.605 10.605 10.605-10.605c7.661-7.661 14.18-16.45 19.395-26.045 5.215 9.595 11.733 18.384 19.395 26.045l10.605 10.605 10.605-10.605c7.661-7.661 14.18-16.45 19.395-26.045 5.215 9.595 11.733 18.384 19.395 26.045l10.605 10.605 10.605-10.605c7.661-7.661 14.18-16.45 19.395-26.045 5.215 9.595 11.733 18.384 19.395 26.045l10.605 10.605 10.605-10.605c7.661-7.661 14.18-16.45 19.395-26.045 5.215 9.595 12.733 18.384 20.395 26.045l10.605 10.605 10.605-10.605c7.661-7.661 14.18-16.45 19.395-26.045 5.215 9.595 11.733 18.384 19.395 26.045l10.605 10.605 10.605-10.605c26.887-26.887 30.936-53.135 33.802-67.883.782-4.023.853-8.071-.166-12.039z" fill="#ffdf8e"/><path d="m286 307.211 10.605-10.605c7.661-7.661 14.18-16.45 19.395-26.045 5.215 9.595 11.733 18.384 19.395 26.045l10.605 10.605 10.605-10.605c7.661-7.661 14.18-16.45 19.395-26.045 5.215 9.595 12.733 18.384 20.395 26.045l10.605 10.605 10.605-10.605c7.661-7.661 14.18-16.45 19.395-26.045 5.215 9.595 11.733 18.384 19.395 26.045l10.605 10.605 10.605-10.605c26.887-26.887 30.936-53.135 33.802-67.883.782-4.023.853-8.071-.167-12.039-2.195-8.549-10.225-24.153-42.298-42.241-23.22-13.094-54.923-25.827-87.874-38.418-43.828-16.743-110.068-42.055-110.068-61.025h-15v195.561c5.215 9.595 11.733 18.384 19.395 26.045z" fill="#ffc473"/></g><path d="m256 331c-41.422 0-75 33.578-75 75v106h75 75v-106c0-41.422-33.578-75-75-75z" fill="#88363f"/><path d="m331 406c0-41.422-33.578-75-75-75v181h75z" fill="#6d1d40"/></g></svg>