<?xml version="1.0" encoding="iso-8859-1"?>
<!-- Generator: Adobe Illustrator 19.0.0, SVG Export Plug-In . SVG Version: 6.00 Build 0)  -->
<svg version="1.1" id="Capa_1" xmlns="http://www.w3.org/2000/svg" xmlns:xlink="http://www.w3.org/1999/xlink" x="0px" y="0px"
	 viewBox="0 0 511.999 511.999" style="enable-background:new 0 0 511.999 511.999;" xml:space="preserve">
<path style="fill:#FEDB41;" d="M151.02,31.045c-41.392,0-74.985,33.593-74.985,74.985s33.593,74.985,74.985,74.985
	s74.985-33.593,74.985-74.985S192.412,31.045,151.02,31.045z"/>
<path style="fill:#FCBF29;" d="M226.005,106.03c0,41.392-33.593,74.985-74.985,74.985V31.045
	C192.412,31.045,226.005,64.638,226.005,106.03z"/>
<path style="fill:#C4D55F;" d="M298.591,457.859L188.814,287.193c-8.399-12.897-23.096-19.196-37.792-19.196
	c-14.696,0-29.393,6.3-37.792,19.196L2.451,457.859c-3,4.5-3.3,10.497-0.601,15.297c2.7,4.798,7.798,7.798,13.197,7.798h270.945
	c5.399,0,10.497-3,13.197-7.798C301.891,468.356,301.591,462.358,298.591,457.859z"/>
<path style="fill:#10BB67;" d="M510.148,473.156c-2.7,4.798-7.798,7.798-13.197,7.798H151.02l16.797-187.162l26.395-41.392
	l63.587,32.992l14.997-28.795l13.197-0.599l12.596-0.601l19.196,30.595l60.889-32.394l130.873,204.259
	C512.549,462.659,512.849,468.356,510.148,473.156z"/>
<path style="fill:#0B8878;" d="M510.148,473.156c-2.7,4.798-7.798,7.798-13.197,7.798H285.993V256l12.596-0.601l19.196,30.595
	l60.889-32.394l130.873,204.259C512.549,462.659,512.849,468.356,510.148,473.156z"/>
<path style="fill:#98CB51;" d="M299.191,473.156c-2.7,4.798-7.798,7.798-13.197,7.798H151.02V267.996
	c14.697,0,29.393,6.3,37.792,19.196L298.59,457.858C301.591,462.358,301.891,468.356,299.191,473.156z"/>
<path style="fill:#E5E5E5;" d="M378.676,253.6l-46.492,69.286c-2.398,4.8-7.199,7.798-12.596,8.099
	c-5.098,0.3-10.497-2.401-13.197-6.9l-20.396-30.292l-13.798,29.093c-2.398,4.8-7.199,7.798-12.596,8.099c-0.3,0-0.3,0-0.601,0
	c-5.099,0-9.897-2.7-12.897-7.199l-51.889-71.386l53.688-84.583c8.399-13.197,23.096-19.497,38.093-19.497s29.694,6.3,38.093,19.497
	L378.676,253.6z"/>
<path style="fill:#D9D9D9;" d="M378.676,253.6l-46.492,69.286c-2.398,4.8-7.199,7.798-12.596,8.099
	c-5.098,0.3-10.497-2.401-13.197-6.9l-20.396-30.292V148.321c14.997,0,29.694,6.3,38.093,19.497L378.676,253.6z"/>
<g>
</g>
<g>
</g>
<g>
</g>
<g>
</g>
<g>
</g>
<g>
</g>
<g>
</g>
<g>
</g>
<g>
</g>
<g>
</g>
<g>
</g>
<g>
</g>
<g>
</g>
<g>
</g>
<g>
</g>
</svg>
