<svg id="Capa_1" enable-background="new 0 0 512 512" height="512" viewBox="0 0 512 512" width="512" xmlns="http://www.w3.org/2000/svg"><g><g><g><path d="m94.133 202.135c-7.996 24.07-12.334 49.809-12.334 76.562 0 110.427 73.704 203.634 174.614 233.094.936.273 1.936.273 2.872 0 100.895-29.474 174.599-122.667 174.599-233.094 0-26.754-4.339-52.492-12.335-76.562z" fill="#fcc16d"/><path d="m433.603 267.155c-1.062-22.621-5.215-44.432-12.054-65.02h-327.416c-6.839 20.588-10.992 42.4-12.053 65.02z" fill="#fcb44d"/><path d="m433.878 278.693c0 110.436-73.695 203.619-174.59 233.102-.935.273-1.933.274-2.868.001-6.613-1.929-13.116-4.136-19.481-6.62 90.768-35.153 155.121-123.282 155.121-226.483 0-26.745-4.333-52.484-12.336-76.554h41.83c7.991 24.069 12.324 49.808 12.324 76.554z" fill="#fcb44d"/><g><path d="m291.393 23.89c-.842-4.122-4.873-6.782-8.985-5.929l-32.376 6.635c-3.315-7.979-7.368-15.491-12.326-21.722-2.62-3.292-7.41-3.835-10.7-1.218-3.291 2.619-3.836 7.409-1.218 10.7 20.129 25.297 23.458 79.329 23.489 79.872.231 4.05 3.588 7.179 7.595 7.179.146 0 .292-.004.439-.012 4.199-.239 7.408-3.836 7.17-8.035-.091-1.589-1.638-26.885-9.311-52.278l30.293-6.208c4.123-.841 6.782-4.872 5.93-8.984z" fill="#9d552e"/><g><path d="m436.115 240.533h-360.23c-6.779 0-12.274-5.495-12.274-12.274v-61.537c0-41.38 33.545-74.926 74.926-74.926h234.927c41.38 0 74.926 33.545 74.926 74.926v61.537c-.001 6.779-5.496 12.274-12.275 12.274z" fill="#c76d3d"/></g><g><path d="m448.386 166.727v61.53c0 6.775-5.487 12.274-12.274 12.274h-39.216c6.788 0 12.274-5.499 12.274-12.274v-61.53c0-41.389-33.545-74.934-74.922-74.934h39.216c41.376 0 74.922 33.546 74.922 74.934z" fill="#aa5e33"/></g></g><g><g><path d="m209.916 91.792c-34.256 4.914-61.445 32.377-65.222 67.689-.416 3.909-3.716 6.813-7.564 6.813-.264 0-.538-.02-.812-.051-4.183-.447-7.208-4.193-6.762-8.376 2.954-27.707 17.93-51.373 39.444-66.075z" fill="#aa5e33"/></g><g><path d="m375.681 166.242c-.274.03-.548.051-.812.051-3.848 0-7.148-2.904-7.564-6.813-3.777-35.311-30.966-62.775-65.221-67.689h40.916c21.514 14.701 36.489 38.367 39.444 66.075.446 4.183-2.58 7.93-6.763 8.376z" fill="#aa5e33"/></g><g><g><path d="m302.317 166.268c-4.163.286-7.668-3.02-8.133-7.167-2.526-22.509-16.469-51.202-35.596-62.904-1.589-.972-3.61-.959-5.198.014-19.223 11.777-33.204 40.713-35.615 63.269-.416 3.909-3.726 6.813-7.564 6.813-.274 0-.538-.02-.822-.051-4.173-.447-7.209-4.193-6.762-8.376 2.376-22.225 13.777-49.2 31.667-66.075h43.413c17.889 16.874 29.291 43.85 31.667 66.075.456 4.281-2.723 8.104-7.057 8.402z" fill="#aa5e33"/></g></g></g></g></g><g><g><path d="m204.721 425.864c-6.441 0-11.762-5.064-13.888-13.217-1.061-4.069 1.378-8.228 5.448-9.289 3.34-.87 6.741.618 8.44 3.429 1.697-2.811 5.093-4.299 8.438-3.429 4.069 1.06 6.509 5.218 5.449 9.288-2.124 8.152-7.444 13.218-13.887 13.218z" fill="#fcb44d"/></g></g><g><g><path d="m240.11 455.991c-6.443 0-11.763-5.066-13.887-13.218-1.06-4.07 1.38-8.228 5.449-9.288 3.345-.87 6.741.619 8.439 3.429 1.697-2.812 5.097-4.299 8.439-3.429 4.07 1.061 6.509 5.22 5.448 9.289-2.126 8.152-7.447 13.217-13.888 13.217z" fill="#fcb44d"/></g></g><g><g><path d="m362.942 298.404c-6.443 0-11.763-5.065-13.887-13.218-1.06-4.07 1.38-8.228 5.449-9.288 3.344-.871 6.741.619 8.439 3.429 1.697-2.811 5.097-4.299 8.439-3.429 4.07 1.061 6.509 5.22 5.448 9.289-2.126 8.153-7.447 13.217-13.888 13.217z" fill="#fcb44d"/></g></g><g><g><path d="m312.178 325.974c-6.443 0-11.764-5.065-13.887-13.219-1.06-4.07 1.38-8.227 5.45-9.287 3.338-.871 6.74.619 8.438 3.429 1.696-2.811 5.092-4.3 8.439-3.429 4.069 1.061 6.508 5.219 5.448 9.289-2.125 8.152-7.446 13.217-13.888 13.217z" fill="#fcb44d"/></g></g><g><g><path d="m150.176 328.863c-6.443 0-11.763-5.065-13.887-13.218-1.06-4.07 1.38-8.228 5.449-9.288 3.343-.869 6.741.619 8.438 3.429 1.697-2.811 5.093-4.299 8.438-3.429 4.069 1.06 6.509 5.218 5.449 9.288-2.124 8.152-7.444 13.218-13.887 13.218z" fill="#fcb44d"/></g></g></g></svg>