<?xml version="1.0" encoding="iso-8859-1"?>
<!-- Generator: Adobe Illustrator 19.0.0, SVG Export Plug-In . SVG Version: 6.00 Build 0)  -->
<svg version="1.1" id="Layer_1" xmlns="http://www.w3.org/2000/svg" xmlns:xlink="http://www.w3.org/1999/xlink" x="0px" y="0px"
	 viewBox="0 0 512.001 512.001" style="enable-background:new 0 0 512.001 512.001;" xml:space="preserve">
<path style="fill:#7C532A;" d="M318.709,501.62l-20.458-83.93c-0.916-3.759-4.285-6.405-8.154-6.405h-68.193
	c-3.869,0-7.238,2.646-8.154,6.405l-20.458,83.93c-1.267,5.203,2.803,10.381,8.154,10.381h109.109
	C315.907,512,319.976,506.822,318.709,501.62z"/>
<path style="fill:#6E4013;" d="M205.887,501.62l20.458-83.93c0.916-3.759,4.285-6.405,8.154-6.405h-12.595
	c-3.869,0-7.238,2.646-8.154,6.405l-20.458,83.93c-1.267,5.203,2.803,10.381,8.154,10.381h12.595
	C208.689,512,204.62,506.822,205.887,501.62z"/>
<path style="fill:#8B6642;" d="M315.275,430.181l-20.458-79.734c-0.953-3.712-4.298-6.307-8.13-6.307h-61.374
	c-3.831,0-7.177,2.596-8.13,6.307l-20.458,79.734c-1.341,5.227,2.737,10.479,8.13,10.479h102.29
	C312.537,440.659,316.616,435.407,315.275,430.181z"/>
<g>
	<path style="fill:#7C532A;" d="M210.096,430.181l20.458-79.734c0.953-3.712,4.298-6.307,8.13-6.307h-13.37
		c-3.831,0-7.177,2.596-8.13,6.307l-20.458,79.734c-1.341,5.227,2.737,10.479,8.13,10.479h13.37
		C212.833,440.659,208.755,435.407,210.096,430.181z"/>
	<path style="fill:#7C532A;" d="M311.804,367.005l-20.458-71.341c-1.032-3.6-4.323-6.08-8.068-6.08h-54.555
		c-3.744,0-7.035,2.48-8.068,6.08l-20.458,71.341c-1.514,5.28,2.585,10.706,8.068,10.706h95.471
		C309.22,377.712,313.319,372.286,311.804,367.005z"/>
</g>
<path style="fill:#6E4013;" d="M214.352,367.005l20.458-71.341c1.032-3.6,4.323-6.08,8.068-6.08h-14.156
	c-3.744,0-7.035,2.48-8.068,6.08l-20.458,71.341c-1.514,5.28,2.584,10.706,8.068,10.706h14.156
	C216.937,377.712,212.838,372.286,214.352,367.005z"/>
<path style="fill:#8B6642;" d="M308.394,308.254l-20.458-71.341c-1.032-3.6-4.323-6.08-8.068-6.08h-47.735
	c-3.744,0-7.035,2.48-8.068,6.08l-20.458,71.341c-1.514,5.28,2.585,10.706,8.068,10.706h88.651
	C305.81,318.961,309.909,313.534,308.394,308.254z"/>
<g>
	<path style="fill:#7C532A;" d="M218.039,308.254l20.458-71.341c1.032-3.6,4.323-6.08,8.068-6.08h-14.433
		c-3.744,0-7.035,2.48-8.068,6.08l-20.458,71.341c-1.514,5.28,2.584,10.706,8.068,10.706h14.433
		C220.623,318.961,216.525,313.534,218.039,308.254z"/>
	<path style="fill:#7C532A;" d="M307.898,252.394l-34.097-71.341c-1.394-2.917-4.34-4.774-7.573-4.774h-20.458
		c-3.232,0-6.178,1.857-7.573,4.774l-34.097,71.341c-2.618,5.477,1.513,12.012,7.573,12.012h88.651
		C306.385,264.406,310.516,257.871,307.898,252.394z"/>
</g>
<path style="fill:#6E4013;" d="M218.548,252.394l34.097-71.341c1.394-2.917,4.34-4.774,7.573-4.774h-14.445
	c-3.232,0-6.178,1.857-7.573,4.774l-34.097,71.341c-2.618,5.476,1.513,12.012,7.573,12.012h14.445
	C220.061,264.406,215.93,257.871,218.548,252.394z"/>
<path id="SVGCleanerId_0" style="fill:#8B6642;" d="M301.216,202.339l-30.687-71.341c-1.325-3.08-4.356-5.077-7.71-5.077H249.18
	c-3.353,0-6.385,1.996-7.71,5.077l-30.687,71.341c-2.344,5.448,1.789,11.709,7.71,11.709h75.013
	C299.427,214.048,303.56,207.788,301.216,202.339z"/>
<g>
	<path id="SVGCleanerId_0_1_" style="fill:#8B6642;" d="M301.216,202.339l-30.687-71.341c-1.325-3.08-4.356-5.077-7.71-5.077H249.18
		c-3.353,0-6.385,1.996-7.71,5.077l-30.687,71.341c-2.344,5.448,1.789,11.709,7.71,11.709h75.013
		C299.427,214.048,303.56,207.788,301.216,202.339z"/>
</g>
<path style="fill:#7C532A;" d="M223.095,202.339l30.687-71.341c1.325-3.08,4.356-5.077,7.71-5.077h-12.31
	c-3.353,0-6.385,1.996-7.71,5.077l-30.687,71.341c-2.344,5.448,1.789,11.709,7.71,11.709h12.31
	C224.885,214.048,220.752,207.787,223.095,202.339z"/>
<path style="fill:#8EB845;" d="M432.505,110.745c-53.299-40.771-129.832-30.578-170.602,22.721
	c-5.269,6.89-9.81,14.35-13.495,22.174c-1.459,3.097-0.891,6.771,1.437,9.282c2.326,2.511,5.944,3.355,9.146,2.137
	c39.769-15.166,83.665-8.804,117.421,17.016c33.755,25.82,51.382,66.521,47.154,108.875c-0.732,7.337,8.142,12.029,13.791,7.225
	c6.589-5.607,12.601-11.941,17.869-18.829C495.996,228.046,485.803,151.515,432.505,110.745z"/>
<g>
	<path style="fill:#B4D46A;" d="M263.593,155.64c-3.686-7.824-8.226-15.285-13.495-22.174
		c-40.771-53.299-117.303-63.493-170.602-22.721c-53.299,40.771-63.492,117.303-22.721,170.602
		c5.268,6.886,11.28,13.222,17.869,18.829c2.58,2.195,6.333,2.614,9.334,1.043c3.033-1.589,4.796-4.862,4.456-8.268
		c-4.227-42.354,13.399-83.055,47.154-108.875c33.756-25.82,77.652-32.181,117.421-17.016c3.2,1.219,6.819,0.373,9.146-2.137
		C264.484,162.41,265.052,158.737,263.593,155.64z"/>
	<path style="fill:#B4D46A;" d="M468.559,93.353c-0.764-3.835-1.732-7.683-2.882-11.435c-9.053-29.564-29.075-53.834-56.381-68.337
		c-27.307-14.503-58.627-17.505-88.191-8.453c-29.564,9.052-53.833,29.075-68.338,56.382c-14.503,27.307-17.506,58.626-8.453,88.191
		c1.151,3.758,2.502,7.489,4.015,11.088c1.311,3.119,4.364,5.14,7.736,5.14c0.061,0,0.122,0,0.183-0.002
		c3.443-0.074,6.492-2.245,7.689-5.475c13.773-37.181,43.379-65.153,81.229-76.743c37.853-11.589,78.043-4.99,110.271,18.106
		C461.499,106.155,470.009,100.65,468.559,93.353z"/>
</g>
<path style="fill:#8EB845;" d="M259.233,63.468c-14.504-27.306-38.774-47.329-68.338-56.382
	c-29.563-9.053-60.883-6.051-88.191,8.453C75.399,30.043,55.376,54.312,46.323,83.875c-1.15,3.754-2.119,7.602-2.882,11.437
	c-1.449,7.297,7.06,12.801,13.121,8.459c32.229-23.095,72.417-29.694,110.271-18.106h-0.001c37.85,11.59,67.457,39.562,81.23,76.743
	c1.197,3.23,4.246,5.401,7.689,5.475c0.062,0.001,0.122,0.002,0.183,0.002c3.372,0,6.425-2.022,7.736-5.14
	c1.513-3.6,2.864-7.33,4.015-11.088C276.738,122.094,273.736,90.774,259.233,63.468z"/>
<g>
</g>
<g>
</g>
<g>
</g>
<g>
</g>
<g>
</g>
<g>
</g>
<g>
</g>
<g>
</g>
<g>
</g>
<g>
</g>
<g>
</g>
<g>
</g>
<g>
</g>
<g>
</g>
<g>
</g>
</svg>
