<?xml version="1.0" encoding="iso-8859-1"?>
<!-- Generator: Adobe Illustrator 19.0.0, SVG Export Plug-In . SVG Version: 6.00 Build 0)  -->
<svg version="1.1" id="Capa_1" xmlns="http://www.w3.org/2000/svg" xmlns:xlink="http://www.w3.org/1999/xlink" x="0px" y="0px"
	 viewBox="0 0 512 512" style="enable-background:new 0 0 512 512;" xml:space="preserve">
<path style="fill:#7CB777;" d="M397.454,7.444c-8.717,1.746-15.358,9.242-15.542,18.13c-0.145,7.008-4.933,11.716-24.87-0.487
	c-5.008-3.065-11.14-3.756-16.671-1.787c-35.007,12.458-68.133,29.362-98.719,49.331c-10.988,7.174-16.735,20.285-14.024,33.124
	c2.653,12.559-1.645,17.266-21.36,11.258c-10.859-3.309-22.664-0.526-31.057,7.118c-30.215,27.518-56.403,57.679-77.557,88.399
	c-4.899,7.114-4.757,16.643,0.639,23.387c7.652,9.565,13.968,23.961-6.71,32.777c-4.156,1.773-7.871,2.18-11.192,1.54
	c-8.946-1.726-17.894,3.209-21.489,11.581c-18.377,42.806-25.269,83.587-17.876,116.473c5.073,22.573,20.342,43.156,42.202,48.784
	c47.184,12.144,91.755,2.505,132.922-20.855c7.341-4.166,12.179-11.788,12.381-20.227c0.317-13.239,12.352-14.024,21.391-12.73
	c7.044,1.009,14.164-1.238,19.462-5.989c22.985-20.611,44.598-44.931,64.671-71.18c6.443-8.425,6.172-19.983-0.197-28.464
	c-10.409-13.86-3.062-31.024,21.154-26.75c9.545,1.684,19.157-2.512,24.266-10.748c19.826-31.969,37.487-64.574,52.728-95.212
	c3.043-6.118,2.164-13.379-2-18.798c-10.901-14.186,3.093-19.559,13.17-21.545c5.617-1.107,10.344-4.868,12.693-10.089
	c27.005-60.025,41.81-103.554,41.81-103.554C463.386-1.526,429.826,0.959,397.454,7.444z"/>
<path style="fill:#35925D;" d="M450.715,38.263c-27.804,16.55-54.169,36.345-80.042,56.014
	c-41.576,31.607-80.662,66.676-117.571,103.593c-27.418,27.423-53.286,56.651-77.178,87.198
	c-17.08,21.838-33.685,44.122-48.903,67.308c-25.92,39.491-51.289,81.441-69.885,124.966c-3.735,8.304-7.471,16.608-11.206,24.912
	c-3.743,8.32-13.521,12.03-21.841,8.288c-8.32-3.743-12.056-13.463-8.314-21.783c0,0,4.102-9.213,11.282-25.336
	c19.484-43.756,44.265-85.736,71.039-125.383c16.693-24.719,34.881-49.006,53.826-72.313c25.229-30.948,52.401-60.459,81.325-87.98
	c39.17-37.27,80.426-72.254,125.099-102.783c27.193-18.583,55.267-36.32,84.996-50.583c3.917-1.879,8.615-0.228,10.494,3.689
	c1.763,3.673,0.42,8.032-2.983,10.111L450.715,38.263z"/>
<g>
</g>
<g>
</g>
<g>
</g>
<g>
</g>
<g>
</g>
<g>
</g>
<g>
</g>
<g>
</g>
<g>
</g>
<g>
</g>
<g>
</g>
<g>
</g>
<g>
</g>
<g>
</g>
<g>
</g>
</svg>
