<svg height="511pt" viewBox="0 0 511 511.99938" width="511pt" xmlns="http://www.w3.org/2000/svg"><path d="m418.175781 140.417969-46.097656-46.097657 21.5625-21.5625c4.105469-4.105468 10.765625-4.105468 14.871094 0l31.226562 31.230469c4.105469 4.105469 4.105469 10.761719 0 14.867188zm0 0" fill="#828282"/><path d="m439.738281 103.988281-11.152343-11.15625c4.105468 4.105469 4.105468 10.765625 0 14.871094l-21.5625 21.5625 11.152343 11.152344 21.5625-21.5625c4.109375-4.105469 4.109375-10.761719 0-14.867188zm0 0" fill="#5a5a5a"/><path d="m383.238281 190.242188 121.410157 121.410156c2.847656 2.847656 7.675781.398437 7.058593-3.578125l-4.6875-30.390625c-4.15625-26.921875-16.78125-51.820313-36.042969-71.085938l-52.050781-52.046875zm0 0" fill="#cdcdcd"/><path d="m510.121094 297.792969-100.152344-100.152344c-4.105469-4.105469-4.105469-10.761719 0-14.871094l18.589844-18.585937-9.632813-9.628906-35.6875 35.6875 121.410157 121.410156c2.847656 2.847656 7.675781.398437 7.058593-3.578125zm0 0" fill="#bebebe"/><path d="m321.519531 128.523438-121.410156-121.410157c-2.847656-2.847656-.398437-7.675781 3.578125-7.0585935l30.390625 4.6914065c26.921875 4.152344 51.820313 16.777344 71.082031 36.042968l52.046875 52.046876zm0 0" fill="#cdcdcd"/><path d="m213.96875 1.640625 100.152344 100.152344c4.105468 4.105469 10.761718 4.105469 14.867187 0l18.589844-18.589844 9.628906 9.628906-35.6875 35.691407-121.410156-121.410157c-2.847656-2.847656-.398437-7.675781 3.578125-7.0585935zm0 0" fill="#bebebe"/><path d="m320.03125 161.234375 31.230469 31.230469-180.675781 180.671875-31.226563-31.226563zm0 0" fill="#f2bb88"/><path d="m320.03125 161.238281-9.664062 9.667969 14.125 14.125c4.109374 4.105469 4.109374 10.765625 0 14.871094l-163.574219 163.574218 9.667969 9.664063 180.675781-180.675781zm0 0" fill="#e3a76f"/><path d="m351.261719 192.464844 22.710937 1.84375c3.042969.246094 6.042969-.855469 8.203125-3.015625l36.078125-36.078125c4.0625-4.066406 4.0625-10.65625 0-14.71875l-46.992187-46.992188c-4.066407-4.066406-10.65625-4.066406-14.722657 0l-35.96875 35.96875c-2.222656 2.222656-3.320312 5.324219-2.992187 8.449219l2.453125 23.316406zm0 0" fill="#e6e6e6"/><path d="m412.972656 135.214844-40.035156 40.035156c-4.316406 4.316406-10.316406 6.519531-16.402344 6.027344l-17.914062-1.453125 12.640625 12.640625 22.710937 1.839844c3.042969.25 6.042969-.851563 8.203125-3.011719l36.078125-36.078125c4.0625-4.066406 4.0625-10.65625 0-14.722656zm0 0" fill="#cdcdcd"/><path d="m35.773438 509.558594-32.835938-32.832032c-3.25-3.253906-3.25-8.527343 0-11.777343l123.839844-123.839844c3.25-3.25 8.523437-3.25 11.777344 0l32.835937 32.835937c3.25 3.253907 3.25 8.523438 0 11.777344l-123.839844 123.835938c-3.253906 3.253906-8.527343 3.253906-11.777343 0zm0 0" fill="#828282"/><path d="m166.125 368.679688-135.617188 135.617187 5.265626 5.261719c3.25 3.253906 8.523437 3.253906 11.777343 0l123.835938-123.835938c3.253906-3.253906 3.253906-8.527344 0-11.777344zm0 0" fill="#5a5a5a"/></svg>