<svg id="Capa_1" enable-background="new 0 0 497 497" height="512" viewBox="0 0 497 497" width="512" xmlns="http://www.w3.org/2000/svg"><g><path d="m163.331 497h-78.404c0-88.628 51.424-130.234 51.424-130.234h224.298s51.424 41.606 51.424 130.234h-78.404l-85.169-36.408z" fill="#e7886e"/><path d="m176.351 366.766h-40s-51.424 41.606-51.424 130.234h40c0-88.628 51.424-130.234 51.424-130.234z" fill="#dc6742"/><path d="m334.247 489.413c0 2.566-.193 5.102-.578 7.587h-170.338c-.385-2.485-.578-5.021-.578-7.587 0-36.027 38.39-65.228 85.747-65.228s85.747 29.201 85.747 65.228z" fill="#f3bdae"/><path d="m286.979 49.271h.035c-1.337-13.502 3.27-25.232 8.482-33.833 4.493-7.413-1.866-16.625-10.434-15.312-17.577 2.693-28.042 11.627-33.015 17.198-1.895 2.122-5.198 2.122-7.093 0-4.974-5.571-15.438-14.504-33.015-17.198-8.568-1.313-14.927 7.899-10.434 15.312 5.213 8.601 9.82 20.331 8.482 33.833h.035c-93.489 15.523-164.122 86.524-164.122 171.783 0 96.621 90.707 174.948 202.6 174.948s202.6-78.327 202.6-174.948c0-85.259-70.633-156.26-164.121-171.783z" fill="#e7886e"/><path d="m278.5 386.002c-111.893 0-202.6-78.327-202.6-174.948 0-69.475 46.904-129.478 114.855-157.715-83.755 21.47-144.855 88.421-144.855 167.715 0 96.621 90.707 174.948 202.6 174.948 31.454 0 61.233-6.19 87.795-17.235-18.317 4.699-37.711 7.235-57.795 7.235z" fill="#e27858"/><g fill="#e8e8e8"><ellipse cx="129.015" cy="210.231" rx="44.088" ry="35.109"/><ellipse cx="367.985" cy="210.231" rx="44.088" ry="35.109"/></g><path d="m125.576 256.772s2.656 48.832 122.924 48.832 122.924-48.832 122.924-48.832l-26.762-25.377-96.162-27.208-100.942 28.153z" fill="#423e4f"/><path d="m248.5 245.485c49.84 0 49.894 25.524 84.399 25.524 16.108 0 29.173-3.502 38.526-7.237 9.964-3.979 16.521-13.59 16.521-24.319 0-13.596-10.421-24.962-23.972-26.06-76.134-6.168-61.218-42.118-115.473-42.118s-39.339 35.949-115.473 42.118c-13.552 1.098-23.972 12.464-23.972 26.06 0 10.729 6.557 20.34 16.521 24.319 9.353 3.735 22.418 7.237 38.526 7.237 34.503 0 34.557-25.524 84.397-25.524z" fill="#5c586f"/><g><g><path d="m175.694 179.526c-4.142 0-7.5-3.358-7.5-7.5 0-7.436-6.049-13.485-13.485-13.485s-13.485 6.049-13.485 13.485c0 4.142-3.358 7.5-7.5 7.5s-7.5-3.358-7.5-7.5c0-15.707 12.778-28.485 28.485-28.485s28.485 12.778 28.485 28.485c0 4.142-3.358 7.5-7.5 7.5z" fill="#423e4f"/></g><g><path d="m363.276 179.526c-4.142 0-7.5-3.358-7.5-7.5 0-7.436-6.049-13.485-13.485-13.485s-13.484 6.049-13.484 13.485c0 4.142-3.358 7.5-7.5 7.5s-7.5-3.358-7.5-7.5c0-15.707 12.778-28.485 28.484-28.485 15.707 0 28.485 12.778 28.485 28.485 0 4.142-3.358 7.5-7.5 7.5z" fill="#423e4f"/></g></g></g></svg>