<svg height="512pt" viewBox="0 -83 512.00081 512" width="512pt" xmlns="http://www.w3.org/2000/svg"><path d="m452.285156 112.800781-26.441406-78.140625c-7.007812-20.714844-26.449219-34.660156-48.320312-34.660156h-197.617188v175.261719h227.574219c32.375 0 55.179687-31.792969 44.804687-62.460938zm0 0" fill="#acabb1"/><path d="m452.285156 112.800781-26.441406-78.140625c-7.007812-20.714844-26.449219-34.660156-48.320312-34.660156h-78.917969c21.871093 0 41.3125 13.945312 48.320312 34.660156l22.15625 82.425782c10.378907 30.664062-5.527343 58.175781-37.902343 58.175781h76.300781c32.375 0 55.179687-31.792969 44.804687-62.460938zm0 0" fill="#97979e"/><path d="m212.269531 0h-91.484375c-17.996094 0-33.992187 13.945312-39.761718 34.664062l-21.757813 78.136719c-8.539063 30.667969 10.230469 62.460938 36.871094 62.460938h140.78125c26.640625 0 45.40625-31.792969 36.867187-62.460938l-21.757812-78.136719c-5.765625-20.71875-21.761719-34.664062-39.757813-34.664062zm0 0" fill="#c6c5ca"/><path d="m509.46875 284.117188-26.441406-78.140626c-7.007813-20.71875-26.449219-34.660156-48.320313-34.660156h-339.539062v175.257813h369.496093c32.375 0 55.179688-31.792969 44.804688-62.457031zm0 0" fill="#d8d7da"/><path d="m509.46875 284.117188-26.441406-78.140626c-7.007813-20.71875-26.449219-34.660156-48.320313-34.660156h-78.917969c21.871094 0 41.3125 13.941406 48.320313 34.660156l26.441406 78.140626c10.375 30.664062-12.429687 62.457031-44.804687 62.457031h78.917968c32.375 0 55.179688-31.792969 44.804688-62.457031zm0 0" fill="#c6c5ca"/><path d="m188.46875 171.316406h-111.175781c-21.871094 0-41.308594 13.941406-48.320313 34.660156l-26.441406 78.140626c-10.375 30.664062 12.429688 62.457031 44.804688 62.457031h171.085937c32.375 0 55.183594-31.792969 44.804687-62.457031l-26.441406-78.140626c-7.007812-20.71875-26.445312-34.660156-48.316406-34.660156zm0 0" fill="#eaeaea"/><path d="m489.550781 225.25-48.832031-6.375c-9.351562-1.222656-18.691406 2.359375-24.828125 9.523438l-12.242187 14.277343c-4.40625 5.140625-10.699219 8.28125-17.453126 8.71875l-26.3125 1.699219c-8.117187.523438-15.421874 5.109375-19.417968 12.195312l-15.078125 26.71875c-2.847657 5.050782 1.992187 10.964844 7.507812 9.171876l35.234375-11.464844c4.003906-1.304688 8.269532-1.578125 12.410156-.796875l35.46875 6.710937c11.308594 2.140625 22.992188-.625 32.140626-7.613281l18.109374-13.828125c7.523438-5.746094 17.058594-8.191406 26.417969-6.777344l11.742188 1.777344zm0 0" fill="#c6c5ca"/><path d="m489.550781 225.25-48.832031-6.375c-9.351562-1.222656-18.691406 2.359375-24.828125 9.523438l-3.007813 3.507812 17.667969 52.210938c1.253907 3.710937 2.023438 7.4375 2.347657 11.125 5.480468-1.296876 10.675781-3.734376 15.25-7.226563l18.109374-13.828125c7.523438-5.746094 17.058594-8.191406 26.417969-6.777344l11.738281 1.777344zm0 0" fill="#acabb1"/><path d="m61.488281 104.832031 61.257813-10.074219c9.203125-1.472656 18.613281-.96875 27.605468 1.480469l9.824219 2.675781c8.253907 2.25 14.363281-7.628906 8.667969-14.007812l-21.902344-24.53125c-6.382812-7.148438-15.949218-10.59375-25.425781-9.152344l-47.136719 7.304688zm0 0" fill="#acabb1"/><path d="m401.25 96.894531 46.9375 3.800781-15.613281-46.148437-36.046875 18.121094c-11.574219 5.820312-8.191406 23.179687 4.722656 24.226562zm0 0" fill="#898890"/></svg>