<svg id="Capa_1" enable-background="new 0 0 497 497" height="512" viewBox="0 0 497 497" width="512" xmlns="http://www.w3.org/2000/svg"><g><path d="m497 140.531v82.469l-75 44.767 45-134.302c7.245-.232 14.719-.379 22.434-.437 4.164-.031 7.566 3.339 7.566 7.503z" fill="#ffba48"/><path d="m467 133.465v134.302h-218.5v-89.767c56.91-20.61 113.82-41.227 218.5-44.535z" fill="#ffd185"/><path d="m497 223v69.336l-90 50.664 60-120.465c9.59.308 19.58.465 30 .465z" fill="#ffd185"/><path d="m467 222.535v99.801h-437l-30-30v-151.805c0-4.164 3.402-7.534 7.566-7.503 119.232.895 180.088 22.934 240.934 44.972 56.91 20.61 113.82 41.228 218.5 44.535z" fill="#ffe8c2"/><path d="m490.761 288.783c-7.112-1.288-13.594-4.385-18.955-8.795-1.405-1.156-3.106-1.737-4.806-1.74l-30 113.399 30 96.6 30-21.247v-30l-10-15 10-15v-110.887c0-3.643-2.654-6.681-6.239-7.33z" fill="#3992e3"/><path d="m462.218 279.97c-7.188 5.922-16.392 9.481-26.432 9.481-10.008 0-19.187-3.537-26.364-9.426-2.838-2.328-6.863-2.328-9.701 0-7.177 5.888-16.355 9.425-26.364 9.425-10.008 0-19.186-3.537-26.363-9.425-2.838-2.328-6.863-2.329-9.701 0-7.178 5.888-16.356 9.426-26.364 9.426s-19.187-3.537-26.364-9.426c-2.838-2.328-6.863-2.328-9.701 0-7.177 5.888-16.356 9.426-26.364 9.426s-19.187-3.537-26.364-9.426c-2.838-2.328-6.863-2.328-9.701 0-7.177 5.888-16.356 9.426-26.364 9.426s-19.186-3.537-26.364-9.426c-2.838-2.328-6.863-2.328-9.701 0-7.177 5.888-16.355 9.425-26.363 9.425s-19.187-3.537-26.364-9.426c-2.838-2.328-6.863-2.328-9.701 0-7.177 5.888-16.355 9.426-26.364 9.426-10.04 0-19.244-3.56-26.432-9.481-2.802-2.309-6.785-2.288-9.589.019-5.395 4.438-11.924 7.547-19.089 8.819-3.547.632-6.104 3.763-6.104 7.367v80.826l37.5 111.248h429.5v-209.999c-1.692-.002-3.384.569-4.782 1.721z" fill="#2fb3ea"/><path d="m467 467-15 15 15 15h22.5c4.142 0 7.5-3.358 7.5-7.5v-22.5z" fill="#2fb3ea"/><path d="m90 467c-16.849 0-30.453-13.889-29.988-30.843.448-16.34 14.266-29.157 30.612-29.157h157.452c8.077 0 15.026-6.207 15.406-14.275.407-8.613-6.457-15.725-14.982-15.725-5.113 0-248.5 0-248.5 0v112.5c0 4.142 3.358 7.5 7.5 7.5h459.5v-30z" fill="#25d4f2"/><path d="m467 407-15 15 15 15h30v-30z" fill="#2fb3ea"/><path d="m315 407c-8.284 0-15 6.716-15 15s6.716 15 15 15h152v-30z" fill="#25d4f2"/><g fill="#ffd185"><circle cx="30" cy="233.248" r="7.5"/><circle cx="92.429" cy="182.674" r="7.5"/><circle cx="60" cy="263.248" r="7.5"/></g><circle cx="467" cy="192.535" fill="#ffe8c2" r="7.5"/><path d="m248.5 0v142c39.212 0 71-31.788 71-71s-31.788-71-71-71z" fill="#ff9a42"/><path d="m289.5 71c0-39.212-18.356-71-41-71-39.212 0-71 31.788-71 71s31.788 71 71 71c22.644 0 41-31.788 41-71z" fill="#ffba48"/></g></svg>