<?xml version="1.0" encoding="iso-8859-1"?>
<!-- Generator: Adobe Illustrator 19.0.0, SVG Export Plug-In . SVG Version: 6.00 Build 0)  -->
<svg version="1.1" id="Capa_1" xmlns="http://www.w3.org/2000/svg" xmlns:xlink="http://www.w3.org/1999/xlink" x="0px" y="0px"
	 viewBox="0 0 511.999 511.999" style="enable-background:new 0 0 511.999 511.999;" xml:space="preserve">
<path style="fill:#E1AF87;" d="M471.171,246.955c-23.563-44.427-79.148-60.113-120.225-50.428l-57.441,203.715l14.695,54.769
	c38.739,36.652,65.817,34.239,65.817,34.239C485.198,519.466,522.508,343.746,471.171,246.955z"/>
<path style="fill:#96776A;" d="M430.482,235.791c-25.681-18.285-60.069-20.593-92.7-10.64l-41.184,213.954
	C471.25,536.05,503.766,287.969,430.482,235.791z"/>
<path style="fill:#4B3F4E;" d="M335.432,237.361l-33.795,175.57c141.265,36.391,164.3-127.241,97.647-163.653
	C381.159,239.375,358.583,235.807,335.432,237.361z"/>
<path style="fill:#EBC9A0;" d="M27.442,14.141c-28.243,20.532,2.022,59.79,2.022,59.79l53.618-50.364
	C83.081,23.567,51.274-3.185,27.442,14.141z"/>
<path style="fill:#F5DCB4;" d="M50.529,37.228c-59.574,51.431-4.059,124.475-4.059,124.475L147.901,49.394
	C147.901,49.394,101.683-6.935,50.529,37.228z"/>
<g>
	<path style="fill:#EBC9A0;" d="M67.01,105.851C52.756,90.398,43.006,63.912,46.366,41.096
		c-52.643,51.145,0.102,120.607,0.102,120.607l35.12-38.886L67.01,105.851z"/>
	<path style="fill:#EBC9A0;" d="M141.062,47.599c-8.363,2.095-16.221,5.851-23.46,10.533l-6.535,4.225
		c-9.313,6.021-18.077,12.898-25.74,20.915c-0.05,0.053-0.101,0.105-0.151,0.158c-89.541,93.873-12.25,195.586-12.25,195.586
		L227.716,84.651C227.716,84.651,195.154,34.057,141.062,47.599z"/>
</g>
<path style="fill:#E1AF87;" d="M96.276,187.871c-31.427-21.262-32.932-57.105-29.266-82.021
	c-59.498,86.941,5.915,173.165,5.915,173.165l62.308-78.238L96.276,187.871z"/>
<path style="fill:#F5DCB4;" d="M327.46,449.755c-24.487-48.061-5.706-125.243,18.142-189.775
	c42.895-116.07-57.487-196.139-133.255-176.694c-7.266,1.865-14.126,5.053-20.697,8.672c-24.038,13.238-46.157,29.969-64.178,50.663
	c-51.937,59.636-83.313,153.529-23.523,248.426c78.709,124.924,194.967,127.089,270.067,98.206
	C374.017,489.251,344.601,483.398,327.46,449.755z"/>
<path style="fill:#EBC9A0;" d="M327.46,449.755c-4.149-8.145-6.968-17.181-8.818-26.794
	C183.528,408.31,108.982,281.305,96.276,187.871c-30.241,56.837-38.62,129.698,7.674,203.174
	c78.709,124.924,194.967,127.089,270.067,98.206C374.017,489.251,344.601,483.398,327.46,449.755z"/>
<path d="M483.901,243.834c-14.578-27.486-40.369-41.765-59.438-48.903c-20.491-7.671-43.37-10.792-62.415-8.674
	c-0.589-4.177-1.347-8.324-2.322-12.428c-5.919-24.916-18.968-47.471-37.738-65.227c-26.962-25.508-62.419-38.086-95.202-35.291
	c-3.636-4.42-13.165-14.972-27.442-23.378c-16.404-9.659-33.788-13.397-51.289-11.194c-5.699-6.237-24.309-24.338-50.113-26.585
	c-5.203-0.454-10.361-0.219-15.463,0.656c-2.926-2.141-9.427-6.482-17.718-9.494C49.092-2.377,34.615-0.715,22.893,8.12
	C9.07,18.541,4.144,34.16,9.02,52.099c2.402,8.834,6.605,16.219,9.044,20.033c-5.289,16.907-4.195,33.21-1.248,46.246
	c5.144,22.752,16.632,39.695,18.97,42.98c-3.461,20.361-1.957,38.93,1.254,54.14c7.048,33.394,23.174,56.898,26.975,62.1
	c-1.093,34.552,6.797,74.918,33.59,117.444c54.228,86.068,127.469,116.96,195.241,116.957c28.722-0.001,56.458-5.562,81.348-14.813
	c8.556,2.673,16.998,4.009,25.233,4.008c23.544-0.001,45.391-10.809,63.292-31.759c21.581-25.257,36.442-64.288,40.771-107.084
	C507.961,318.169,501.004,276.079,483.901,243.834z M23.493,48.165c-3.297-12.126-0.54-21.308,8.429-28.069
	c7.491-5.646,16.698-6.593,27.366-2.813c1.573,0.557,3.066,1.183,4.466,1.832c-6.173,3.136-12.238,7.276-18.168,12.449
	c-8.61,7.511-15.032,15.354-19.752,23.262C24.957,52.77,24.135,50.525,23.493,48.165z M451.317,459.694
	c-14.52,16.995-39.297,34.688-74.863,22.466c-9.344-3.212-17.536-7.659-24.347-13.22c-3.209-2.621-7.932-2.142-10.552,1.066
	c-2.62,3.209-2.142,7.933,1.066,10.552c3.41,2.784,7.104,5.314,11.032,7.611c-26.755,7.73-66.927,13.963-111.433,2.4
	c-52.926-13.751-97.313-48.58-131.928-103.52c-41.492-65.854-34.252-125.991-20.872-164.841
	c15.481-44.952,48.272-87.466,87.717-113.726c3.448-2.296,4.381-6.951,2.087-10.398c-2.296-3.448-6.952-4.381-10.398-2.087
	c-42.086,28.02-77.071,73.376-93.586,121.327c-3.6,10.455-6.79,22.334-8.861,35.375c-5.292-10.096-11.338-24.205-14.784-40.854
	c-9.291-44.902,3.832-86.365,39.005-123.239c4.703-4.931,9.48-9.416,14.198-13.329c3.188-2.645,3.627-7.372,0.984-10.56
	c-2.645-3.189-7.373-3.628-10.56-0.984c-5.164,4.284-10.372,9.17-15.475,14.52c-20.12,21.093-32.146,42.357-38.817,62.486
	c-3.454-6.733-7.311-15.809-9.589-26.119c-6.235-28.223,1.874-52.365,24.101-71.754c13.355-11.65,27.174-16.958,41.09-15.783
	c14.72,1.247,26.889,9.479,34.2,15.776c-2.874,1.008-5.742,2.167-8.602,3.498c-3.755,1.747-5.384,6.207-3.637,9.962
	c1.747,3.754,6.207,5.382,9.962,3.637c21.477-9.99,42.623-9.098,62.851,2.649c7.575,4.398,13.655,9.585,17.927,13.778
	c-4.419,1.191-8.752,2.676-12.953,4.499c-3.799,1.649-5.542,6.065-3.893,9.865c1.648,3.798,6.063,5.543,9.865,3.893
	c34.099-14.797,78.075-4.81,109.43,24.854c16.643,15.745,28.21,35.731,33.453,57.799c5.979,25.171,3.77,52.116-6.567,80.086
	c-32.703,88.49-38.693,154.351-17.804,195.753c1.319,2.614,3.959,4.122,6.701,4.122c1.136,0,2.29-0.26,3.373-0.806
	c3.697-1.866,5.183-6.376,3.317-10.074c-10.354-20.52-13.129-48.898-8.249-84.345c3.947-28.677,12.941-62.137,26.731-99.452
	c7.754-20.981,11.322-41.528,10.704-61.381c33.287-3.873,86.544,10.509,107.31,49.663
	C502.544,310.99,493.328,410.527,451.317,459.694z"/>
<g>
</g>
<g>
</g>
<g>
</g>
<g>
</g>
<g>
</g>
<g>
</g>
<g>
</g>
<g>
</g>
<g>
</g>
<g>
</g>
<g>
</g>
<g>
</g>
<g>
</g>
<g>
</g>
<g>
</g>
</svg>
