<?xml version="1.0" encoding="iso-8859-1"?>
<!-- Generator: Adobe Illustrator 19.0.0, SVG Export Plug-In . SVG Version: 6.00 Build 0)  -->
<svg version="1.1" id="Capa_1" xmlns="http://www.w3.org/2000/svg" xmlns:xlink="http://www.w3.org/1999/xlink" x="0px" y="0px"
	 viewBox="0 0 480.008 480.008" style="enable-background:new 0 0 480.008 480.008;" xml:space="preserve">
<g>
	<path style="fill:#FFE4B6;" d="M423.12,372.004c-19.36,0-35.112,16.152-35.112,36c0,15.44,12.24,28,27.288,28
		c11.6,0,21.032-9.688,21.032-21.6c0-9.088-7.184-16.48-16.024-16.48v-8c13.248,0,24.024,10.976,24.024,24.48
		c0,16.32-13.024,29.6-29.032,29.6c-19.456,0-35.288-16.152-35.288-36v-356H14.48l21.104,42.208c0.528,1.056,0.56,2.28,0.096,3.368
		l-23.32,54.424l23.328,54.424c0.432,1.008,0.432,2.152,0,3.16L12.36,264.004l23.328,54.424c0.432,1.008,0.432,2.152,0,3.16
		L12.36,376.004l23.328,54.424c0.504,1.176,0.416,2.528-0.248,3.632l-20.368,33.944h408.936c24.264,0,44-19.744,44-44v-6
		C468.008,392.636,447.872,372.004,423.12,372.004z M60.216,150.74l24-72c1.088-3.264,6.496-3.264,7.584,0l24,72
		c0.408,1.216,0.2,2.56-0.544,3.6c-0.752,1.048-1.96,1.664-3.248,1.664h-20v28h-8v-28h-20c-1.288,0-2.496-0.616-3.248-1.664
		C60.008,153.3,59.808,151.956,60.216,150.74z M114.84,437.172l-5.656,5.656L88.008,421.66L66.84,442.828l-5.656-5.656
		l21.168-21.168l-21.168-21.168l5.656-5.656l21.168,21.168l21.168-21.168l5.656,5.656l-21.168,21.168L114.84,437.172z
		 M116.008,336.004h-8v-28h-20c-1.288,0-2.496-0.616-3.248-1.664c-0.752-1.04-0.96-2.384-0.544-3.6l24-72
		c1.088-3.264,6.496-3.264,7.584,0l20.208,60.616l20.208-60.624c1.088-3.264,6.496-3.264,7.584,0l24,72
		c0.408,1.216,0.2,2.56-0.544,3.6c-0.752,1.056-1.96,1.672-3.248,1.672h-20v28h-8v-28h-40V336.004z M355.776,382.66
		c0.432,1.224,0.248,2.584-0.496,3.648c-0.752,1.064-1.968,1.696-3.272,1.696h-28v28h-8v-28h-28c-1.304,0-2.52-0.632-3.272-1.696
		c-0.744-1.064-0.936-2.424-0.496-3.648l12.328-34.656h-8.56c-1.384,0-2.672-0.72-3.4-1.896s-0.8-2.648-0.176-3.888l32-64
		c1.36-2.704,5.8-2.704,7.16,0l32,64c0.624,1.24,0.552,2.712-0.176,3.888s-2.024,1.896-3.408,1.896h-8.552L355.776,382.66z
		 M354.84,157.172c1.56,1.56,1.56,4.096,0,5.656l-24,24c-0.784,0.784-1.808,1.176-2.832,1.176s-2.048-0.392-2.832-1.168
		l-21.168-21.176l-21.168,21.168c-1.56,1.56-4.096,1.56-5.656,0l-24-24c-1.56-1.56-1.56-4.096,0-5.656l21.168-21.168l-21.168-21.168
		c-1.56-1.56-1.56-4.096,0-5.656l24-24c1.56-1.56,4.096-1.56,5.656,0l21.168,21.168l21.168-21.168c1.56-1.56,4.096-1.56,5.656,0
		l24,24c1.56,1.56,1.56,4.096,0,5.656l-21.168,21.168L354.84,157.172z"/>
	<path style="fill:#FFE4B6;" d="M428.008,12.004c-22.056,0-40,17.944-40,40v330.56c7.824-11.208,20.632-18.56,35.112-18.56
		c18.944,0,35.552,10.256,44.888,25.584V52.004C468.008,29.948,450.064,12.004,428.008,12.004z"/>
</g>
<path style="fill:#FF8242;" d="M306.84,114.836c-1.56,1.56-4.096,1.56-5.656,0L280.008,93.66l-18.344,18.344l21.168,21.168
	c1.56,1.56,1.56,4.096,0,5.656l-21.168,21.176l18.344,18.344l21.168-21.168c0.784-0.784,1.808-1.176,2.832-1.176
	s2.048,0.392,2.832,1.168l21.168,21.176l18.344-18.344l-21.168-21.168c-1.56-1.56-1.56-4.096,0-5.656l21.168-21.176L328.008,93.66
	L306.84,114.836z"/>
<path style="fill:#00D3E1;" d="M294.48,340.004h7.752c1.304,0,2.52,0.632,3.272,1.696c0.744,1.064,0.936,2.424,0.496,3.648
	l-12.328,34.656h52.664l-12.328-34.656c-0.432-1.224-0.248-2.584,0.496-3.648c0.752-1.064,1.968-1.696,3.272-1.696h7.752
	l-25.52-51.056L294.48,340.004z"/>
<g>
	<polygon style="fill:#FFC34C;" points="88.008,92.652 69.56,148.004 106.456,148.004 	"/>
	<polygon style="fill:#FFC34C;" points="93.56,300.004 130.456,300.004 112.008,244.652 	"/>
	<polygon style="fill:#FFC34C;" points="160.008,244.652 141.56,300.004 178.456,300.004 	"/>
</g>
<g>
	<path style="fill:#120536;" d="M428.008,0.004c-24.536,0-45.104,17.104-50.544,40H8.008c-2.776,0-5.344,1.44-6.808,3.8
		s-1.584,5.304-0.352,7.776l22.336,44.68L0.648,148.852c-0.864,2.008-0.864,4.288,0,6.296l22.656,52.856L0.656,260.852
		c-0.864,2.008-0.864,4.288,0,6.296l22.648,52.856L0.656,372.852c-0.864,2.008-0.864,4.288,0,6.296l22.384,52.24L1.144,467.884
		c-1.488,2.472-1.52,5.544-0.104,8.064c1.424,2.512,4.088,4.056,6.968,4.056h416c30.88,0,56-25.128,56-56v-6v-366
		C480.008,23.332,456.68,0.004,428.008,0.004z M424.008,464.004H22.136l16.728-27.88c1.32-2.2,1.504-4.904,0.496-7.264
		l-22.648-52.856l22.648-52.848c0.864-2.008,0.864-4.288,0-6.296l-22.648-52.856l22.648-52.848c0.864-2.008,0.864-4.288,0-6.296
		l-22.648-52.856L39.36,99.156c0.928-2.16,0.856-4.624-0.192-6.728L20.952,56.004h355.056v352c0,22.056,17.624,40,39.288,40
		c18.216,0,33.032-15.072,33.032-33.6c0-15.704-12.568-28.48-28.024-28.48v16c6.632,0,12.024,5.592,12.024,12.48
		c0,9.704-7.64,17.6-17.032,17.6c-12.84,0-23.288-10.768-23.288-24c0-17.648,13.96-32,31.112-32c22.544,0,40.888,18.84,40.888,42v6
		C464.008,446.06,446.064,464.004,424.008,464.004z M423.12,360.004c-11.928,0-22.8,4.576-31.112,12.048V52.004
		c0-19.848,16.152-36,36-36s36,16.152,36,36v325.768C453.656,366.836,439.168,360.004,423.12,360.004z"/>
	<path style="fill:#120536;" d="M358.816,348.204c1.456-2.36,1.592-5.304,0.352-7.784l-32-64c-2.712-5.424-11.6-5.424-14.312,0
		l-32,64c-1.24,2.48-1.104,5.424,0.352,7.784s4.024,3.8,6.8,3.8h2.888l-10.424,29.32c-0.872,2.448-0.496,5.168,1,7.288
		c1.496,2.128,3.936,3.392,6.536,3.392h24v24h16v-24h24c2.6,0,5.04-1.264,6.536-3.392c1.504-2.12,1.872-4.84,1-7.288l-10.424-29.32
		h2.888C354.784,352.004,357.352,350.564,358.816,348.204z M299.344,376.004l10.424-29.32c0.872-2.448,0.496-5.168-1-7.288
		c-1.504-2.128-3.936-3.392-6.536-3.392h-1.28l19.056-38.112l19.056,38.112h-1.28c-2.6,0-5.032,1.264-6.536,3.392
		c-1.504,2.12-1.872,4.84-1,7.288l10.424,29.32H299.344z"/>
	<path style="fill:#120536;" d="M168.008,336.004v-24h16c2.568,0,4.984-1.232,6.488-3.32s1.912-4.776,1.104-7.208l-24-72
		c-1.096-3.272-4.144-5.472-7.592-5.472s-6.496,2.2-7.592,5.472L136.008,278.7L119.6,229.468c-1.096-3.264-4.144-5.464-7.592-5.464
		s-6.496,2.2-7.592,5.472l-24,72c-0.816,2.44-0.4,5.128,1.104,7.208s3.92,3.32,6.488,3.32h16v24h16v-24h16h16v24H168.008z
		 M99.104,296.004l12.904-38.704l12.904,38.704H99.104z M160.008,257.3l12.904,38.704h-25.808L160.008,257.3z"/>
	<path style="fill:#120536;" d="M64.008,160.004h16v24h16v-24h16c2.568,0,4.984-1.232,6.488-3.32s1.912-4.776,1.104-7.208l-24-72
		c-1.096-3.272-4.144-5.472-7.592-5.472s-6.496,2.2-7.592,5.472l-24,72c-0.816,2.44-0.4,5.128,1.104,7.208
		S61.44,160.004,64.008,160.004z M88.008,105.3l12.904,38.704H75.104L88.008,105.3z"/>
	<path style="fill:#120536;" d="M357.664,106.348l-24-24c-3.128-3.128-8.184-3.128-11.312,0l-18.344,18.344l-18.344-18.344
		c-3.128-3.128-8.184-3.128-11.312,0l-24,24c-3.128,3.128-3.128,8.184,0,11.312l18.344,18.344l-18.344,18.344
		c-3.128,3.128-3.128,8.184,0,11.312l24,24c3.128,3.128,8.184,3.128,11.312,0l18.344-18.344l18.344,18.344
		c1.56,1.56,3.608,2.344,5.656,2.344s4.096-0.784,5.656-2.344l24-24c3.128-3.128,3.128-8.184,0-11.312l-18.344-18.344l18.344-18.344
		C360.792,114.532,360.792,109.476,357.664,106.348z M322.352,130.348c-3.128,3.128-3.128,8.184,0,11.312l18.344,18.344
		l-12.688,12.688l-18.344-18.344c-1.56-1.56-3.608-2.344-5.656-2.344s-4.096,0.784-5.656,2.344l-18.344,18.344l-12.688-12.688
		l18.344-18.344c3.128-3.128,3.128-8.184,0-11.312l-18.344-18.344l12.688-12.688l18.344,18.344c3.128,3.128,8.184,3.128,11.312,0
		l18.344-18.344l12.688,12.688L322.352,130.348z"/>
	<polygon style="fill:#120536;" points="106.352,386.348 88.008,404.692 69.664,386.348 58.352,397.66 76.696,416.004 
		58.352,434.348 69.664,445.66 88.008,427.316 106.352,445.66 117.664,434.348 99.32,416.004 117.664,397.66 	"/>
	<path style="fill:#120536;" d="M178.624,145.564l-8.552-13.512c-5.328,3.368-10.112,7.744-13.84,12.664l12.744,9.672
		C171.552,150.98,174.896,147.924,178.624,145.564z"/>
	<path style="fill:#120536;" d="M201.624,373.212l10.232,12.296c4.4-3.664,8.56-7.544,12.376-11.536l-11.576-11.048
		C209.272,366.484,205.552,369.94,201.624,373.212z"/>
	<path style="fill:#120536;" d="M205.992,138.1l-2.12-15.856c-6.248,0.832-11.824,1.84-16.576,2.992l3.76,15.544
		C195.272,139.764,200.304,138.852,205.992,138.1z"/>
	<path style="fill:#120536;" d="M149.04,182.156l15.2-4.984c-0.52-1.592-0.872-3.216-1.032-4.832
		c-0.064-0.688-0.104-1.384-0.104-2.072c0-1.544,0.168-3.12,0.504-4.664l-15.632-3.408c-0.584,2.664-0.872,5.376-0.872,8.072
		c0,1.232,0.056,2.464,0.184,3.688C147.568,176.708,148.16,179.468,149.04,182.156z"/>
	<path style="fill:#120536;" d="M176.408,390.052l7.512,14.128c4.96-2.64,9.816-5.528,14.424-8.6l-8.864-13.312
		C185.304,385.036,180.904,387.652,176.408,390.052z"/>
	<path style="fill:#120536;" d="M222.312,351.484l12.88,9.488c3.432-4.656,6.512-9.512,9.168-14.448l-14.088-7.576
		C227.976,343.204,225.296,347.428,222.312,351.484z"/>
	<path style="fill:#120536;" d="M224.872,242.204l12.232-10.312c-1.88-2.232-3.896-4.36-6.056-6.384s-4.568-3.976-7.168-5.816
		l-9.24,13.064c2.024,1.44,3.824,2.88,5.472,4.432C221.808,238.788,223.392,240.46,224.872,242.204z"/>
	<path style="fill:#120536;" d="M201.88,225.356l7.128-14.328c-2.896-1.44-5.832-2.816-8.776-4.184l-5.776-2.728l-6.936,14.424
		l5.936,2.8C196.28,222.652,199.104,223.972,201.88,225.356z"/>
	<path style="fill:#120536;" d="M241,281.796c0.456,3.768,0.68,7.648,0.68,11.56c0,1.072-0.016,2.128-0.048,3.176l15.992,0.544
		c0.04-1.256,0.064-2.512,0.056-3.752c0-4.52-0.272-9.056-0.8-13.464L241,281.796z"/>
	<path style="fill:#120536;" d="M236.864,135.948l-0.344-16c-4.808,0-10.416,0.216-16.224,0.632l1.136,15.952
		C226.864,136.156,232.088,135.948,236.864,135.948z"/>
	<path style="fill:#120536;" d="M239.408,314.492c-0.816,3.696-1.872,7.392-3.144,10.976l15.08,5.344
		c1.496-4.2,2.736-8.536,3.688-12.88c0.272-1.248,0.528-2.512,0.76-3.776l-15.736-2.888
		C239.856,312.348,239.64,313.428,239.408,314.492z"/>
	<path style="fill:#120536;" d="M238.072,267.436l15.352-4.512c-1.688-5.752-3.88-11.216-6.496-16.264l-14.2,7.376
		C234.872,258.164,236.672,262.676,238.072,267.436z"/>
	<path style="fill:#120536;" d="M158.872,198.652c3.736,4.152,8.344,8.056,13.688,11.608l8.864-13.312
		c-4.232-2.824-7.824-5.848-10.672-9.016L158.872,198.652z"/>
	<path style="fill:#120536;" d="M148.312,401.684l4.672,15.296c5.328-1.624,10.632-3.528,15.776-5.664l-6.136-14.784
		C157.96,398.476,153.144,400.204,148.312,401.684z"/>
	<path style="fill:#120536;" d="M118.592,407.588l1.432,15.936c5.456-0.496,11.064-1.304,16.68-2.424l-3.128-15.688
		C128.52,406.42,123.48,407.156,118.592,407.588z"/>
</g>
<g>
</g>
<g>
</g>
<g>
</g>
<g>
</g>
<g>
</g>
<g>
</g>
<g>
</g>
<g>
</g>
<g>
</g>
<g>
</g>
<g>
</g>
<g>
</g>
<g>
</g>
<g>
</g>
<g>
</g>
</svg>
