<svg id="Capa_1" enable-background="new 0 0 512.376 512.376" height="512" viewBox="0 0 512.376 512.376" width="512" xmlns="http://www.w3.org/2000/svg"><g><path d="m385.562 6.762c-18.266-8.291-38.627-8.979-57.377-1.948-18.765 7.031-33.647 20.947-41.938 39.185l-30.055 66.125-.004-.007-30.059-66.118c-17.146-37.714-61.525-54.39-99.317-37.236l-40.956 18.603 98.496 216.709 13.251-3.054-8.286 18.23 66.87-5.782 70.342-6.083 99.99-220.02z" fill="#009954"/><path d="m426.52 25.366-40.958-18.604c-18.266-8.291-38.627-8.979-57.377-1.948-18.765 7.031-33.647 20.947-41.938 39.185l-30.055 66.125-.004-.007v141.352l70.342-6.083z" fill="#008932"/><g><path d="m176.852 267.856-175.195-143.349 28.506-34.819c26.177-31.992 73.521-36.738 105.527-10.576v.015l107.487 88.114z" fill="#5bc980"/></g><g><path d="m342.672 261.997-74.732-93.731 108.731-89.14c32.036-26.191 79.38-21.445 105.542 10.562l28.506 34.819z" fill="#009954"/></g><path d="m477.863 203.213h-.015c-9.756-31.611-38.555-52.837-71.66-52.837h-90c-24.62 0-46.318 12.085-60 30.463-13.682-18.378-35.38-30.463-60-30.463h-90c-38.76 0-71.587 30.234-74.751 68.833-.161 2.021-.249 4.087-.249 6.167v45h81.211l23.789-23.789 23.789 23.789h96.211 96.211l23.789-23.789 23.789 23.789h81.211v-45c0-7.53-1.128-14.986-3.325-22.163z" fill="#91eb90"/><path d="m376.188 246.587 23.789 23.789h81.211v-45c0-7.529-1.128-14.985-3.325-22.163h-.015c-9.756-31.611-38.555-52.837-71.66-52.837h-90c-24.62 0-46.318 12.085-60 30.463v89.537h96.211z" fill="#5bc980"/><g fill="#384949"><path d="m271.188 407.376h-15-15l-45.273 15c2.369 31.287 11.175 63.435 14.606 75h45.667 45.668c3.435-11.578 12.235-43.718 14.604-75z"/><path d="m256.188 377.376h15l41.027-15c-5.204-37.15-11.188-79.227-11.188-79.227h-44.839-44.839s-5.984 42.076-11.188 79.227l41.027 15z"/></g><path d="m316.461 422.376-45.273-15h-15v90h45.668c3.435-11.578 12.235-43.718 14.605-75z" fill="#293939"/><path d="m312.215 362.376c-5.204-37.15-11.188-79.227-11.188-79.227h-44.839v94.227h15z" fill="#293939"/><g><path d="m316.056 390.413c-1.137-8.589-2.468-18.241-3.842-28.037h-56.027-56.027c-1.373 9.796-2.704 19.448-3.842 28.037-1.313 9.913-1.243 20.883-.405 31.963h60.273 60.273c.84-11.08.91-22.052-.403-31.963z" fill="#4a696f"/><g><path d="m316.056 390.413c-1.137-8.589-2.468-18.241-3.842-28.037h-56.027v60h60.273c.839-11.08.909-22.052-.404-31.963z" fill="#384949"/></g></g><path d="m256.188 482.376h-256v30h256 256v-30z" fill="#91eb90"/><path d="m256.188 482.376h256v30h-256z" fill="#5bc980"/><path d="m286.188 210.376c-11.567 0-22.02 4.508-30 11.704-7.98-7.196-18.433-11.704-30-11.704-24.814 0-45 20.186-45 45s20.186 45 45 45c11.567 0 22.02-4.508 30-11.704 7.98 7.196 18.433 11.704 30 11.704 24.814 0 45-20.186 45-45s-20.186-45-45-45z" fill="#a34f3e"/><path d="m331.188 255.376c0-24.814-20.186-45-45-45-11.567 0-22.02 4.508-30 11.704v66.592c7.98 7.196 18.433 11.704 30 11.704 24.814 0 45-20.186 45-45z" fill="#88363f"/><circle cx="106.188" cy="437.376" fill="#a34f3e" r="45"/><path d="m151.188 437.376c0-24.853-20.147-45-45-45v90c24.853 0 45-20.147 45-45z" fill="#88363f"/></g></svg>