<?xml version="1.0" encoding="iso-8859-1"?>
<!-- Generator: Adobe Illustrator 19.0.0, SVG Export Plug-In . SVG Version: 6.00 Build 0)  -->
<svg version="1.1" id="Capa_1" xmlns="http://www.w3.org/2000/svg" xmlns:xlink="http://www.w3.org/1999/xlink" x="0px" y="0px"
	 viewBox="0 0 512.03 512.03" style="enable-background:new 0 0 512.03 512.03;" xml:space="preserve">
<g transform="translate(0 -1)">
	<path style="fill:#E6E7E8;" d="M0.009,260.077c-0.38,76.204,49.726,143.457,122.853,164.895c6.604,1.917,13.327,3.395,20.126,4.426
		c39.305,5.517,76.341,21.721,107.069,46.844c31.15,26.069,71.153,39.122,111.684,36.444
		c79.755-6.288,143.161-69.523,149.663-149.261c2.565-29.615-2.88-59.375-15.766-86.163c-16.06-31.67-24.249-66.744-23.872-102.252
		c0.432-15.038-1.112-30.068-4.595-44.704C451.007,60.804,392.565,9.186,321.598,1.732c-42.635-4.059-85.151,8.865-118.314,35.966
		c-37.529,28.952-77.324,54.843-119,77.421C32.528,145.129,0.482,200.252,0.009,260.077z"/>
	<circle style="fill:#F3D55B;" cx="211.859" cy="257.019" r="105.93"/>
	<path style="fill:#F9EAB0;" d="M141.239,265.847c-2.341,0.001-4.587-0.929-6.243-2.585c-1.656-1.656-2.585-3.901-2.585-6.243
		c0.049-43.858,35.591-79.399,79.448-79.448c4.875,0,8.828,3.952,8.828,8.828s-3.952,8.828-8.828,8.828
		c-34.111,0.04-61.753,27.682-61.793,61.793c0.001,2.341-0.929,4.587-2.585,6.243C145.826,264.918,143.58,265.847,141.239,265.847
		L141.239,265.847z"/>
</g>
<g>
</g>
<g>
</g>
<g>
</g>
<g>
</g>
<g>
</g>
<g>
</g>
<g>
</g>
<g>
</g>
<g>
</g>
<g>
</g>
<g>
</g>
<g>
</g>
<g>
</g>
<g>
</g>
<g>
</g>
</svg>
