<?xml version="1.0" encoding="iso-8859-1"?>
<!-- Generator: Adobe Illustrator 19.0.0, SVG Export Plug-In . SVG Version: 6.00 Build 0)  -->
<svg version="1.1" id="Layer_1" xmlns="http://www.w3.org/2000/svg" xmlns:xlink="http://www.w3.org/1999/xlink" x="0px" y="0px"
	 viewBox="0 0 512 512" style="enable-background:new 0 0 512 512;" xml:space="preserve">
<g>
	<g>
		<path d="M406.341,314.44c-5.602-2.32-12.057-1.039-16.347,3.252l-48.201,48.201c-5.858,5.857-5.858,15.355,0,21.213
			c5.857,5.857,15.355,5.857,21.213,0l22.595-22.595V376.5c0,58.173-47.327,105.5-105.5,105.5c-58.173,0-105.5-47.327-105.5-105.5
			V124.586c27.629-6.753,48.199-31.707,48.199-61.387C222.799,28.351,194.449,0,159.601,0C124.75,0,96.4,28.351,96.4,63.199
			c0,29.681,20.571,54.634,48.201,61.387V376.5c0,74.715,60.785,135.5,135.5,135.5s135.5-60.785,135.5-135.5v-48.201
			C415.601,322.231,411.946,316.763,406.341,314.44z M126.398,63.199C126.398,44.893,141.293,30,159.6,30
			c18.306,0,33.199,14.894,33.199,33.199c0,18.307-14.894,33.2-33.199,33.2C141.293,96.399,126.398,81.506,126.398,63.199z"/>
	</g>
</g>
<g>
</g>
<g>
</g>
<g>
</g>
<g>
</g>
<g>
</g>
<g>
</g>
<g>
</g>
<g>
</g>
<g>
</g>
<g>
</g>
<g>
</g>
<g>
</g>
<g>
</g>
<g>
</g>
<g>
</g>
</svg>
