<?xml version="1.0" encoding="iso-8859-1"?>
<!-- Generator: Adobe Illustrator 19.0.0, SVG Export Plug-In . SVG Version: 6.00 Build 0)  -->
<svg version="1.1" id="Capa_1" xmlns="http://www.w3.org/2000/svg" xmlns:xlink="http://www.w3.org/1999/xlink" x="0px" y="0px"
	 viewBox="0 0 512 512" style="enable-background:new 0 0 512 512;" xml:space="preserve">
<path style="fill:#C6C3B2;" d="M500.898,28.742c-7.92-9.166-18.933-14.699-31.014-15.581c-12.084-0.885-23.783,2.994-32.948,10.912
	c-13.201,11.405-21.17,27.268-22.44,44.668c-0.769,10.54,0.975,20.879,5.006,30.326c-13.117,3.486-26.283,7.522-39.427,12.088
	c-20.422,7.096-41.217,15.619-61.811,25.332c-3.801,1.793-5.43,6.329-3.636,10.131c1.793,3.802,6.33,5.429,10.131,3.636
	c20.106-9.484,40.398-17.802,60.312-24.721c14.127-4.909,28.273-9.183,42.347-12.803c0.889,1.18,1.821,2.334,2.795,3.463
	c17.416,20.157,25.938,45.891,23.999,72.459s-14.109,50.791-34.267,68.207l-25.204,21.775l9.952,11.519l25.204-21.775
	c23.235-20.074,37.262-47.993,39.496-78.617c2.154-29.514-6.894-58.135-25.521-80.969c9.937-2.201,19.818-4.068,29.617-5.594
	c16.56-2.577,29.892-13.498,35.663-29.213C514.912,58.304,511.826,41.39,500.898,28.742z M494.864,68.737
	c-3.836,10.446-12.701,17.706-23.715,19.42c-12.102,1.882-24.325,4.271-36.611,7.15c-9.62-19.902-5.155-44.593,12.351-59.716
	c5.684-4.911,12.693-7.316,19.674-7.316c8.456,0,16.868,3.532,22.817,10.418C496.637,47.093,498.688,58.325,494.864,68.737z"/>
<path style="fill:#647D87;" d="M384.104,269.618c-15.389,0-27.907,12.519-27.907,27.907c0,5.025,1.343,9.741,3.677,13.819
	c-10.269,12.249-15.314,28.41-13.906,45.139c0.613,7.277-2.186,14.234-7.679,19.085c-8.452,7.463-21.694,7.463-30.146,0
	c-4.799-4.239-7.551-10.077-7.749-16.44c-0.117-3.766,0.666-7.4,2.255-10.672c1.378,1.946,3.648,3.218,6.216,3.218
	c4.203,0,7.611-3.408,7.611-7.611v-14.352c0-3.079-1.854-5.853-4.699-7.032c-2.842-1.177-6.117-0.528-8.294,1.65l-7.176,7.176
	c-7.396,7.396-11.452,17.635-11.127,28.094c0.329,10.607,4.906,20.33,12.888,27.378c7.169,6.33,16.159,9.496,25.149,9.496
	s17.98-3.165,25.149-9.496c9.137-8.07,13.792-19.65,12.771-31.773c-1.034-12.277,2.446-24.104,9.632-33.172
	c3.965,2.167,8.509,3.4,13.337,3.4c15.389,0,27.907-12.519,27.907-27.907S399.493,269.618,384.104,269.618z M384.104,310.21
	c-6.995,0-12.685-5.69-12.685-12.685c0-6.995,5.69-12.685,12.685-12.685s12.685,5.69,12.685,12.685
	C396.789,304.52,391.099,310.21,384.104,310.21z"/>
<path style="fill:#A47C64;" d="M15.224,498.964c-1.776,0-3.581-0.313-5.343-0.973c-7.872-2.951-11.86-11.726-8.908-19.598
	c0.957-2.553,24.003-63.361,72.429-136.094c28.489-42.789,59.886-80.782,93.32-112.922c42.071-40.444,87.518-71.701,135.079-92.907
	c7.678-3.423,16.677,0.026,20.101,7.704c3.423,7.678-0.026,16.678-7.704,20.101C213.47,209.185,141.436,295.049,98.744,359.17
	C52.237,429.023,29.703,488.49,29.48,489.083C27.188,495.194,21.387,498.964,15.224,498.964z"/>
<path style="fill:#825B43;" d="M307.998,150.374C203.941,196.767,129.879,284.938,86.072,350.735
	c-47.406,71.203-70.615,132.389-70.845,132.998c-1.982,5.278-0.83,10.952,2.511,15.014c5.178-0.872,9.764-4.394,11.74-9.664
	c0.222-0.593,22.757-60.06,69.264-129.912c42.692-64.123,114.726-149.985,215.453-194.893c5.143-2.293,8.374-7.09,8.928-12.314
	C318.868,148.884,313.141,148.082,307.998,150.374z"/>
<g>
</g>
<g>
</g>
<g>
</g>
<g>
</g>
<g>
</g>
<g>
</g>
<g>
</g>
<g>
</g>
<g>
</g>
<g>
</g>
<g>
</g>
<g>
</g>
<g>
</g>
<g>
</g>
<g>
</g>
</svg>
