<?xml version="1.0" encoding="iso-8859-1"?>
<!-- Generator: Adobe Illustrator 19.0.0, SVG Export Plug-In . SVG Version: 6.00 Build 0)  -->
<svg version="1.1" id="Layer_1" xmlns="http://www.w3.org/2000/svg" xmlns:xlink="http://www.w3.org/1999/xlink" x="0px" y="0px"
	 viewBox="0 0 511.999 511.999" style="enable-background:new 0 0 511.999 511.999;" xml:space="preserve">
<path style="fill:#FEA921;" d="M29.006,445.831l-14.701-14.7c-8.647-8.647-8.475-22.73,0.381-31.204L368.783,61.056
	c1.787-1.711,4.61-1.682,6.356,0.062l23.879,23.879c1.745,1.745,1.773,4.568,0.062,6.356L60.21,445.452
	C51.735,454.307,37.652,454.478,29.006,445.831z"/>
<path style="fill:#E58200;" d="M399.019,84.998l-17.977-17.977c1.745,1.746,1.773,4.568,0.062,6.355L42.233,427.475
	c-7.932,8.288-20.776,8.967-29.477,1.93c0.481,0.595,0.996,1.173,1.55,1.727l14.701,14.701c8.647,8.647,22.729,8.475,31.204-0.381
	l338.87-354.098C400.791,89.567,400.763,86.744,399.019,84.998z"/>
<path style="fill:#C7C5CB;" d="M447.098,267.138c48.044-48.044,55.899-96.149,56.961-115.85c0.243-4.524-3.928-8.035-8.342-7.015
	c-78.268,18.081-155.28-53.385-178.026-76.84c-3.774-3.891-9.997-3.954-13.83-0.121l-56.586,56.587
	c-3.833,3.833-3.771,10.056,0.121,13.83c23.454,22.746,94.925,99.762,76.837,178.032c-1.019,4.412,2.488,8.583,7.011,8.342
	C350.93,323.057,399.009,315.226,447.098,267.138z"/>
<path style="fill:#AEADB3;" d="M495.763,144.26c-3.693,0.852-7.382,1.505-11.063,1.973c-3.702,23.748-16.005,63.355-55.578,102.929
	c-39.603,39.603-79.192,51.899-102.93,55.591c-0.468,3.679-1.121,7.366-1.973,11.057c-1.014,4.394,2.524,8.536,7.027,8.296
	c19.69-1.049,67.767-8.882,115.853-56.967c48.042-48.042,55.898-96.144,56.961-115.847
	C504.3,146.787,500.157,143.245,495.763,144.26z"/>
<path style="fill:#D8D8DA;" d="M411.144,231.185c18.915-18.915,31.596-37.834,40.087-55.029c2.043-4.137-0.528-9.035-5.083-9.763
	c-54.718-8.75-102.477-45.408-129.846-70.766c-3.146-2.914-8.026-2.82-11.058,0.213l-29.475,29.474
	c-3.027,3.027-3.123,7.897-0.223,11.047c24.039,26.118,61.688,74.611,70.708,129.919c0.74,4.541,5.631,7.092,9.757,5.057
	C373.226,262.844,392.183,250.145,411.144,231.185z"/>
<path style="fill:#1A1A1A;" d="M506.733,139.628c-3.583-3.01-8.245-4.134-12.803-3.082c-37.253,8.606-74.639-4.636-105.349-22.748
	l16.229-16.958c4.656-4.864,4.573-12.692-0.183-17.448l-23.879-23.879c-2.355-2.354-5.485-3.65-8.816-3.65
	c-3.232,0-6.296,1.231-8.632,3.466l-23.413,22.406c-7.048-6.315-12.662-11.859-16.503-15.819c-3.32-3.424-7.774-5.331-12.539-5.368
	c-4.757-0.014-9.229,1.796-12.593,5.159l-56.586,56.586c-3.364,3.364-5.195,7.836-5.159,12.593
	c0.037,4.766,1.944,9.219,5.367,12.538c3.598,3.49,8.506,8.445,14.11,14.607L74.481,331.725c-3.164,3.029-3.275,8.048-0.246,11.213
	c3.03,3.165,8.049,3.275,11.213,0.246L266.394,170.02c6.616,7.982,13.625,17.175,20.302,27.297L54.478,439.968
	c-2.617,2.736-6.141,4.265-9.92,4.306c-3.726,0.076-7.291-1.397-9.945-4.051l-14.7-14.7c-2.654-2.654-4.092-6.186-4.051-9.945
	c0.041-3.779,1.57-7.303,4.306-9.921l43.599-41.724c3.164-3.029,3.275-8.048,0.246-11.213c-3.03-3.165-8.049-3.274-11.213-0.246
	L9.202,394.197c-5.843,5.593-9.111,13.124-9.2,21.206c-0.089,8.062,2.999,15.64,8.695,21.336l14.701,14.701
	c5.617,5.617,13.063,8.698,20.998,8.698c0.112,0,0.225,0,0.338-0.001c8.082-0.089,15.612-3.356,21.205-9.201l229.36-239.666
	c17.311,30.198,29.569,66.512,21.205,102.706c-1.052,4.551,0.069,9.216,3.077,12.798c2.836,3.379,6.908,5.272,11.276,5.272
	c0.268,0,0.537-0.007,0.807-0.022c19.615-1.044,70.673-8.911,121.041-59.28c11.834-11.833,22.133-24.53,30.611-37.736
	c2.366-3.686,1.296-8.592-2.39-10.958c-3.683-2.366-8.591-1.296-10.958,2.39c-7.865,12.252-17.446,24.057-28.479,35.089
	c-45.264,45.264-90.437,53.302-109.204,54.568c7.665-35.14-0.419-73.539-24.037-114.159c-18.843-32.404-42.755-57.704-55.332-69.902
	c-0.448-0.435-0.546-0.933-0.548-1.274c-0.003-0.335,0.085-0.825,0.514-1.255l56.586-56.586c0.423-0.423,0.905-0.514,1.24-0.514
	c0.005,0,0.011,0,0.015,0c0.342,0.003,0.84,0.1,1.274,0.548c12.196,12.576,37.495,36.487,69.898,55.33
	c40.616,23.618,79.015,31.702,114.154,24.041c-0.656,9.594-3.201,27.544-12.556,48.936c-1.755,4.013,0.074,8.689,4.088,10.444
	c4.013,1.756,8.69-0.075,10.443-4.088c10.314-23.581,13.282-43.417,13.953-55.903C512.228,147.046,510.317,142.64,506.733,139.628z
	 M371.877,69.073l19.187,19.187L374.9,105.151c-0.668-0.45-1.328-0.903-1.989-1.357c-0.548-0.375-1.096-0.755-1.643-1.137
	c-1.325-0.923-2.635-1.849-3.924-2.778c-0.515-0.371-1.03-0.747-1.544-1.122c-1.619-1.181-3.205-2.363-4.76-3.545
	c-0.53-0.403-1.06-0.805-1.589-1.212c-1.264-0.972-2.502-1.94-3.72-2.906c-0.607-0.481-1.214-0.965-1.82-1.453
	c-0.644-0.518-1.282-1.033-1.912-1.548L371.877,69.073z"/>
<g>
</g>
<g>
</g>
<g>
</g>
<g>
</g>
<g>
</g>
<g>
</g>
<g>
</g>
<g>
</g>
<g>
</g>
<g>
</g>
<g>
</g>
<g>
</g>
<g>
</g>
<g>
</g>
<g>
</g>
</svg>
