<?xml version="1.0" encoding="iso-8859-1"?>
<!-- Generator: Adobe Illustrator 19.0.0, SVG Export Plug-In . SVG Version: 6.00 Build 0)  -->
<svg version="1.1" id="Capa_1" xmlns="http://www.w3.org/2000/svg" xmlns:xlink="http://www.w3.org/1999/xlink" x="0px" y="0px"
	 viewBox="0 0 512 512" style="enable-background:new 0 0 512 512;" xml:space="preserve">
<path style="fill:#A16B4E;" d="M126.533,408.708C56.651,408.708,0,352.057,0,282.175s56.651-126.533,126.533-126.533h258.934
	v253.066L126.533,408.708L126.533,408.708z"/>
<path style="opacity:0.1;enable-background:new    ;" d="M365.467,155.642v226.946H106.533c-35.042,0-66.756-14.247-89.669-37.262
	c21.862,37.884,62.787,63.382,109.669,63.382h258.934V155.642H365.467z"/>
<g style="opacity:0.1;">
	<path d="M214,293.628h-31.366c-16.992,0-32.968-6.617-44.983-18.633c-9.184-9.183-21.393-14.24-34.379-14.24H46
		c-4.143,0-7.5-3.358-7.5-7.5s3.357-7.5,7.5-7.5h57.271c16.992,0,32.969,6.617,44.984,18.633c9.184,9.183,21.393,14.24,34.378,14.24
		H214c4.143,0,7.5,3.358,7.5,7.5S218.143,293.628,214,293.628z"/>
	<path d="M293.11,216.674h-54.217c-4.143,0-7.5-3.358-7.5-7.5s3.357-7.5,7.5-7.5h54.217c4.142,0,7.5,3.358,7.5,7.5
		S297.253,216.674,293.11,216.674z"/>
	<path d="M110,328.117H46c-4.143,0-7.5-3.358-7.5-7.5s3.357-7.5,7.5-7.5h64c4.143,0,7.5,3.358,7.5,7.5S114.143,328.117,110,328.117z
		"/>
	<path d="M238.894,377.674H138.331c-4.143,0-7.5-3.358-7.5-7.5s3.357-7.5,7.5-7.5h100.563c4.143,0,7.5,3.358,7.5,7.5
		S243.036,377.674,238.894,377.674z"/>
</g>
<circle style="fill:#FAD97E;" cx="385.47" cy="282.173" r="126.53"/>
<path style="opacity:0.1;enable-background:new    ;" d="M470.027,188.053c16.944,21.525,27.053,48.682,27.053,78.201
	c0,69.882-56.651,126.533-126.533,126.533c-32.508,0-62.149-12.264-84.56-32.412c23.168,29.432,59.117,48.332,99.48,48.332
	c69.882,0,126.533-56.651,126.533-126.533C512,244.801,495.792,211.216,470.027,188.053z"/>
<g style="opacity:0.1;">
	<path d="M368.809,373.288c-0.483,0-0.974-0.047-1.466-0.145c-43.235-8.57-74.616-46.828-74.616-90.969
		c0-51.137,41.604-92.74,92.74-92.74c23.915,0,46.621,9.078,63.936,25.561c3,2.856,3.117,7.604,0.262,10.604
		c-2.857,2.999-7.604,3.116-10.604,0.261c-14.514-13.816-33.547-21.426-53.594-21.426c-42.866,0-77.74,34.874-77.74,77.74
		c0,37.003,26.299,69.073,62.532,76.255c4.064,0.806,6.704,4.752,5.898,8.815C375.45,370.815,372.315,373.288,368.809,373.288z"/>
	<path d="M407.147,372.134c-3.327,0-6.366-2.23-7.25-5.599c-1.051-4.007,1.346-8.106,5.353-9.158
		c34.124-8.95,57.957-39.874,57.957-75.203c0-11.45-2.429-22.473-7.219-32.764c-1.748-3.755-0.12-8.217,3.635-9.964
		c3.757-1.748,8.217-0.122,9.965,3.634c5.719,12.288,8.619,25.441,8.619,39.094c0,42.143-28.436,79.034-69.152,89.712
		C408.418,372.054,407.777,372.134,407.147,372.134z"/>
	<path d="M385.467,332.316c-10.048,0-19.743-2.962-28.04-8.567c-3.433-2.319-4.335-6.981-2.017-10.413
		c2.318-3.433,6.98-4.335,10.413-2.017c5.808,3.923,12.601,5.997,19.644,5.997c11.922,0,22.935-5.971,29.459-15.972
		c2.262-3.47,6.91-4.447,10.379-2.184c3.47,2.263,4.447,6.91,2.184,10.379C418.185,323.802,402.476,332.316,385.467,332.316z"/>
	<path d="M428.109,289.674c-4.143,0-7.5-3.358-7.5-7.5c0-14.459-9.067-27.65-22.564-32.826c-3.867-1.483-5.801-5.821-4.317-9.688
		c1.483-3.867,5.818-5.798,9.689-4.317c19.255,7.385,32.192,26.205,32.192,46.832C435.609,286.316,432.252,289.674,428.109,289.674z
		"/>
	<path d="M344.163,300.334c-3.341,0-6.387-2.248-7.258-5.632c-1.049-4.071-1.58-8.286-1.58-12.527
		c0-19.221,10.71-36.455,27.952-44.975c3.712-1.836,8.211-0.313,10.046,3.401c1.835,3.713,0.313,8.211-3.401,10.046
		c-12.088,5.974-19.597,18.054-19.597,31.527c0,2.98,0.372,5.937,1.105,8.787c1.033,4.012-1.382,8.101-5.393,9.133
		C345.411,300.256,344.781,300.334,344.163,300.334z"/>
</g>
<path style="fill:#A16B4E;" d="M188.404,173.581c13.473,13.473,13.473,35.317,0,48.79c-13.473,13.473-35.317,13.473-48.79,0
	l-60.179-60.178l48.79-48.79L188.404,173.581z"/>
<path style="opacity:0.1;enable-background:new    ;" d="M188.404,173.581c13.473,13.473,13.473,35.317,0,48.79
	c-13.473,13.473-35.317,13.473-48.79,0l-60.179-60.178l48.79-48.79L188.404,173.581z"/>
<circle style="fill:#FAD97E;" cx="103.83" cy="137.793" r="34.5"/>
<g>
</g>
<g>
</g>
<g>
</g>
<g>
</g>
<g>
</g>
<g>
</g>
<g>
</g>
<g>
</g>
<g>
</g>
<g>
</g>
<g>
</g>
<g>
</g>
<g>
</g>
<g>
</g>
<g>
</g>
</svg>
