<svg xmlns="http://www.w3.org/2000/svg" height="475.2pt" version="1.1" viewBox="0 0 475.2 475.2" width="475.2pt">
<g id="surface1">
<path d="M 401.679688 62.238281 L 379.039062 39.601562 L 367.761719 28.320312 L 339.441406 0 L 0 339.441406 L 28.320312 367.761719 L 33.921875 373.359375 L 62.238281 401.679688 L 67.921875 407.28125 L 407.320312 67.878906 Z M 401.679688 62.238281 " style=" stroke:none;fill-rule:nonzero;fill:rgb(80%,65.882353%,50.588235%);fill-opacity:1;" />
<path d="M 446.878906 107.441406 L 412.960938 73.519531 L 407.320312 67.878906 L 67.921875 407.28125 L 73.519531 412.960938 L 101.839844 441.28125 L 107.441406 446.878906 L 135.761719 475.199219 L 475.199219 135.761719 Z M 446.878906 107.441406 " style=" stroke:none;fill-rule:nonzero;fill:rgb(76.862745%,60.392157%,42.352941%);fill-opacity:1;" />
<path d="M 412.960938 73.519531 L 322.480469 164.078125 C 319.324219 167.175781 314.273438 167.175781 311.121094 164.078125 C 308 160.9375 308 155.863281 311.121094 152.71875 L 401.679688 62.238281 Z M 412.960938 73.519531 " style=" stroke:none;fill-rule:nonzero;fill:rgb(66.27451%,48.627451%,31.372549%);fill-opacity:1;" />
<path d="M 271.535156 211.65625 C 268.300781 211.65625 265.382812 209.707031 264.148438 206.71875 C 262.910156 203.726562 263.59375 200.289062 265.878906 198 L 288.511719 175.375 C 291.652344 172.34375 296.640625 172.386719 299.726562 175.472656 C 302.8125 178.558594 302.855469 183.550781 299.824219 186.6875 L 277.191406 209.3125 C 275.695312 210.816406 273.660156 211.660156 271.535156 211.65625 Z M 271.535156 211.65625 " style=" stroke:none;fill-rule:nonzero;fill:rgb(66.27451%,48.627451%,31.372549%);fill-opacity:1;" />
<path d="M 214.976562 268.230469 C 211.742188 268.230469 208.824219 266.28125 207.585938 263.292969 C 206.347656 260.304688 207.03125 256.863281 209.320312 254.574219 L 243.257812 220.632812 C 245.265625 218.550781 248.238281 217.71875 251.035156 218.449219 C 253.832031 219.183594 256.015625 221.367188 256.75 224.164062 C 257.480469 226.960938 256.648438 229.933594 254.566406 231.945312 L 220.632812 265.886719 C 219.132812 267.386719 217.097656 268.230469 214.976562 268.230469 Z M 214.976562 268.230469 " style=" stroke:none;fill-rule:nonzero;fill:rgb(66.27451%,48.627451%,31.372549%);fill-opacity:1;" />
<path d="M 101.832031 381.367188 C 98.597656 381.367188 95.679688 379.417969 94.441406 376.429688 C 93.203125 373.441406 93.890625 370 96.175781 367.710938 L 186.6875 277.199219 C 188.695312 275.121094 191.671875 274.285156 194.46875 275.019531 C 197.265625 275.75 199.449219 277.933594 200.179688 280.730469 C 200.914062 283.527344 200.078125 286.503906 198 288.511719 L 107.488281 379.023438 C 105.988281 380.523438 103.953125 381.367188 101.832031 381.367188 Z M 101.832031 381.367188 " style=" stroke:none;fill-rule:nonzero;fill:rgb(66.27451%,48.627451%,31.372549%);fill-opacity:1;" />
<path d="M 379.039062 39.601562 L 356.398438 62.238281 C 354.878906 63.71875 352.84375 64.550781 350.71875 64.558594 C 348.621094 64.550781 346.609375 63.71875 345.121094 62.238281 C 343.585938 60.765625 342.71875 58.726562 342.71875 56.601562 C 342.71875 54.472656 343.585938 52.433594 345.121094 50.960938 L 367.761719 28.320312 Z M 379.039062 39.601562 " style=" stroke:none;fill-rule:nonzero;fill:rgb(66.27451%,48.627451%,31.372549%);fill-opacity:1;" />
<path d="M 294.167969 121.152344 C 290.933594 121.152344 288.015625 119.203125 286.777344 116.214844 C 285.539062 113.222656 286.226562 109.785156 288.511719 107.496094 L 322.449219 73.550781 C 325.570312 70.425781 330.636719 70.425781 333.765625 73.546875 C 336.890625 76.671875 336.890625 81.738281 333.769531 84.863281 L 299.824219 118.808594 C 298.324219 120.308594 296.289062 121.152344 294.167969 121.152344 Z M 294.167969 121.152344 " style=" stroke:none;fill-rule:nonzero;fill:rgb(66.27451%,48.627451%,31.372549%);fill-opacity:1;" />
<path d="M 181.03125 234.289062 C 177.796875 234.289062 174.878906 232.339844 173.640625 229.347656 C 172.40625 226.359375 173.089844 222.921875 175.375 220.632812 L 265.878906 130.121094 C 267.886719 128.039062 270.863281 127.207031 273.660156 127.9375 C 276.457031 128.671875 278.640625 130.855469 279.375 133.652344 C 280.105469 136.449219 279.273438 139.421875 277.191406 141.433594 L 186.6875 231.945312 C 185.1875 233.445312 183.152344 234.289062 181.03125 234.289062 Z M 181.03125 234.289062 " style=" stroke:none;fill-rule:nonzero;fill:rgb(66.27451%,48.627451%,31.372549%);fill-opacity:1;" />
<path d="M 90.558594 396 L 73.519531 412.960938 L 67.921875 407.28125 L 62.238281 401.679688 L 79.199219 384.640625 C 82.335938 381.503906 87.421875 381.503906 90.558594 384.640625 C 93.695312 387.777344 93.695312 392.863281 90.558594 396 Z M 90.558594 396 " style=" stroke:none;fill-rule:nonzero;fill:rgb(66.27451%,48.627451%,31.372549%);fill-opacity:1;" />
<path d="M 192.320312 362.078125 L 107.519531 446.878906 L 107.441406 446.878906 L 101.839844 441.28125 L 96.160156 435.601562 L 181.039062 350.71875 C 184.160156 347.617188 189.199219 347.617188 192.320312 350.71875 C 195.441406 353.863281 195.441406 358.9375 192.320312 362.078125 Z M 192.320312 362.078125 " style=" stroke:none;fill-rule:nonzero;fill:rgb(66.27451%,48.627451%,31.372549%);fill-opacity:1;" />
<path d="M 203.664062 347.425781 C 200.429688 347.421875 197.511719 345.472656 196.273438 342.484375 C 195.035156 339.496094 195.722656 336.054688 198.007812 333.769531 L 220.632812 311.136719 C 223.769531 308.105469 228.761719 308.148438 231.847656 311.234375 C 234.933594 314.320312 234.976562 319.308594 231.945312 322.449219 L 209.320312 345.078125 C 207.820312 346.582031 205.785156 347.421875 203.664062 347.425781 Z M 203.664062 347.425781 " style=" stroke:none;fill-rule:nonzero;fill:rgb(66.27451%,48.627451%,31.372549%);fill-opacity:1;" />
<path d="M 248.910156 302.167969 C 245.675781 302.167969 242.761719 300.21875 241.523438 297.230469 C 240.285156 294.242188 240.96875 290.800781 243.257812 288.511719 L 277.199219 254.574219 C 280.339844 251.542969 285.328125 251.585938 288.414062 254.671875 C 291.5 257.757812 291.542969 262.75 288.511719 265.886719 L 254.566406 299.824219 C 253.070312 301.328125 251.035156 302.171875 248.910156 302.167969 Z M 248.910156 302.167969 " style=" stroke:none;fill-rule:nonzero;fill:rgb(66.27451%,48.627451%,31.372549%);fill-opacity:1;" />
<path d="M 305.480469 245.601562 C 302.246094 245.597656 299.328125 243.648438 298.089844 240.660156 C 296.851562 237.671875 297.535156 234.230469 299.824219 231.945312 L 390.335938 141.433594 C 393.460938 138.308594 398.527344 138.308594 401.652344 141.4375 C 404.777344 144.5625 404.773438 149.628906 401.648438 152.753906 L 311.136719 243.257812 C 309.636719 244.757812 307.601562 245.597656 305.480469 245.601562 Z M 305.480469 245.601562 " style=" stroke:none;fill-rule:nonzero;fill:rgb(66.27451%,48.627451%,31.372549%);fill-opacity:1;" />
<path d="M 446.878906 107.441406 L 424.238281 130.078125 C 422.777344 131.609375 420.753906 132.476562 418.640625 132.480469 C 415.410156 132.460938 412.503906 130.507812 411.265625 127.523438 C 410.023438 124.539062 410.691406 121.101562 412.960938 118.800781 L 435.601562 96.160156 Z M 446.878906 107.441406 " style=" stroke:none;fill-rule:nonzero;fill:rgb(66.27451%,48.627451%,31.372549%);fill-opacity:1;" />
<path d="M 130.121094 285.199219 C 126.886719 285.199219 123.96875 283.25 122.730469 280.261719 C 121.492188 277.273438 122.175781 273.832031 124.464844 271.542969 L 147.097656 248.910156 C 150.246094 245.957031 155.175781 246.039062 158.226562 249.09375 C 161.28125 252.148438 161.355469 257.074219 158.398438 260.222656 L 135.769531 282.855469 C 134.269531 284.355469 132.238281 285.199219 130.121094 285.199219 Z M 130.121094 285.199219 " style=" stroke:none;fill-rule:nonzero;fill:rgb(66.27451%,48.627451%,31.372549%);fill-opacity:1;" />
<path d="M 84.863281 330.449219 C 81.632812 330.449219 78.714844 328.5 77.476562 325.515625 C 76.238281 322.527344 76.917969 319.089844 79.199219 316.800781 L 101.824219 294.175781 C 104.964844 291.144531 109.953125 291.1875 113.039062 294.273438 C 116.125 297.359375 116.167969 302.347656 113.136719 305.488281 L 90.511719 328.113281 C 89.015625 329.613281 86.984375 330.453125 84.863281 330.449219 Z M 84.863281 330.449219 " style=" stroke:none;fill-rule:nonzero;fill:rgb(66.27451%,48.627451%,31.372549%);fill-opacity:1;" />
<path d="M 73.519531 345.121094 L 39.601562 379.039062 L 33.921875 373.359375 L 28.320312 367.761719 L 28.320312 367.679688 L 62.238281 333.761719 C 65.359375 330.660156 70.398438 330.660156 73.519531 333.761719 C 76.640625 336.902344 76.640625 341.976562 73.519531 345.121094 Z M 73.519531 345.121094 " style=" stroke:none;fill-rule:nonzero;fill:rgb(66.27451%,48.627451%,31.372549%);fill-opacity:1;" />
</g>
</svg>