<?xml version="1.0" encoding="iso-8859-1"?>
<!-- Generator: Adobe Illustrator 19.0.0, SVG Export Plug-In . SVG Version: 6.00 Build 0)  -->
<svg version="1.1" id="Capa_1" xmlns="http://www.w3.org/2000/svg" xmlns:xlink="http://www.w3.org/1999/xlink" x="0px" y="0px"
	 viewBox="0 0 512 512" style="enable-background:new 0 0 512 512;" xml:space="preserve">
<path style="fill:#E67C41;" d="M208.426,52.106c-9.62,1.95-20.829,11.436-28.953,16.912c-14.598,9.838-28.669,22.236-40.74,34.961
	c-13.935,14.69-25.47,27.531-31.618,47.14c-2.051,6.542-3.249,12.549-1.939,19.382c0.839,4.379,5.116,8.681,5.722,12.298
	c0.637,3.799-2.558,8.802-4.456,11.848c-4.787,7.683-9.65,14.773-13.201,23.215c-5.477,13.018-7.787,27.126-0.944,40.175
	c4.053,7.728,13.893,10.237,17.243,18.165c4.772,11.294-3.21,22.334-4.857,32.939c-1.651,10.631,1.958,23.231,12.725,27.771
	c6.965,2.937,16.921-2.691,22.694,0.056c7.422,3.532-4.81,19.056-6.289,23.978c-3.589,11.942-2.752,24.388,3.699,35.044
	c5.177,8.551,10.525,8.928,19.673,9.405c7.083,0.369,8.283,1.362,8.784,8.124c0.753,10.154-4.783,20.488-4.988,31.037
	c-0.197,10.151,6.081,18.132,13.38,24.581c8.349,7.376,17.372,9.223,27.683,6.309c10.344-2.924,9.992,4.71,13.631,13.145
	c4.066,9.426,11.77,17.51,22.757,17.154c11.933-0.387,19.454-15.266,27.5-22.418c6.804,12.644,20.354,22.728,34.516,18.09
	c11.57-3.789,17.444-9.848,22.574-20.979c2.997-6.503,4.42-17.659,10.001-21.704c8.454-6.128,23.752-2.099,29.967-12.611
	c6.112-10.337,2.184-28.436,1.319-39.631c-0.9-11.634,3.452-10.892,13.647-11.074c12.53-0.224,17.629-10.155,24.143-20.32
	c5.697-8.889,7.751-17.858,4.222-28.283c-2.362-6.978-10.112-13.784-9.887-21.327c0.314-10.534,15.2-11.965,20.359-19.934
	c5.772-8.916,7.101-23.11,2.706-32.701c-3.915-8.544-20.438-17.933-17.412-28.108c2.857-9.609,16.586-12.724,20.937-22.243
	c4.823-10.55,1.061-21.048-7.792-28.278c-9.555-7.803-26.091-13.169-18.818-27.483c3.551-6.989,6.717-9.548,4.514-17.589
	c-1.969-7.188-5.42-13.57-10.098-19.261c-15.359-18.683-31.23-37.629-50.441-52.463C308.562,52.851,252.81,30.989,208.426,52.106z"
	/>
<g>
	<path style="fill:#CD632E;" d="M200.204,57.342c-15.209,4.696-24.483,13.502-36.624,22.869
		c-12.273,9.469-24.135,19.466-34.603,30.935c-13.304,14.578-23.026,31.284-25.996,51.257c-1.622,10.91,0.761,14.981,4.911,24.2
		c3.223,7.161-1.859,13.395-5.904,20.517c-8.436,14.849-25.32,37.629-10.739,53.667c7.694,8.463,23.051,10.537,18.666,24.542
		c-3.04,9.712-6.068,14.221-6.083,24.715c-0.014,9.881,0.975,16.154,8.635,23.02c5.656,5.069,10.813,7.003,17.982,6.737
		c2.756-0.103,8.857-2.823,10.771,1.381c1.98,4.348-6.511,17.532-7.972,21.861c-3.013,8.933-3.66,19.305-1.856,28.626
		c1.751,9.052,8.219,16.823,17.143,20.149c4.634,1.727,15.855-4.838,18.95-1.681c2.118,2.161-0.522,7.056-0.929,9.337
		c-1.685,9.442-3.845,19.435-4.696,28.94c-1.431,15.99,14.738,25.162,28.9,26.62c3.197,0.329,9.328-0.464,12.118,1.194
		c3.435,2.042,6.375,9.367,8.518,12.578c7.036,10.545,15.563,19.664,28.926,17.464c7.597-1.251,13.839-5.946,18.002-12.269
		c3.471-5.273,5.098-14.897,12.984-12.131c11.125,3.902,10.658,23.208,24.515,23.928c17.672,0.917,32.215-26.08,36.191-39.63
		c1.451-4.945,0.04-7.063,6.688-8.548c3.125-0.698,6.274,1.247,10.185-0.152c4.82-1.724,7.963-4.275,9.836-8.865
		c7.146-17.517-6.016-40.225-18.911-50.978c-14.228-11.863-32.332-16.584-48.354-25.302c-22.692-12.348-42.085-30.245-58.936-49.631
		c-18.638-21.441-30.195-46.415-40.565-72.675c-9.451-23.933-13.848-48.989-6.652-74.246c6.029-21.162,18.613-40.686,29.644-59.488
		c5.471-9.326,14.193-22.122,13.947-33.299c-0.143-6.501-8.535-19.366-12.905-24.625C207.823,48.524,198.211,55.205,200.204,57.342z
		"/>
	<path style="fill:#CD632E;" d="M180.126,220.638c-0.267-6.706,5.409-19.949,13.033-20.591c8.273-0.697,11.995,20.749,16.401,27.193
		c6.454,9.439,22.137,16.418,32.383,8.792c4.791-3.566,4.59-8.233,7.212-13.023c3.312-6.049,9.254-9.93,15.963-11.174
		c13.699-2.541,20.85,8.655,34.087,10.773c6.686,1.07,13.574-0.177,19.193-4.036c6.953-4.775,5.724-8.54,7.691-15.318
		c4.375-15.076,21.643-7.537,32.028-3.885c9.525,3.35,21.693,7.311,31.168,0.728c3.492-2.426,10.1-15.661,6.636-19.664
		c-3.583-4.139-13.059,1.969-17.496,2.396c-7.129,0.686-15.293-0.903-21.928-3.685c-6.472-2.713-10.391-10.119-17.157-12.087
		c-7.31-2.126-15.643,3.283-19.428,9.414c-6.855,11.105-7.91,26.613-24.2,28.66c-11.89,1.493-17.153-11.371-18.855-20.902
		c-1.742-9.753-4.229-16.723-13.772-6.568c-6.564,6.985-7.301,19.251-14.244,25.397c-4.061,3.595-18.145,10.137-23.688,8.891
		c-12.161-2.734-12.062-20.433-13.547-30.095c-1.381-8.982-4.607-18.007-13.821-8.991
		C188.607,181.844,184.629,200.059,180.126,220.638z"/>
	<path style="fill:#CD632E;" d="M352.123,225.994c3.77,37.206-39.005,53.589-68.775,40.212c-7.03-3.159-10.751-20.283-16.333-20.732
		c-8.634-0.695-22.371,20.456-21.805,27.796c0.81,10.488,14.06,16.568,22.97,17.597c12.783,1.476,23.239-3.758,36.255-0.629
		c10.259,2.466,15.37,0.617,25.284-1.676c4.825-1.116,10.84,0.124,15.02-2.967c4.154-3.072,5.637-9.372,9.795-12.851
		c8.44-7.063,20.581-8.433,31.227-7.348c6.496,0.662,13.457,3.471,18.629-2.324c2.708-3.034,4.44-9.818,1.277-13.054
		c-6.231-6.373-23.861-3.076-31.796-5.225C364.291,242.197,361.481,232.346,352.123,225.994z"/>
</g>
<g>
	<path style="fill:#F9A363;" d="M88.414,239.455c-2.136,1.843-1.335,7.749-1.201,10.277c0.254,4.802,2.588,10.041,4.667,14.302
		c5.064,10.382,14.875,13.612,25.979,14.046c12.912,0.505,24.968-6.709,34.358-14.837c3.764-3.258,17.739-17.027,5.579-16.793
		c-4.365,0.084-9.327,4.722-13.292,6.484c-3.993,1.774-7.743,2.592-11.997,3.258c-6.836,1.071-16.699,2.745-23.308,0.221
		c-6.026-2.301-9.811-8.09-13.474-13.062C94.276,241.387,91.072,237.231,88.414,239.455z"/>
	<path style="fill:#F9A363;" d="M176.397,244.594c5.726,14.844,18.741,26.484,34.653,28.229c7.843,0.86,16.186,0.607,23.97-0.759
		c8.744-1.535,18.947-10.741,21.719-19.176c3.021-9.192-11.465-3.026-15.363-1.533c-9.531,3.65-18.755,6.373-29.137,5.389
		c-8.239-0.78-16.443-4.225-22.871-9.357c-2.247-1.794-4.392-4.058-6.852-5.557C179.046,239.717,174.976,241.585,176.397,244.594z"
		/>
	<path style="fill:#F9A363;" d="M273.56,250.451c2.332,5.778,3.773,11.322,9.105,15.386c5.461,4.162,12.424,7.256,19.307,7.269
		c9.883,0.018,21.558-4.585,29.774-9.916c9.063-5.88,15.578-13.112,17.363-23.938c0.685-4.157,1.399-12.873-5.394-11.208
		c-3.036,0.745-5.159,3.807-7.43,5.765c-3.946,3.402-8.363,6.237-12.709,9.089c-7.218,4.736-13.987,8.467-22.823,8.05
		C292.078,250.539,281.651,244.614,273.56,250.451z"/>
	<path style="fill:#F9A363;" d="M362.737,225.428c3.474,1.223,8.113,0.528,11.73-0.022c8.52-1.296,18.084-3.371,25.9-7.114
		c6.461-3.094,8.908-8.42,13.987-12.865c4.449-3.894,8.015-4.223,7.737,2.417c-0.587,14.022-5.277,28.729-20.185,32.873
		c-9.514,2.645-20.586,2.717-29.865-0.857C368.825,238.621,355.31,229.58,362.737,225.428z"/>
	<path style="fill:#F9A363;" d="M336.916,311.943c-7.431,6.666-18.911,12.306-28.751,14.146c-6.371,1.192-13.024,0.664-19.423,0.217
		c-3.362-0.235-6.74,0.003-10.023-0.805c-3.532-0.869-6.499-2.788-9.755-4.279c-2.519-1.154-5.401-2.744-7.79-0.75
		c-2.659,2.22-1.299,6.282,0.365,8.78c6.041,9.069,20.789,13.168,30.946,13.986c11.85,0.955,25.748-2.318,35.09-9.859
		c3.645-2.942,7.009-6.924,8.38-11.502C336.578,319.801,337.489,315.569,336.916,311.943z"/>
	<path style="fill:#F9A363;" d="M350.492,305.022c3.825,1.175,8.454,0.834,12.395,0.813c8.833-0.046,16.78-1.424,25.01-4.68
		c8.03-3.177,13.475-9.186,19.791-14.774c2.886-2.553,11.477-9.915,11.739-2.168c0.239,7.051-4.1,17.088-7.986,22.798
		c-6.523,9.583-17.86,13.843-28.867,15.573c-8.611,1.353-21.401,1.723-29.158-3.104c-2.212-1.376-6.341-4.83-7.244-7.502
		C345.168,309.009,347.437,306.385,350.492,305.022z"/>
	<path style="fill:#F9A363;" d="M250.933,321.792c-8.507,10.807-20.763,28.82-37.104,23.149c-6.504-2.258-14.827-3.734-18.735-9.923
		c-3.551-5.622-6.578-17.332-4.352-23.848c2.295-6.717,7.97-0.748,10.248,2.612c3.204,4.726,6.996,8.465,12.412,10.545
		c6.842,2.627,13.638,1.162,20.516-0.382c3.665-0.823,7.312-1.497,10.912-2.611c1.99-0.616,4.983-2.369,6.966-1.854
		C251.52,320.459,251.14,321.417,250.933,321.792z"/>
	<path style="fill:#F9A363;" d="M179.591,313.008c-0.686,2.001-3.102,3.767-4.733,5.022c-6.337,4.876-13.079,9.216-20.349,12.577
		c-5.044,2.331-10.711,3.58-16.046,5.12c-4.486,1.295-10.302,2.751-15.021,1.77c-5.064-1.052-10.311-6.046-14.124-9.388
		c-4.495-3.94-6.685-10.282-7.468-16.106c-0.248-1.843-0.4-5.599,2.393-5.376c2.14,0.171,4.042,4.252,5.666,5.48
		c9.103,6.884,23.789,6.275,34.322,4.507c7.458-1.252,15.239-4.011,21.757-7.917c2.735-1.639,5.722-4.663,9.189-4.514
		C179.857,304.381,177.831,310.74,179.591,313.008z"/>
	<path style="fill:#F9A363;" d="M131.675,373.169c0.019,13.75,1.349,30.209,17.274,34.487c8.682,2.332,18.065,0.377,25.825-3.646
		c3.912-2.028,7.572-4.166,10.643-7.372c1.686-1.761,5.69-5.153,5.569-7.98c-0.191-4.482-6.399-2.31-8.968-1.911
		c-6.309,0.98-12.172,1.648-18.552,1.59c-3.293-0.03-6.681,0.28-9.773-1.092c-2.58-1.145-4.945-3.142-7.379-4.613
		C141.887,379.955,137.845,372.914,131.675,373.169z"/>
	<path style="fill:#F9A363;" d="M200.887,388.342c4.23,7.963,5.65,17.02,11.089,24.526c5.973,8.242,16.966,10.45,26.691,9.343
		c10.163-1.157,20.981-7.308,28.283-14.203c3.456-3.264,14.136-13.361,8.506-18.846c-2.791-2.719-9.879,0.081-13.146,1.045
		c-8.235,2.431-16.851,6.626-25.509,6.933c-7.101,0.252-13.953-3.122-20.079-6.412c-2.885-1.549-5.214-3.584-7.847-5.442
		C205.08,382.608,203.936,383.626,200.887,388.342z"/>
	<path style="fill:#F9A363;" d="M281.812,386.213c5.71,9.222,12.572,20.759,24.598,22.477c7.938,1.134,17.595-1.511,23.713-6.65
		c5.135-4.313,11.941-11.368,11.343-18.667c-0.499-6.09-4.943-3.147-8.466-0.824c-5.723,3.774-12.74,6.989-19.521,8.179
		c-5.843,1.025-13.03,1.148-18.513-1.42C291.128,387.511,286.606,382.12,281.812,386.213z"/>
	<path style="fill:#F9A363;" d="M355.284,374.766c0.923,1.952,4.116,1.62,6.145,1.699c7.726,0.298,15.8-1.273,23.011-4.073
		c4.517-1.753,8.537-4.421,12.224-7.531c1.316-1.11,3.395-3.892,5.212-4.3c5.406-1.212,2.901,6.731,1.87,9.661
		c-4.767,13.549-18.237,21.035-32.1,21.028c-6.105-0.003-11.051-1.588-16.599-3.976C348.344,384.388,350.14,380.174,355.284,374.766
		z"/>
	<path style="fill:#F9A363;" d="M363.259,431.115c1.359,0.857,2.084,2.62,1.672,5.813c-1.108,8.579-8.157,15.108-16.026,17.825
		c-3.149,1.087-6.297,0.69-9.54,0.511c-2.872-0.158-5.269,0.691-8.131,0.869c-6.189,0.384-12.255-0.852-18.003-3.107
		c-5.692-2.233-12.165-7.694-11.629-14.612c0.965-12.441,22.223-4.577,28.529-3.488c6.807,1.176,14.232,0.218,20.673-2.032
		C354.595,431.57,360.365,429.29,363.259,431.115z"/>
	<path style="fill:#F9A363;" d="M292.373,446.578c0.049,0.038,0.097,0.079,0.143,0.122c3.177,2.985-3.348,11.576-5.092,13.848
		c-6.383,8.311-17.436,16.084-28.439,13.26c-7.946-2.039-17.428-4.808-23.136-10.935c-2.176-2.336-10.95-14.365-7.163-16.75
		c3.384-2.132,11.931,5.085,14.423,6.782c3.951,2.692,10.113,5.087,14.93,4.953c3.519-0.098,6.08-1.451,9.213-2.67
		c3.576-1.391,7.523-1.842,11.173-3.192C281.278,450.939,289.491,444.351,292.373,446.578z"/>
	<path style="fill:#F9A363;" d="M222.716,453.828c0.715,14.528-16.158,20.749-27.804,21.711
		c-10.396,0.859-18.563-5.15-24.894-12.799c-3.85-4.651-10.248-12.53-7.707-19.089c1.735,0.537,3.346,3.173,4.755,4.331
		c2.285,1.878,4.81,3.32,7.402,4.714c4.039,2.172,9.163,4.509,13.723,5.005c6.474,0.704,12.32,1.312,18.49-1.263
		C211.07,454.606,219.893,447.26,222.716,453.828z"/>
</g>
<path style="fill:#CA9B83;" d="M220.244,11.174c-11.36,8.957-9.309,36.036-3.634,47.43c8.04,16.143,25.381,11.864,37.42,1.866
	c12.164-10.102,9.865-18.888,4.003-31.883c-2.907-6.445-5.031-14.107-11.197-18.285C238.546,4.684,229.416,7.127,220.244,11.174z"/>
<path style="fill:#AE765C;" d="M247.55,63.185c-10.458-1.037-9.794-23.491-10.145-30.329c-0.672-13.114-7.287-37.045-21.559-17.745
	c-8.82,11.927-4.393,33.94,2.49,46.211C225.733,74.51,235.671,68.589,247.55,63.185z"/>
<path d="M432.08,212.06c-0.157-17.985-17.411-25.385-28.01-37.023c3.072-3.72,5.427-8.006,6.714-12.656
	c3.739-13.511-2.538-26.508-9.53-37.73c-28.435-45.638-79.509-79.639-133.637-83.802c-0.327-0.025-0.631-0.001-0.934,0.026
	c-0.714-3.632-1.636-7.182-2.373-10.446c-4.329-19.152-19.407-37.586-40.878-27.645c-9.426,4.364-15.502,13.111-17.777,23.107
	c-1.71,7.516-1.015,14.391,0.716,21.159c-11.479,5.215-21.518,11.967-30.919,19.8c-34.443,22.703-66.612,51.91-77.415,92.643
	c-3.087,11.64-1.21,26.295,7.953,32.232c-5.873,9.474-11.379,19.178-17.057,28.77c-4.872,8.23-9.439,17.207-8.984,27.04
	c0.751,16.247,14.591,29.823,29.777,34.06c-7.762,12.458-14.531,26.718-10.174,41.515c4.686,15.918,21.268,23.689,36.986,21.93
	c0.059-0.007,0.116-0.018,0.174-0.025c-7.736,13.718-13.949,28.812-10.302,44.849c3.347,14.717,15.457,25.061,30.596,25.815
	c1.774,0.089,3.471,0.048,5.132-0.052c-1.144,12.6-7.72,24.701-5.561,37.502c2.459,14.578,16.764,22.305,29.611,26.613
	c6.28,2.107,12.858,2.898,19.024,1.986c5.802,16.205,16.869,30.571,35.879,30.267c12.626-0.202,23.031-7.427,28.556-17.664
	c7.163,10.961,17.048,18.154,32.971,14.437c21.076-4.919,30.698-25.839,34.523-45.259c0.66-0.059,1.32-0.118,1.981-0.19
	c12.585-1.369,24.643-4.272,29.018-17.583c4.602-14.004,3.274-30.507,0.086-45.059c6.145,0.522,12.491-0.312,18.001-2.028
	c14.293-4.451,24.843-15.229,26.789-30.368c2.026-15.758-5.281-30.004-13.303-43.048c13.745-5.407,26.141-15.626,29.246-30.691
	c3.844-18.652-7.266-35.423-18.925-49.106C422.174,238.571,432.201,225.94,432.08,212.06z M417.682,207.515
	c0.142,0.331,0.316,0.649,0.431,0.991c5.813,17.261-18.734,32.18-33.077,29.913c-8.3-1.312-14.757-5.538-20.074-11.434
	C384.67,229.544,404.632,223.178,417.682,207.515z M405.612,194.747c2.727,2.303,6.009,4.743,8.615,7.591
	c-13.701,14.458-33.255,22.981-52.999,19.996c-3.687-5.111-6.804-11.026-9.66-17.197c-1.618-4.32-3.522-8.554-5.564-12.739
	c-2.305-5.433-4.581-10.76-7.029-15.628c14.182,10.357,31.14,16.259,48.358,10.075c2.334-0.838,4.59-1.931,6.738-3.221
	C397.558,187.705,401.43,191.215,405.612,194.747z M184.747,329.786c1.762,7.678,6.889,13.006,13.322,16.653
	c-1.908,10.803-4.292,23.81-9.384,34.649c-17.761,7.459-41.122,7.062-51.547-11.595c1.449-8.789,5.05-17.513,7.947-25.512
	c0.079-0.218,0.129-0.43,0.162-0.637c15.263-4.173,28.174-14.387,38.389-27.123C183.466,320.897,183.755,325.463,184.747,329.786z
	 M196.223,318.554c0.055-1.843,0.171-3.721,0.316-5.611c2.634,5.736,6.722,10.392,13.957,12.756
	c10.325,3.375,22.442,3.615,32.626-0.524c-2.507,10.207-8.652,16.808-21.774,15.464c-5.127-0.525-10.919-1.788-15.589-4.025
	C197.658,332.734,195.965,327.254,196.223,318.554z M265.803,246.611c2.554,6.098,5.643,11.899,9.626,17.144
	c11.528,15.18,33.901,17.105,51.04,11.075c3.089,11.436,7.317,23.437,7.001,35.211c-0.406,0.168-0.802,0.441-1.17,0.842
	c-15.259,16.605-52.71,20.394-68.059,2.257c-0.049-0.058-0.103-0.099-0.154-0.149c-4.934-13.082-6.98-28.53-10.85-41.095
	c3.088-2.875,5.73-6.317,7.728-10.368C263.295,256.798,264.832,251.783,265.803,246.611z M263.123,194.87
	c2.063-3.516,3.872-7.184,5.428-10.96c5.731,13.659,15.523,24.722,32.381,23.38c14.57-1.16,22.16-10.723,25.784-22.599
	c5.594,11.442,12.191,25.084,14.967,37.96c-6.992,8.54-14.686,17.358-24.493,22.209c-12.09,5.979-26.441,3.934-39.058-0.653
	c-7.132-15.03-11.629-31.948-14.626-48.116C263.424,195.644,263.289,195.243,263.123,194.87z M286.711,351.348
	c5.273,1.573,10.834,2.323,16.439,2.177c10.311-0.27,20.433-3.634,28.311-9.839c2.48,10.713,4.29,21.538,5.01,32.513
	c-13.269,12.496-32.762,16.681-47.787,5.622c-0.9-3.397-1.539-6.967-1.963-10.596C287.235,364.46,287.183,357.701,286.711,351.348z
	 M268.807,322.953c17.855,12.482,45.669,11.073,62.989-2.53c-4.866,15.305-20.87,21.815-36.226,19.953
	C282.379,338.777,274.269,332.069,268.807,322.953z M252.49,244.435c-22.119,12.854-51.457,11.219-69.864-7.242
	c-0.144-3.814,0.257-7.629,1.012-11.421c3.24-8.511,3.859-17.746,6.999-26.323c3.209-8.736,9.336-16.233,13.339-24.693
	c3.906,20.318,8.9,43.765,33.095,42.087c6.253-0.434,11.365-3.604,15.645-7.86C253.601,220.293,254.421,233.265,252.49,244.435z
	 M214.546,259.049c12.428,1.939,24.934-0.536,35.837-6.322c-3.923,11.04-12.074,18.77-28.111,18.498
	c-14.544-0.246-31.151-7.843-37.019-21.837c-0.993-2.369-1.645-4.751-2.071-7.138C191.63,250.906,201.765,257.055,214.546,259.049z
	 M244.409,316.563c-0.015,0.218-0.041,0.426-0.059,0.643c-8.836,4.942-19.404,5.388-29.311,3.244
	c-9.217-1.995-14.346-7.91-17.641-15.465c0.917-6.568,2.336-13.193,4.269-19.484c0.907-2.165,1.745-4.326,2.521-6.475
	c5.489,1.917,11.204,3.08,16.739,3.447c7.178,0.477,14.336-0.59,20.741-3.217C243.514,291.601,245.287,304.07,244.409,316.563z
	 M210.612,351.303c3.345,0.845,6.71,1.43,9.901,1.783c23.169,2.565,32.813-10.609,35.91-28.057c0.613,1.36,1.261,2.709,1.991,4.03
	c3.875,7.019,9.442,12.666,15.996,16.761c0.703,0.44-0.226,8.65-0.257,9.754c-0.098,3.472-0.219,6.943-0.429,10.41
	c-0.335,5.522,0.215,12.09-3.808,16.249c-7.832,8.094-19.232,11.241-30.281,11.25c-5.786,0.005-11.561-1.065-16.955-3.162
	c-2.815-1.095-5.521-2.466-8.072-4.082c-0.983-0.623-6.622-3.85-6.572-5.015C208.467,371.201,210.641,361.342,210.612,351.303z
	 M269.3,391.741c0.08-0.053,0.139-0.116,0.212-0.172c-4.604,13.772-13.949,23.758-33.355,22.403
	c-15.309-1.069-27.159-10.622-28.109-26.279C225.054,402.493,249.166,405.079,269.3,391.741z M235.019,425.541
	c0.38,0.036,0.758,0.088,1.138,0.116c16.434,1.216,33.364-5.642,41.54-20.446c1.631-2.954,3.003-6.139,4.171-9.467
	c0.438,0.93,0.898,1.857,1.412,2.776c2.419,4.326,5.428,7.89,8.895,10.7c-0.972,8.509-0.17,19.571-0.847,29.83
	c-7.521,9.441-18.478,15.216-31.141,14.385c-6.905-0.453-13.477-2.852-19.147-6.785c-2.032-1.41-3.988-3.272-6.182-4.517
	C234.76,436.576,235.246,430.772,235.019,425.541z M291.163,388.982c14.617,8.611,33.051,8.386,45.685-3.538
	c0.049,4.024-0.228,8.357-2.101,11.615c-3.855,6.707-11.971,8.008-19.149,8.018C302.693,405.093,295.336,398.386,291.163,388.982z
	 M322.946,262.31c-7.598,2.991-16.353,3.824-24.363,2.075c-8.467-1.849-13.3-6.902-17.331-14.044
	c10.98,4.43,22.497,6.722,34.459,2.722c11.638-3.892,20.044-12.297,27.21-21.751C343.75,244.457,339.029,255.978,322.946,262.31z
	 M223.488,18.28c12.966-14.143,25.887,0.289,29.384,13.669c1.474,5.639,3.788,13.979,2.893,19.825
	c-1.421,9.278-12.539,12.375-20.47,13.659c-18.466,2.99-16.013-20.415-18.116-32.437c-0.019-0.107-0.056-0.195-0.081-0.296
	C217.894,27.3,219.834,22.265,223.488,18.28z M109.08,163.824c2.136-9.424,6.375-18.569,11.064-26.962
	c15.679-28.062,39.597-49.407,65.935-67.137c7.631-4.054,15.535-7.618,23.399-10.943c0.574,2.694,1.403,5.28,2.629,7.647
	c4.904,9.467,14.915,11.304,24.694,10.139c10.266-1.223,22.102-4.225,27.932-13.611c1.88-3.027,2.753-6.384,3-9.879
	c40.437,8.537,76.359,26.79,104.138,57.998c11.909,13.38,35.594,40.188,19.306,57.489c-9.086,9.651-23.52,9.679-35.019,4.776
	c-12.759-5.441-20.303-15.527-28.19-26.393c-3.482-4.798-13.619-4.047-12.753,3.454c1.606,13.921,4.865,42.081-15.14,45.036
	c-21.097,3.117-24.365-26.024-25.211-40.093c-0.524-8.713-12.414-8.432-13.34,0c-1.084,9.87-3.033,19.474-7.28,28.522
	c-3.665,7.809-10.291,21.535-20.395,20.788c-20.662-1.529-17.662-37.217-22.508-51.04c-1.941-5.539-9.634-5.767-11.494,0
	c-3.105,9.63-17.38,51.598-32.076,41.257c-14.662-10.317,2.122-37.223,4.173-50.158c0.997-6.289-7.297-10.899-10.912-4.6
	c-8.554,14.907-21.594,33.284-37.777,40.67C109.545,187.046,106.773,174.001,109.08,163.824z M113.242,194.268
	c2.162,0.251,4.555,0.167,7.195-0.317c11.829-2.171,22.643-10.643,31.738-20.805c-2.792,14.23-1.75,27.796,14.433,33.553
	c2.716,0.966,5.279,1.283,7.697,1.098c-3.374,10.151-7.325,21.842-12.756,32.338c-19.65,16.496-56.572,24.154-67.847-2.466
	C98.257,222.758,106.711,208.62,113.242,194.268z M92.774,242.664c5.73,11.733,15.985,18.139,31.436,18.34
	c10.125,0.132,20.015-2.514,28.731-7.324c-8.265,10.384-19.176,17.341-34.243,16.342C104.286,269.067,91.622,256.914,92.774,242.664
	z M117.287,282.984c25.126,2.682,43.401-13.94,55.773-34.952c0.815,3.144,1.94,6.193,3.495,9.083
	c3.605,6.697,9.142,12.096,15.633,16.179c-4.405,9.051-9.1,18.28-14.73,26.766c-0.788-0.546-1.838-0.673-2.956,0.033
	c-18.228,11.515-48.616,24.99-65.457,4.402C110.318,297.014,113.856,289.558,117.287,282.984z M111.972,322.692
	c-2.202-3.644-3.19-7.481-3.371-11.381c16.846,16.168,41.841,10.305,61.393-1.228c-5.564,6.59-12.006,12.36-19.739,16.726
	C138.58,333.401,120.228,336.351,111.972,322.692z M137.156,383.834c-0.373-1.825-0.568-3.662-0.637-5.507
	c11.148,14.305,29.838,16.367,47.092,11.41c-4.67,6.323-10.906,11.047-19.437,12.758
	C150.714,405.196,139.842,396.954,137.156,383.834z M166.31,439.357c0.621-8.41,2.454-16.387,2.589-24.69
	c12.756-2.945,21.735-11.803,28.026-23.078c0.43,3.319,1.192,6.604,2.472,9.84c4.273,10.796,13.334,17.954,23.845,21.577
	c-0.722,7.72-1.269,15.985-2.947,23.839c-4.875,3.707-10.222,6.381-16.366,7.564c-14.284,2.751-28.119-3.419-37.674-13.839
	C166.273,440.167,166.279,439.772,166.31,439.357z M181.683,464.862c-8.355-4.114-13.341-9.337-14.925-16.978
	c6.716,7.548,15.666,12.411,26.217,13.549c7.238,0.781,14.547-0.379,21.258-3.176c1.051-0.438,2.103-1.022,3.157-1.679
	c-0.336,0.848-0.649,1.708-1.034,2.532C209.464,473.872,193.905,470.879,181.683,464.862z M236.071,499.564
	c-11.104-1.791-17.95-10.72-22.907-20.139c4.202-1.89,8.006-4.815,11.093-9.005c1.691-2.295,3.117-4.802,4.335-7.446
	c1.078,1.901,2.443,3.741,4.198,5.501c7.284,7.303,17.941,10.525,28.312,11.211C259.462,491.963,249.319,501.702,236.071,499.564z
	 M268.059,468.414c-10.137,0.438-23.592-1.48-29.598-10.776c-1.347-2.085-2.208-4.447-2.753-6.978
	c4.474,1.946,8.853,5.883,13.382,7.409c6.231,2.099,12.925,2.793,19.439,1.887c7.912-1.1,15.169-4.489,21.139-9.476
	C287.132,460.414,281.334,467.84,268.059,468.414z M303.905,495.658c-15.779,7.114-23.379-4.139-28.645-16.673
	c11.216-2.192,19.665-8.838,24.418-20.084c0.933-2.208,1.654-4.452,2.235-6.72c6.07,7.437,14.043,10.537,22.708,11.393
	C321.288,476.162,316.457,489.999,303.905,495.658z M352.001,448.432c-4.051,2.869-11.721,3.141-16.286,3.578
	c-11.168,1.069-21.682-0.114-27.731-10.774c-0.701-1.235-1.269-2.528-1.781-3.845c2.701-1.213,5.754-1.571,9.037-1.121
	c2.468,0.338,4.959,1.677,7.423,2.215c4.948,1.081,9.987,1.362,15.033,0.914c7.101-0.63,13.795-2.682,19.806-6.195
	C357.321,438.766,356.747,445.07,352.001,448.432z M315.431,429.907c-4.535-0.976-8.071-0.478-11.025,1.161
	c-0.147-0.769-0.299-1.538-0.407-2.318c-0.036-4.448-0.144-8.903-0.076-13.322c5.099,1.555,10.664,2.04,16.471,1.465
	c14.735-1.459,25.209-8.632,27.795-23.704c0.087-0.51,0.146-1.03,0.222-1.544c1.718,1.954,3.702,3.553,5.869,4.841
	c0.006,0.484,0.058,0.988,0.178,1.515c2.053,9.058,3.141,18.102,3.192,27.322C343.375,432.809,331.409,433.345,315.431,429.907z
	 M380.294,387.865c-5.106,1.335-10.682,1.833-15.841,0.468c-5.058-1.337-7.895-4.362-9.876-8.307
	c16.223,5.322,33.92-1.575,46.03-14.262C399.407,376.815,391.696,384.885,380.294,387.865z M400.278,357.119
	c-0.119,0.083-0.238,0.164-0.349,0.269c-13.109,12.43-30.333,22.113-47.891,15.995c-2.334-7.523-4.732-15.05-7.003-22.61
	c-1.228-4.967-2.632-9.797-4.09-14.363c-0.206-0.786-0.538-1.428-0.943-1.965c1.195-1.812,2.256-3.742,3.15-5.8
	c1.16-2.67,2.023-5.367,2.646-8.083c1.039,1.042,2.144,2.04,3.405,2.929c10.512,7.412,24.851,8.032,37.721,5.471
	C392.459,337.61,398.515,346.858,400.278,357.119z M415.108,292.429c-2.813,12.181-14.851,19.144-26.023,22.391
	c-11.683,3.396-29.587,5.261-37.549-6.207c-0.61-0.879-1.153-1.824-1.661-2.801c21.913,9.261,53.383-2.055,65.646-22.096
	C415.872,286.58,415.786,289.492,415.108,292.429z M413.014,274.755c-0.21,0.21-0.412,0.446-0.592,0.74
	c-6.831,11.141-15.469,19.2-27.971,23.678c-10.66,3.819-26.252,6.51-37.002,0.89c-0.737-2.124-1.379-4.302-1.996-6.435
	c-1.677-8.513-4.386-16.955-6.922-25.085c11.062-8.092,17.415-20.697,18.109-34.912c9.485,12.422,21.607,20.456,39.709,16.868
	c0.242,0.437,0.538,0.867,0.893,1.285C402.755,258.263,409.382,266.157,413.014,274.755z"/>
<path d="M179.378,126.831c15.226,9.322,36.85,3.536,48.201-9.879c7.254,7.409,16.03,12.668,27.092,12.621
	c10.708-0.046,20.366-5.307,26.797-13.495c8.282,5.293,18.005,8.522,27.76,5.126c9.375-3.264,16.461-12.216,15.455-22.328
	c-0.687-6.905-10.798-7.199-10.975,0c-0.429,17.486-20.493,14.425-29.879,6.017c-2.679-2.4-6.346-1.845-8.346,1.076
	c-9.333,13.627-35.685,19.716-42.992,0.094c-1.173-3.15-5.165-5.771-8.435-3.432c-9.111,6.519-16.267,15.474-28.477,15.832
	c-12.96,0.38-28.766-15.484-14.349-26.156c3.885-2.876,0.169-9.47-3.85-6.586C163.119,95.95,164.504,117.725,179.378,126.831z"/>
<g>
</g>
<g>
</g>
<g>
</g>
<g>
</g>
<g>
</g>
<g>
</g>
<g>
</g>
<g>
</g>
<g>
</g>
<g>
</g>
<g>
</g>
<g>
</g>
<g>
</g>
<g>
</g>
<g>
</g>
</svg>
