<?xml version="1.0" encoding="iso-8859-1"?>
<!-- Generator: Adobe Illustrator 19.0.0, SVG Export Plug-In . SVG Version: 6.00 Build 0)  -->
<svg version="1.1" id="Layer_1" xmlns="http://www.w3.org/2000/svg" xmlns:xlink="http://www.w3.org/1999/xlink" x="0px" y="0px"
	 viewBox="0 0 511.999 511.999" style="enable-background:new 0 0 511.999 511.999;" xml:space="preserve">
<path style="fill:#D7D5D9;" d="M76.771,334.156c0,0-101.409-194.446,182.729-220.202S476.537,299.25,371.699,331.119
	s-73.762,89.833-168.277,89.132C108.905,419.551,76.771,334.156,76.771,334.156z"/>
<path style="opacity:0.27;fill:#ACAAB1;enable-background:new    ;" d="M425.414,140.874
	c40.135,58.352-10.584,148.002-76.002,167.888c-104.84,31.869-73.762,89.834-168.277,89.132
	c-36.42-0.27-63.569-13.119-83.195-28.808c19.091,23.685,52.49,50.771,105.551,51.165c94.515,0.7,63.439-57.263,168.277-89.132
	C446.329,308.454,501.8,195.16,425.414,140.874z"/>
<g>
	<path style="fill:#D7D5D9;" d="M46.027,457.23c-10.421-2.954-28.726-5.472-37.389,21.886
		c-8.663,27.358,37.389,32.373,64.291,15.503C99.831,477.748,57.107,460.37,46.027,457.23z"/>
	<circle style="fill:#D7D5D9;" cx="385.503" cy="72.915" r="15.18"/>
	<circle style="fill:#D7D5D9;" cx="156.416" cy="470.664" r="15.18"/>
	<path style="fill:#D7D5D9;" d="M457.219,8.037c0.373-0.071,0.751-0.13,1.13-0.18C457.969,7.908,457.593,7.966,457.219,8.037z"/>
	<path style="fill:#D7D5D9;" d="M442.371,85.57c-0.286-0.135-0.557-0.283-0.831-0.428C441.814,85.287,442.085,85.436,442.371,85.57z
		"/>
	<path style="fill:#D7D5D9;" d="M456.082,8.293c0.366-0.094,0.736-0.178,1.108-0.25C456.818,8.115,456.449,8.199,456.082,8.293z"/>
	<path style="fill:#D7D5D9;" d="M458.51,7.837c0.371-0.047,0.746-0.084,1.122-0.112C459.255,7.752,458.881,7.79,458.51,7.837z"/>
	<path style="fill:#D7D5D9;" d="M443.848,86.203c-0.29-0.112-0.564-0.238-0.843-0.358C443.284,85.965,443.557,86.09,443.848,86.203z
		"/>
	<path style="fill:#D7D5D9;" d="M440.995,84.858c-0.28-0.159-0.544-0.332-0.812-0.502C440.45,84.526,440.714,84.699,440.995,84.858z
		"/>
	<path style="fill:#D7D5D9;" d="M438.545,83.188c-0.256-0.208-0.497-0.431-0.738-0.653
		C438.048,82.757,438.288,82.979,438.545,83.188z"/>
	<path style="fill:#D7D5D9;" d="M455.999,87.785c-0.327,0.061-0.653,0.112-0.977,0.155
		C455.346,87.898,455.671,87.846,455.999,87.785z"/>
	<path style="fill:#D7D5D9;" d="M437.466,82.228c-0.241-0.235-0.467-0.483-0.692-0.731
		C436.999,81.746,437.225,81.994,437.466,82.228z"/>
	<path style="fill:#D7D5D9;" d="M454.901,8.64c0.354-0.117,0.709-0.226,1.069-0.32C455.611,8.416,455.255,8.523,454.901,8.64z"/>
	<path style="fill:#D7D5D9;" d="M453.679,9.099c0.351-0.149,0.704-0.281,1.061-0.404C454.384,8.818,454.03,8.951,453.679,9.099z"/>
	<path style="fill:#D7D5D9;" d="M439.721,84.064c-0.27-0.184-0.524-0.382-0.779-0.577C439.197,83.684,439.45,83.881,439.721,84.064z
		"/>
	<path style="fill:#D7D5D9;" d="M451.469,10.241c0.338-0.208,0.679-0.404,1.023-0.583C452.148,9.838,451.807,10.034,451.469,10.241z
		"/>
	<path style="fill:#D7D5D9;" d="M453.289,88.079c-0.331,0.009-0.66,0.007-0.988-0.006C452.628,88.086,452.958,88.088,453.289,88.079
		z"/>
	<path style="fill:#D7D5D9;" d="M466.258,7.933c0.413,0.046,0.829,0.095,1.248,0.149C467.087,8.028,466.671,7.979,466.258,7.933z"/>
	<path style="fill:#D7D5D9;" d="M467.668,8.103c0.878,0.114,1.769,0.243,2.673,0.381C469.437,8.346,468.547,8.216,467.668,8.103z"/>
	<path style="fill:#D7D5D9;" d="M451.974,88.059c-0.396-0.024-0.789-0.058-1.179-0.114
		C451.185,88.001,451.578,88.034,451.974,88.059z"/>
	<path style="fill:#D7D5D9;" d="M454.723,87.98c-0.403,0.046-0.805,0.079-1.202,0.095C453.918,88.059,454.319,88.026,454.723,87.98z
		"/>
	<path style="fill:#D7D5D9;" d="M470.379,8.49c0.467,0.071,0.935,0.145,1.408,0.219C471.314,8.633,470.845,8.561,470.379,8.49z"/>
	<path style="fill:#D7D5D9;" d="M459.769,7.716c0.78-0.055,1.573-0.072,2.376-0.06C461.342,7.643,460.551,7.661,459.769,7.716z"/>
	<path style="fill:#D7D5D9;" d="M445.427,86.755c-0.288-0.091-0.56-0.194-0.839-0.291C444.868,86.561,445.139,86.664,445.427,86.755
		z"/>
	<path style="fill:#D7D5D9;" d="M447.111,87.229c-0.279-0.07-0.541-0.152-0.813-0.228C446.57,87.077,446.833,87.159,447.111,87.229z
		"/>
	<path style="fill:#D7D5D9;" d="M448.9,87.624c-0.237-0.046-0.458-0.102-0.69-0.152C448.441,87.522,448.664,87.579,448.9,87.624z"/>
	<path style="fill:#D7D5D9;" d="M463.632,7.709c0.821,0.047,1.652,0.118,2.496,0.209C465.284,7.828,464.452,7.756,463.632,7.709z"/>
	<path style="fill:#D7D5D9;" d="M462.293,7.658c0.392,0.008,0.785,0.022,1.182,0.044C463.079,7.68,462.685,7.665,462.293,7.658z"/>
	<path style="fill:#D7D5D9;" d="M452.563,9.623c0.345-0.177,0.692-0.341,1.042-0.491C453.256,9.282,452.908,9.445,452.563,9.623z"/>
	<path style="fill:#D7D5D9;" d="M431.85,67.809c-0.031-0.536-0.05-1.086-0.061-1.646C431.801,66.723,431.819,67.273,431.85,67.809z"
		/>
	<path style="fill:#D7D5D9;" d="M434.917,43.94c0.229-0.936,0.47-1.888,0.723-2.857C435.387,42.052,435.145,43.004,434.917,43.94z"
		/>
	<path style="fill:#D7D5D9;" d="M432.361,57.116c0.094-0.723,0.2-1.46,0.318-2.21C432.562,55.655,432.455,56.393,432.361,57.116z"/>
	<path style="fill:#D7D5D9;" d="M436.485,81.184c-0.225-0.261-0.434-0.536-0.642-0.814
		C436.052,80.647,436.261,80.922,436.485,81.184z"/>
	<path style="fill:#D7D5D9;" d="M432.004,69.659c-0.055-0.502-0.097-1.018-0.133-1.542
		C431.907,68.641,431.949,69.157,432.004,69.659z"/>
	<path style="fill:#D7D5D9;" d="M431.782,65.863c-0.007-0.571-0.001-1.157,0.012-1.752
		C431.781,64.707,431.775,65.292,431.782,65.863z"/>
	<path style="fill:#D7D5D9;" d="M432.091,59.448c0.069-0.682,0.149-1.379,0.239-2.089C432.241,58.069,432.16,58.766,432.091,59.448z
		"/>
	<path style="fill:#D7D5D9;" d="M432.712,54.684c0.12-0.763,0.253-1.542,0.397-2.334C432.965,53.141,432.833,53.921,432.712,54.684z
		"/>
	<path style="fill:#D7D5D9;" d="M433.657,49.517c0.174-0.848,0.36-1.711,0.559-2.591C434.017,47.806,433.831,48.669,433.657,49.517z
		"/>
	<path style="fill:#D7D5D9;" d="M432.247,71.417c-0.079-0.469-0.144-0.95-0.202-1.44C432.103,70.467,432.168,70.95,432.247,71.417z"
		/>
	<path style="fill:#D7D5D9;" d="M431.904,61.685c0.042-0.645,0.098-1.302,0.163-1.972C432.002,60.381,431.947,61.04,431.904,61.685z
		"/>
	<path style="fill:#D7D5D9;" d="M433.145,52.152c0.148-0.806,0.307-1.625,0.477-2.46C433.451,50.525,433.292,51.346,433.145,52.152z
		"/>
	<path style="fill:#D7D5D9;" d="M431.802,63.822c0.018-0.607,0.048-1.23,0.087-1.862C431.849,62.593,431.819,63.215,431.802,63.822z
		"/>
	<path style="fill:#D7D5D9;" d="M435.661,40.999c0.257-0.984,0.526-1.984,0.809-3.002C436.188,39.016,435.919,40.017,435.661,40.999
		z"/>
	<path style="fill:#D7D5D9;" d="M432.578,73.083c-0.101-0.437-0.189-0.888-0.271-1.344
		C432.389,72.195,432.477,72.647,432.578,73.083z"/>
	<path style="fill:#D7D5D9;" d="M448.214,12.811c0.323-0.318,0.648-0.62,0.977-0.904C448.863,12.191,448.537,12.494,448.214,12.811z
		"/>
	<path style="fill:#D7D5D9;" d="M449.219,11.885c0.33-0.282,0.662-0.545,0.998-0.794C449.881,11.339,449.548,11.603,449.219,11.885z
		"/>
	<path style="fill:#D7D5D9;" d="M435.601,80.054c-0.206-0.288-0.398-0.591-0.586-0.895
		C435.203,79.463,435.394,79.765,435.601,80.054z"/>
	<path style="fill:#D7D5D9;" d="M450.317,11.014c0.33-0.242,0.663-0.466,0.998-0.677C450.98,10.548,450.647,10.772,450.317,11.014z"
		/>
	<path style="fill:#D7D5D9;" d="M434.113,77.532c-0.166-0.345-0.319-0.703-0.467-1.067
		C433.795,76.828,433.947,77.187,434.113,77.532z"/>
	<path style="fill:#D7D5D9;" d="M434.81,78.836c-0.186-0.316-0.358-0.646-0.527-0.979C434.452,78.191,434.623,78.52,434.81,78.836z"
		/>
	<path style="fill:#D7D5D9;" d="M444.131,18.078c0.29-0.477,0.584-0.933,0.88-1.37C444.715,17.144,444.421,17.602,444.131,18.078z"
		/>
	<path style="fill:#D7D5D9;" d="M432.999,74.656c-0.123-0.406-0.234-0.825-0.339-1.25C432.764,73.831,432.874,74.251,432.999,74.656
		z"/>
	<path style="fill:#D7D5D9;" d="M447.136,13.949c0.31-0.35,0.622-0.682,0.937-0.998C447.757,13.267,447.445,13.599,447.136,13.949z"
		/>
	<path style="fill:#D7D5D9;" d="M445.138,16.525c0.614-0.893,1.241-1.703,1.878-2.436C446.378,14.822,445.752,15.631,445.138,16.525
		z"/>
	<path style="fill:#D7D5D9;" d="M433.51,76.139c-0.146-0.374-0.277-0.763-0.404-1.157C433.234,75.375,433.364,75.764,433.51,76.139z
		"/>
	<path style="fill:#D7D5D9;" d="M434.248,46.782c0.201-0.891,0.415-1.798,0.64-2.721C434.663,44.984,434.449,45.891,434.248,46.782z
		"/>
	<path style="fill:#D7D5D9;" d="M476.097,75.452c-0.398,0.384-0.797,0.762-1.198,1.133C475.3,76.214,475.699,75.836,476.097,75.452z
		"/>
	<path style="fill:#D7D5D9;" d="M474.789,76.689c-0.436,0.403-0.874,0.797-1.314,1.185
		C473.914,77.486,474.351,77.092,474.789,76.689z"/>
	<path style="fill:#D7D5D9;" d="M480.349,71.088c-0.397,0.433-0.796,0.86-1.198,1.283C479.552,71.949,479.952,71.52,480.349,71.088z
		"/>
	<path style="fill:#D7D5D9;" d="M481.738,69.546c-0.432,0.489-0.867,0.974-1.306,1.452C480.87,70.52,481.306,70.035,481.738,69.546z
		"/>
	<path style="fill:#D7D5D9;" d="M473.225,78.092c-0.366,0.321-0.734,0.636-1.101,0.944
		C472.491,78.727,472.859,78.412,473.225,78.092z"/>
	<path style="fill:#D7D5D9;" d="M470.386,80.447c-0.383,0.3-0.765,0.591-1.149,0.877C469.621,81.039,470.004,80.748,470.386,80.447z
		"/>
	<path style="fill:#D7D5D9;" d="M468.915,81.565c-0.42,0.309-0.841,0.611-1.262,0.902C468.074,82.175,468.494,81.873,468.915,81.565
		z"/>
	<path style="fill:#D7D5D9;" d="M502.597,37.373c-0.2,0.484-0.412,0.977-0.637,1.481C502.185,38.35,502.396,37.856,502.597,37.373z"
		/>
	<path style="fill:#D7D5D9;" d="M483.029,68.059c-0.395,0.462-0.792,0.921-1.193,1.374C482.237,68.98,482.635,68.522,483.029,68.059
		z"/>
	<path style="fill:#D7D5D9;" d="M471.859,79.259c-0.436,0.362-0.872,0.718-1.31,1.063C470.987,79.977,471.423,79.622,471.859,79.259
		z"/>
	<path style="fill:#D7D5D9;" d="M444.001,18.293c-0.3,0.498-0.596,1.013-0.89,1.555l0,0
		C443.405,19.306,443.703,18.792,444.001,18.293z"/>
	<path style="fill:#D7D5D9;" d="M493.977,53.311c-0.703,1.09-1.432,2.187-2.184,3.284C492.545,55.498,493.274,54.401,493.977,53.311
		z"/>
	<path style="fill:#D7D5D9;" d="M491.772,56.625c-1.121,1.635-2.294,3.273-3.51,4.894C489.478,59.898,490.651,58.261,491.772,56.625
		z"/>
	<path style="fill:#D7D5D9;" d="M501.127,40.663L501.127,40.663c0.263-0.552,0.511-1.09,0.749-1.621
		C501.638,39.572,501.39,40.112,501.127,40.663z"/>
	<path style="fill:#D7D5D9;" d="M499.577,16.664c-0.524-0.579-1.098-1.134-1.726-1.661
		C498.479,15.529,499.052,16.085,499.577,16.664z"/>
	<path style="fill:#D7D5D9;" d="M488.221,61.574c-0.795,1.06-1.609,2.111-2.439,3.151C486.612,63.685,487.426,62.634,488.221,61.574
		z"/>
	<path style="fill:#D7D5D9;" d="M467.61,82.496c-0.433,0.299-0.867,0.585-1.301,0.863C466.742,83.081,467.176,82.795,467.61,82.496z
		"/>
	<path style="fill:#D7D5D9;" d="M476.351,75.206c0.871-0.846,1.737-1.72,2.593-2.617C478.089,73.487,477.224,74.36,476.351,75.206z"
		/>
	<path style="fill:#D7D5D9;" d="M485.666,64.871c-0.821,1.026-1.657,2.04-2.507,3.037C484.009,66.911,484.845,65.897,485.666,64.871
		z"/>
	<path style="fill:#D7D5D9;" d="M437.377,34.803c-0.311,1.068-0.609,2.118-0.895,3.15C436.768,36.921,437.066,35.872,437.377,34.803
		L437.377,34.803z"/>
	<path style="fill:#D7D5D9;" d="M493.401,12.257c1.289,0.57,2.44,1.238,3.465,1.979C495.841,13.495,494.691,12.827,493.401,12.257z"
		/>
	<path style="fill:#D7D5D9;" d="M480.604,9.937c0.088,0.009,0.176,0.018,0.265,0.026C480.78,9.955,480.692,9.946,480.604,9.937z"/>
	<path style="fill:#D7D5D9;" d="M503.243,35.746c-0.171,0.453-0.355,0.92-0.551,1.396C502.887,36.666,503.072,36.199,503.243,35.746
		z"/>
	<path style="fill:#D7D5D9;" d="M464.65,84.375c-0.427,0.248-0.853,0.484-1.279,0.709C463.797,84.859,464.223,84.622,464.65,84.375z
		"/>
	<path style="fill:#D7D5D9;" d="M482.227,10.081c0.083,0.006,0.165,0.012,0.248,0.017C482.393,10.092,482.31,10.087,482.227,10.081z
		"/>
	<path style="fill:#D7D5D9;" d="M476.004,9.36c0.1,0.015,0.2,0.029,0.302,0.044C476.205,9.389,476.104,9.374,476.004,9.36z"/>
	<path style="fill:#D7D5D9;" d="M477.601,9.584c0.076,0.01,0.153,0.02,0.23,0.03C477.755,9.604,477.678,9.595,477.601,9.584z"/>
	<path style="fill:#D7D5D9;" d="M463.085,85.231c-0.345,0.179-0.69,0.35-1.034,0.514C462.396,85.581,462.74,85.41,463.085,85.231z"
		/>
	<path style="fill:#D7D5D9;" d="M471.796,8.709c0.538,0.085,1.082,0.171,1.628,0.256C472.877,8.879,472.335,8.794,471.796,8.709z"/>
	<path style="fill:#D7D5D9;" d="M461.715,85.904c-0.425,0.196-0.849,0.383-1.271,0.555C460.865,86.288,461.289,86.1,461.715,85.904z
		"/>
	<path style="fill:#D7D5D9;" d="M479.135,9.778c0.034,0.004,0.07,0.009,0.104,0.013C479.205,9.786,479.17,9.782,479.135,9.778z"/>
	<path style="fill:#D7D5D9;" d="M460.315,86.508c-0.383,0.153-0.764,0.293-1.144,0.426
		C459.551,86.802,459.932,86.661,460.315,86.508z"/>
	<path style="fill:#D7D5D9;" d="M457.553,87.436c-0.413,0.11-0.824,0.205-1.233,0.288C456.73,87.642,457.14,87.547,457.553,87.436z"
		/>
	<path style="fill:#D7D5D9;" d="M503.799,34.186c-0.147,0.442-0.312,0.902-0.486,1.37C503.487,35.087,503.652,34.628,503.799,34.186
		z"/>
	<path style="fill:#D7D5D9;" d="M458.823,87.052c-0.364,0.12-0.729,0.233-1.091,0.333C458.095,87.283,458.459,87.172,458.823,87.052
		z"/>
	<path style="fill:#D7D5D9;" d="M465.98,83.567c-0.355,0.224-0.71,0.441-1.066,0.651C465.269,84.009,465.624,83.791,465.98,83.567z"
		/>
	<path style="fill:#D7D5D9;" d="M503.917,25.261c0.216,0.974,0.354,1.931,0.429,2.85C504.271,27.192,504.133,26.234,503.917,25.261z
		"/>
	<path style="fill:#D7D5D9;" d="M502.144,20.358c0.337,0.644,0.63,1.297,0.884,1.953C502.775,21.656,502.481,21.002,502.144,20.358z
		"/>
	<path style="fill:#D7D5D9;" d="M474.461,9.127c0.098,0.015,0.196,0.03,0.294,0.046C474.657,9.158,474.559,9.142,474.461,9.127z"/>
	<path style="fill:#D7D5D9;" d="M500.326,17.548c0.711,0.9,1.314,1.845,1.819,2.81C501.639,19.393,501.037,18.448,500.326,17.548z"
		/>
</g>
<g>
	<path style="fill:#ACAAB1;" d="M493.978,53.309c2.866-4.443,5.307-8.782,7.15-12.647l0,0
		C499.285,44.527,496.843,48.867,493.978,53.309z"/>
	<path style="fill:#ACAAB1;" d="M437.835,33.225c-0.159,0.535-0.306,1.051-0.458,1.578l0,0
		C437.53,34.277,437.676,33.76,437.835,33.225z"/>
	<path style="fill:#ACAAB1;" d="M438.583,30.822c0.136-0.419,0.272-0.833,0.409-1.239C438.855,29.989,438.719,30.403,438.583,30.822
		z"/>
	<path style="fill:#ACAAB1;" d="M439.788,27.331c0.195-0.527,0.392-1.043,0.589-1.544C440.18,26.288,439.984,26.804,439.788,27.331z
		"/>
	<path style="fill:#ACAAB1;" d="M443.112,19.848L443.112,19.848c-0.216,0.399-0.43,0.814-0.643,1.237
		C442.683,20.662,442.896,20.247,443.112,19.848z"/>
	<path style="fill:#ACAAB1;" d="M437.835,33.225c0.188-0.633,0.379-1.246,0.57-1.849C438.214,31.979,438.023,32.593,437.835,33.225z
		"/>
	<path style="fill:#ACAAB1;" d="M439.19,29.005c0.14-0.403,0.28-0.798,0.421-1.187C439.471,28.207,439.33,28.602,439.19,29.005z"/>
	<path style="fill:#ACAAB1;" d="M440.388,25.762c0.205-0.519,0.413-1.021,0.622-1.512C440.8,24.741,440.593,25.242,440.388,25.762z"
		/>
	<path style="fill:#ACAAB1;" d="M441.828,22.414c0.158-0.338,0.317-0.669,0.477-0.993C442.144,21.745,441.986,22.076,441.828,22.414
		z"/>
	<path style="fill:#ACAAB1;" d="M441.164,23.894c0.158-0.364,0.316-0.723,0.476-1.072C441.479,23.172,441.322,23.529,441.164,23.894
		z"/>
</g>
<g>
	<path style="fill:#D7D5D9;" d="M501.127,40.663c0.263-0.551,0.511-1.09,0.749-1.621c0.028-0.063,0.057-0.127,0.085-0.188
		c0.224-0.504,0.435-0.997,0.637-1.481c0.032-0.078,0.064-0.155,0.095-0.232c0.195-0.476,0.379-0.942,0.551-1.396
		c0.024-0.064,0.047-0.126,0.07-0.19c0.174-0.469,0.339-0.928,0.486-1.37c0.485-1.458,0.745-3.627,0.546-6.076
		c-0.074-0.918-0.214-1.875-0.429-2.85c-0.216-0.975-0.507-1.964-0.889-2.949c-0.254-0.656-0.547-1.31-0.884-1.953
		c-0.505-0.965-1.107-1.911-1.819-2.81c-0.237-0.301-0.487-0.595-0.749-0.884c-0.524-0.579-1.098-1.134-1.726-1.661
		c-0.315-0.263-0.642-0.519-0.984-0.766c-1.025-0.742-2.176-1.41-3.465-1.979c-2.578-1.141-5.708-1.891-9.488-2.072
		c-0.483-0.023-0.961-0.054-1.439-0.088c-0.083-0.006-0.166-0.011-0.248-0.017c-0.455-0.034-0.908-0.074-1.359-0.117
		c-0.088-0.008-0.177-0.017-0.265-0.026c-0.457-0.046-0.912-0.094-1.364-0.147c-0.035-0.004-0.07-0.008-0.104-0.013
		c-0.437-0.052-0.871-0.106-1.304-0.163c-0.077-0.01-0.154-0.02-0.23-0.03c-0.434-0.058-0.866-0.118-1.295-0.18
		c-0.101-0.014-0.201-0.029-0.302-0.044c-0.419-0.062-0.835-0.123-1.249-0.187c-0.098-0.015-0.196-0.03-0.294-0.046
		c-0.347-0.054-0.692-0.107-1.036-0.162c-0.546-0.086-1.091-0.172-1.628-0.256c-0.003,0-0.006-0.001-0.009-0.001
		c-0.473-0.074-0.942-0.148-1.408-0.219c-0.013-0.002-0.025-0.004-0.038-0.006c-0.904-0.138-1.793-0.266-2.673-0.381
		c-0.054-0.007-0.108-0.014-0.162-0.021c-0.419-0.054-0.835-0.103-1.248-0.149c-0.044-0.005-0.087-0.009-0.131-0.014
		c-0.844-0.091-1.676-0.163-2.496-0.209c-0.053-0.003-0.104-0.006-0.157-0.009c-0.397-0.021-0.79-0.035-1.182-0.044
		c-0.05-0.001-0.098-0.001-0.148-0.002c-0.804-0.012-1.596,0.005-2.376,0.06c-0.046,0.003-0.092,0.006-0.138,0.009
		c-0.376,0.028-0.751,0.066-1.122,0.112c-0.054,0.007-0.107,0.014-0.161,0.021c-0.38,0.051-0.756,0.108-1.13,0.18
		c-0.009,0.002-0.019,0.004-0.028,0.006c-0.372,0.072-0.742,0.156-1.108,0.25c-0.037,0.009-0.075,0.018-0.112,0.028
		c-0.359,0.094-0.715,0.201-1.069,0.32c-0.054,0.018-0.107,0.036-0.161,0.055c-0.356,0.122-0.71,0.256-1.061,0.404
		c-0.024,0.01-0.049,0.022-0.073,0.032c-0.35,0.15-0.697,0.314-1.042,0.491c-0.024,0.012-0.048,0.023-0.072,0.036
		c-0.344,0.179-0.684,0.374-1.023,0.583c-0.051,0.031-0.102,0.063-0.153,0.095c-0.335,0.212-0.668,0.435-0.998,0.677
		c-0.033,0.025-0.068,0.052-0.101,0.077c-0.335,0.249-0.668,0.512-0.998,0.794c-0.009,0.008-0.018,0.015-0.028,0.023
		c-0.328,0.282-0.654,0.586-0.977,0.904c-0.048,0.047-0.095,0.093-0.143,0.141c-0.315,0.316-0.627,0.648-0.937,0.998
		c-0.04,0.046-0.08,0.093-0.119,0.139c-0.638,0.733-1.264,1.543-1.878,2.436c-0.042,0.061-0.084,0.121-0.126,0.183
		c-0.297,0.437-0.59,0.894-0.88,1.37c-0.044,0.071-0.086,0.144-0.13,0.216c-0.3,0.498-0.596,1.013-0.89,1.555
		C453.943,18.457,483.375,17.209,501.127,40.663z"/>
	<path style="fill:#D7D5D9;" d="M489.456,50.369c-15.707-21.558-46.943-15.081-47.254-15.013c-1.692,0.365-3.37,0.13-4.824-0.553
		c-0.311,1.068-0.609,2.118-0.895,3.15c-0.004,0.015-0.008,0.029-0.012,0.045c-0.281,1.018-0.551,2.018-0.809,3.002
		c-0.007,0.028-0.014,0.056-0.021,0.084c-0.253,0.97-0.494,1.922-0.723,2.857c-0.01,0.04-0.019,0.08-0.029,0.12
		c-0.225,0.923-0.438,1.83-0.64,2.721c-0.011,0.049-0.021,0.096-0.032,0.145c-0.197,0.879-0.384,1.743-0.559,2.591
		c-0.012,0.058-0.023,0.115-0.035,0.173c-0.17,0.835-0.33,1.656-0.477,2.46c-0.012,0.067-0.023,0.132-0.035,0.198
		c-0.144,0.792-0.276,1.571-0.397,2.334c-0.012,0.074-0.022,0.148-0.034,0.222c-0.116,0.751-0.223,1.488-0.318,2.21
		c-0.01,0.082-0.02,0.162-0.03,0.244c-0.09,0.709-0.171,1.407-0.239,2.089c-0.009,0.088-0.016,0.175-0.024,0.263
		c-0.065,0.67-0.119,1.329-0.163,1.972c-0.006,0.093-0.01,0.183-0.016,0.275c-0.039,0.633-0.069,1.254-0.087,1.862
		c-0.003,0.097-0.003,0.192-0.006,0.289c-0.014,0.595-0.019,1.18-0.012,1.752c0.001,0.101,0.005,0.2,0.007,0.301
		c0.01,0.559,0.029,1.109,0.061,1.646c0.006,0.104,0.015,0.205,0.022,0.309c0.034,0.524,0.077,1.04,0.133,1.542
		c0.012,0.107,0.027,0.212,0.039,0.318c0.059,0.49,0.123,0.972,0.202,1.44c0.018,0.109,0.04,0.214,0.06,0.321
		c0.082,0.457,0.17,0.908,0.271,1.344c0.025,0.109,0.056,0.215,0.082,0.323c0.105,0.425,0.215,0.844,0.339,1.25
		c0.034,0.111,0.073,0.217,0.108,0.326c0.126,0.394,0.258,0.781,0.404,1.157c0.044,0.111,0.092,0.217,0.137,0.327
		c0.148,0.362,0.301,0.722,0.467,1.067c0.054,0.111,0.113,0.217,0.169,0.326c0.169,0.333,0.341,0.662,0.527,0.979
		c0.065,0.11,0.137,0.214,0.204,0.322c0.189,0.305,0.381,0.606,0.586,0.895c0.078,0.108,0.163,0.21,0.243,0.317
		c0.207,0.276,0.417,0.552,0.642,0.814c0.093,0.108,0.193,0.208,0.289,0.314c0.225,0.249,0.451,0.497,0.692,0.731
		c0.109,0.106,0.228,0.204,0.34,0.308c0.241,0.222,0.482,0.444,0.738,0.653c0.128,0.104,0.265,0.199,0.397,0.3
		c0.255,0.196,0.509,0.393,0.779,0.577c0.149,0.101,0.31,0.193,0.462,0.291c0.267,0.17,0.531,0.343,0.812,0.502
		c0.175,0.1,0.363,0.189,0.544,0.284c0.274,0.145,0.544,0.293,0.831,0.428c0.204,0.096,0.423,0.182,0.634,0.273
		c0.279,0.121,0.553,0.246,0.843,0.358c0.24,0.093,0.494,0.174,0.741,0.261c0.278,0.098,0.551,0.201,0.839,0.291
		c0.282,0.088,0.58,0.165,0.871,0.246c0.271,0.076,0.533,0.158,0.813,0.228c0.356,0.089,0.73,0.165,1.099,0.244
		c0.232,0.05,0.453,0.106,0.69,0.152c0.614,0.119,1.246,0.226,1.895,0.32c0.39,0.057,0.783,0.09,1.179,0.114
		c0.108,0.006,0.218,0.011,0.327,0.015c0.328,0.012,0.657,0.015,0.988,0.006c0.077-0.002,0.154-0.001,0.232-0.004
		c0.399-0.016,0.799-0.05,1.202-0.095c0.099-0.011,0.199-0.026,0.3-0.039c0.324-0.043,0.65-0.094,0.977-0.155
		c0.107-0.02,0.215-0.038,0.322-0.061c0.409-0.083,0.82-0.178,1.233-0.288c0.06-0.016,0.119-0.035,0.179-0.052
		c0.362-0.1,0.726-0.213,1.091-0.333c0.115-0.038,0.232-0.077,0.347-0.117c0.381-0.132,0.761-0.273,1.144-0.426
		c0.043-0.017,0.085-0.032,0.129-0.05c0.422-0.171,0.846-0.358,1.271-0.555c0.112-0.052,0.225-0.105,0.336-0.159
		c0.344-0.164,0.689-0.335,1.034-0.514c0.095-0.05,0.19-0.097,0.286-0.148c0.426-0.226,0.852-0.461,1.279-0.709
		c0.088-0.051,0.176-0.105,0.264-0.157c0.355-0.209,0.71-0.426,1.066-0.651c0.109-0.069,0.22-0.138,0.329-0.208
		c0.433-0.278,0.867-0.564,1.301-0.863c0.014-0.01,0.028-0.02,0.043-0.03c0.421-0.29,0.841-0.593,1.262-0.902
		c0.107-0.079,0.216-0.159,0.323-0.24c0.384-0.285,0.766-0.577,1.149-0.877c0.055-0.043,0.109-0.084,0.163-0.126
		c0.437-0.345,0.873-0.699,1.31-1.063c0.088-0.074,0.177-0.149,0.265-0.224c0.367-0.309,0.735-0.623,1.101-0.944
		c0.083-0.073,0.167-0.145,0.25-0.219c0.439-0.388,0.876-0.781,1.314-1.185c0.037-0.034,0.074-0.07,0.111-0.104
		c0.401-0.371,0.799-0.75,1.198-1.133c0.085-0.082,0.17-0.163,0.254-0.246c0.871-0.846,1.737-1.72,2.593-2.617
		c0.069-0.072,0.138-0.145,0.206-0.218c0.401-0.423,0.801-0.851,1.198-1.283c0.027-0.03,0.056-0.06,0.083-0.09
		c0.438-0.479,0.873-0.962,1.305-1.452c0.032-0.037,0.066-0.075,0.098-0.112c0.401-0.454,0.798-0.913,1.193-1.374
		c0.044-0.051,0.087-0.101,0.13-0.152c0.849-0.997,1.686-2.011,2.507-3.037c0.038-0.049,0.078-0.097,0.116-0.146
		c0.83-1.04,1.643-2.092,2.439-3.151c0.014-0.018,0.027-0.037,0.041-0.056c1.215-1.621,2.388-3.258,3.51-4.894
		c0.007-0.01,0.014-0.02,0.02-0.029c0.752-1.097,1.481-2.194,2.184-3.284c0,0,0-0.001,0.001-0.001
		C492.223,52.929,490.595,51.934,489.456,50.369z"/>
</g>
<g>
	<path style="fill:#ACAAB1;" d="M441.009,24.25c0.052-0.12,0.103-0.237,0.155-0.356C441.112,24.013,441.061,24.129,441.009,24.25z"
		/>
	<path style="fill:#ACAAB1;" d="M439.611,27.818c0.059-0.162,0.117-0.327,0.177-0.487C439.73,27.491,439.671,27.656,439.611,27.818z
		"/>
	<path style="fill:#ACAAB1;" d="M442.304,21.421c0.055-0.111,0.11-0.226,0.165-0.335C442.415,21.195,442.359,21.309,442.304,21.421z
		"/>
	<path style="fill:#ACAAB1;" d="M438.404,31.376c0.06-0.187,0.119-0.369,0.179-0.555C438.524,31.007,438.464,31.189,438.404,31.376z
		"/>
	<path style="fill:#ACAAB1;" d="M438.993,29.584c0.066-0.194,0.132-0.388,0.198-0.579C439.125,29.196,439.059,29.389,438.993,29.584
		z"/>
	<path style="fill:#ACAAB1;" d="M440.377,25.787c0.003-0.008,0.006-0.017,0.01-0.025C440.384,25.77,440.381,25.779,440.377,25.787z"
		/>
	<path style="fill:#ACAAB1;" d="M441.639,22.823c0.063-0.138,0.125-0.273,0.189-0.409C441.765,22.549,441.702,22.685,441.639,22.823
		z"/>
	<polygon style="fill:#ACAAB1;" points="493.977,53.31 493.977,53.31 493.978,53.309 	"/>
</g>
<path d="M468.956,218.318c-0.045-0.199-0.102-0.393-0.162-0.584c0.717-9.37,0.218-18.551-1.554-27.289
	c-3.865-19.047-13.454-35.538-28.185-48.82c-0.141-0.138-0.286-0.266-0.434-0.391c-8.252-7.354-18.088-13.717-29.427-18.963
	c-36.368-16.826-87.362-22.162-151.562-15.863c-99.424,9.757-163.82,40.768-191.4,92.172c-1.759,3.279-3.358,6.645-4.802,10.089
	c-0.015,0.032-0.028,0.067-0.044,0.1c-0.072,0.172-0.143,0.345-0.215,0.518c-0.01,0.027-0.022,0.054-0.032,0.081
	c-10.216,24.805-12.308,53.7-5.995,84.344c5.051,24.521,13.734,42.059,15.226,44.96c1.342,3.322,10.13,23.919,29.579,44.614
	c8.54,9.088,19.938,18.945,34.457,27.111c0.302,0.22,0.616,0.427,0.957,0.606c0.245,0.128,0.495,0.235,0.746,0.334
	c12.391,6.741,26.996,12.212,43.977,14.97c0.377,0.096,0.759,0.153,1.142,0.189c7.338,1.131,15.11,1.761,23.34,1.761
	c53.364,0,69.706-17.934,88.627-38.699c15.917-17.466,33.956-37.263,81.246-52.022c28.062-8.759,54.545-29.913,72.66-58.039
	c11.476-17.82,18.652-37.104,21.082-55.853C469.05,222.079,469.377,220.204,468.956,218.318z M408.656,228.244
	c-0.082-5.659-1.599-10.598-3.739-14.675c19.46-3.321,35.686-10.837,47.099-21.668c0.116,0.52,0.239,1.038,0.345,1.564
	c1.354,6.672,1.811,13.57,1.479,20.554C444.791,216.289,426.971,221.137,408.656,228.244z M369.917,323.046
	c-51.217,15.985-71.58,38.332-87.943,56.289c-17.851,19.589-30.748,33.743-77.407,33.743c-3.106,0-6.169-0.103-9.197-0.293
	c6.869-8.843,18.532-21.038,33.123-25.316c4.023-1.18,6.327-5.397,5.147-9.419c-1.18-4.023-5.397-6.329-9.419-5.147
	c-23.266,6.823-39.665,28.203-46,37.715c-10.044-1.949-19.59-5.061-28.623-9.314c5.97-8.657,16.662-20.647,29.01-22.984
	c28.003-5.297,32.869-32.204,33.062-33.347c0.056-0.329,0.071-0.285,0.078-0.52c0.331-1.514,4.824-17.835,43.934-22.481
	c4.162-0.495,7.137-4.27,6.642-8.433c-0.493-4.162-4.268-7.138-8.432-6.642c-21.928,2.605-38.092,8.994-48.04,18.987
	c-7.386,7.42-8.876,14.392-9.173,16.671c-0.391,1.909-4.117,17.675-20.893,20.849c-19.09,3.612-32.995,20.79-39.514,30.561
	c-8.874-5.648-17.175-12.535-24.872-20.659c-18.921-19.973-26.961-40.326-27.04-40.53c-0.106-0.276-0.233-0.553-0.371-0.815
	c-0.329-0.622-29.918-57.786-10.696-111.913c3.922,1.125,10.628,4.221,19.11,12.703c2.654,2.656,4.959,5.102,6.992,7.259
	c10.922,11.597,17.303,17.438,35.916,17.438c2.528,0,5.283-0.107,8.304-0.324c4.182-0.299,7.329-3.931,7.03-8.111
	c-0.299-4.181-3.935-7.329-8.111-7.03c-19.144,1.366-21.371-1.002-32.088-12.38c-2.106-2.236-4.492-4.77-7.309-7.586
	c-9.261-9.261-17.471-13.749-23.72-15.886c0.083-0.157,0.16-0.315,0.245-0.472c8.168-15.186,20.111-28.417,35.718-39.691
	c0.269-0.151,0.534-0.315,0.788-0.502c0.204-0.15,20.539-14.868,34.156-4.119c1.153,0.909,1.598,1.599,1.629,1.913
	c0.224,2.223-4.478,7.784-7.287,11.108c-5.529,6.539-11.245,13.301-10.515,21.482c0.389,4.343,2.542,8.161,6.402,11.352
	c17.651,14.588,31.007,2.173,43.92-9.835c3.985-3.706,8.107-7.537,12.89-11.366c3.829-3.066,7.162-4.442,8.693-3.584
	c3.722,2.08,7.752,14.816,5.056,36.622c-0.514,4.16,2.441,7.949,6.601,8.464c0.317,0.039,0.63,0.059,0.941,0.059
	c3.776,0,7.048-2.816,7.523-6.66c0.752-6.084,1.067-11.794,0.973-17.062c1.298-3.044,6.071-12.331,16.11-12.746
	c4.189-0.173,7.443-3.709,7.27-7.897c-0.173-4.188-3.704-7.459-7.897-7.27c-8.017,0.331-14.133,3.418-18.702,7.274
	c-2.317-6.62-5.842-11.45-10.473-14.037c-5.202-2.905-13.861-4.398-25.582,4.985c-5.221,4.179-9.747,8.387-13.739,12.1
	c-14.668,13.638-17.351,14.676-23.914,9.252c-0.818-0.675-0.949-1.014-0.952-1.004c-0.159-1.876,4.489-7.373,6.987-10.328
	c5.469-6.469,11.668-13.801,10.799-22.429c-0.474-4.702-2.939-8.843-7.327-12.308c-2.14-1.69-4.336-3.03-6.558-4.077
	c28.468-11.727,63.817-19.705,105.942-23.839c73.995-7.261,129.914,1.895,162.478,25.484c-10.023,7.437-29.384,20.14-50.46,25.099
	c-4.053,0.953-7.979,2.259-11.766,3.803c-5.573-0.483-27.41-3.703-47-6.803c-4.132-0.654-8.027,2.171-8.683,6.31
	c-0.655,4.14,2.171,8.028,6.311,8.683c11.499,1.82,20.415,3.195,27.378,4.224c-16.831,12.153-27.67,26.135-28.365,27.044
	c-2.544,3.327-1.91,8.084,1.415,10.632c1.376,1.055,2.999,1.565,4.61,1.565c2.279,0,4.534-1.022,6.03-2.969
	c0.205-0.267,18.271-23.505,42.601-34.038c0.073-0.031,0.147-0.064,0.221-0.096c3.461-1.485,7.047-2.713,10.726-3.578
	c25.924-6.099,48.683-21.92,58.73-29.701c5.349,5.582,9.701,11.751,13.006,18.494c-9.296,12.005-25.589,20.245-46.295,23.33
	c-3.716,0.554-7.235,1.245-10.597,2.027c-0.122,0.023-0.243,0.055-0.365,0.084c-37.593,8.873-53.175,30.597-53.875,31.601
	c-0.05,0.07-0.097,0.141-0.144,0.213c-6.965,10.731-29.706,37.683-51.027,33.61c-4.118-0.784-8.093,1.914-8.879,6.03
	c-0.787,4.117,1.913,8.093,6.03,8.88c2.496,0.477,4.955,0.698,7.386,0.698c31.542-0.005,56.932-37.472,59.114-40.785
	c1.07-1.453,12.984-16.891,41.188-24.552c2.71,2.92,6.498,9.004,3.54,18.363c-12.787,6.023-24.567,13.152-32.31,21.271
	c-2.892,3.034-2.779,7.838,0.255,10.731c1.469,1.402,3.354,2.097,5.237,2.097c2.003,0,4.002-0.788,5.494-2.352
	c17.012-17.84,59.901-31.066,80.594-36.633C442.98,270.746,410.101,310.505,369.917,323.046z"/>
<path d="M151.544,325.189c-12.451,10.438-21.289,10.928-21.376,10.931l0.156-0.002v15.18c1.403,0,14.188-0.406,30.971-14.476
	c3.212-2.693,3.633-7.481,0.94-10.693C159.544,322.917,154.757,322.495,151.544,325.189z"/>
<path d="M199.589,287.436c-3.905-1.523-8.307,0.41-9.829,4.315c-4.717,12.1-17.674,19.209-17.869,19.314
	c-3.689,1.967-5.092,6.551-3.135,10.248c1.362,2.573,3.992,4.04,6.715,4.04c1.197,0,2.413-0.284,3.545-0.883
	c0.735-0.389,18.075-9.729,24.888-27.205C205.426,293.358,203.495,288.958,199.589,287.436z"/>
<path d="M48.098,449.928c-0.001,0-0.001,0-0.002,0c-0.012-0.003-0.024-0.006-0.036-0.009c-28.926-8.185-41.338,10.113-46.657,26.906
	c-3.4,10.737-0.552,20.611,7.816,27.087c4.745,3.674,11.138,6.056,18.325,7.185c1.066,0.541,2.243,0.84,3.443,0.84
	c0.636,0,1.276-0.082,1.906-0.247c1.589,0.11,3.201,0.173,4.834,0.173c13.31,0,27.834-3.667,39.233-10.814
	c11.419-7.162,12.903-15.059,12.137-20.422C86.291,460.976,48.479,450.036,48.098,449.928z M15.874,481.407
	c2.699-8.522,6.222-13.403,10.215-15.962c-5.903,8.283-8.263,17.465-7.078,26.819c-0.168-0.118-0.343-0.234-0.501-0.356
	C16.281,490.182,13.968,487.429,15.874,481.407z M68.896,488.188c-9.993,6.266-22.642,8.859-33.175,8.489
	c-6.378-16.182,5.645-27.051,11.424-31.148c12.089,4.093,26.223,12.333,26.925,17.245C74.213,483.765,72.667,485.824,68.896,488.188
	z"/>
<path d="M507.293,14.216c-3.4-4.959-10.153-10.999-23.017-11.612c-3.548-0.169-7.084-0.728-10.506-1.267
	c-7.999-1.263-16.27-2.568-24.206,1.297c-8.418,4.099-14.457,13.133-19.004,28.429c-7.861,26.441-8.408,42.108-1.83,52.389
	c4.2,6.563,11.259,10.603,20.981,12.005c1.051,0.152,2.102,0.225,3.151,0.225c13.348,0,26.455-11.743,35.371-22.03
	c10.13-11.687,19.281-26.584,22.767-37.07C512.83,31.082,512.449,21.738,507.293,14.216z M456.209,16.282
	c1.559-0.759,3.386-1.046,5.469-1.046c2.786,0,6.034,0.512,9.723,1.096c3.646,0.576,7.777,1.228,12.152,1.436
	c5.328,0.253,9.102,1.947,11.219,5.033c2.308,3.368,2.242,7.736,1.825,8.99c-0.284,0.855-0.624,1.748-0.992,2.659
	c-13.472-12.851-30.99-15.334-42.967-15.234C453.788,17.868,454.978,16.881,456.209,16.282z M452.972,80.508
	c-0.373,0-0.738-0.025-1.092-0.077c-6.972-1.006-9.254-3.429-10.363-5.163c-3.796-5.932-2.621-18.977,3.595-39.88
	c0.052-0.175,0.105-0.339,0.158-0.511c7.999-0.991,29.779-1.992,42.796,13.712C477.983,64.288,462.476,80.509,452.972,80.508z"/>
<path d="M381.812,95.382c1.245,0.204,2.483,0.304,3.706,0.304c10.943,0,20.625-7.935,22.455-19.079v-0.001
	c2.036-12.39-6.388-24.125-18.776-26.161c-12.388-2.032-24.126,6.387-26.162,18.777C360.999,81.61,369.424,93.345,381.812,95.382z
	 M378.015,71.682c0.611-3.715,3.838-6.36,7.486-6.36c0.407,0,0.821,0.033,1.236,0.101c4.129,0.678,6.936,4.59,6.259,8.72
	c-0.68,4.13-4.588,6.936-8.721,6.258C380.145,79.724,377.337,75.811,378.015,71.682z"/>
<path d="M160.112,448.197c-12.388-2.037-24.124,6.388-26.161,18.777c-0.986,6.002,0.424,12.029,3.97,16.969
	c3.546,4.942,8.805,8.205,14.807,9.192c1.25,0.205,2.5,0.307,3.741,0.307c4.722,0,9.317-1.468,13.228-4.277
	c4.942-3.546,8.205-8.805,9.192-14.807C180.924,461.969,172.502,450.234,160.112,448.197z M163.909,471.896L163.909,471.896
	c-0.678,4.13-4.582,6.941-8.72,6.259c-4.13-0.678-6.937-4.59-6.258-8.72c0.61-3.715,3.838-6.36,7.485-6.36
	c0.407,0,0.821,0.033,1.235,0.101C161.779,463.855,164.588,467.767,163.909,471.896z"/>
<g>
</g>
<g>
</g>
<g>
</g>
<g>
</g>
<g>
</g>
<g>
</g>
<g>
</g>
<g>
</g>
<g>
</g>
<g>
</g>
<g>
</g>
<g>
</g>
<g>
</g>
<g>
</g>
<g>
</g>
</svg>
