<svg id="Capa_1" enable-background="new 0 0 512 512" height="512" viewBox="0 0 512 512" width="512" xmlns="http://www.w3.org/2000/svg"><path d="m506.837 427.396h-497.931l27.822-176.707c.265-1.686 1.347-3.132 2.889-3.862l41.049-19.445 24.502-106.173c.426-1.845 1.828-3.309 3.653-3.814l67.977-18.802c.544-.15 1.059-.389 1.525-.706l75.41-51.249c1.553-1.055 3.557-1.184 5.232-.336l120.926 61.201c1.01.511 1.825 1.341 2.317 2.361l52.957 109.644c.32.663.778 1.249 1.344 1.72l52.571 43.809c.989.824 1.634 1.987 1.809 3.263l21.061 153.233c.427 3.099-1.983 5.863-5.113 5.863z" fill="#a0a0a0"/><path d="m346.333 427.396-20.316-101.58c-.193-.967-.66-1.858-1.343-2.568l-55.396-57.527c-1.781-1.849-4.65-2.109-6.733-.609l-76.525 55.068c-.988.711-1.693 1.749-1.99 2.929l-26.259 104.286h188.562z" fill="#5a5a5a"/><path d="m307.1 332.182 19.043 95.214h20.19l-20.316-101.58c-.193-.967-.66-1.858-1.343-2.568l-55.396-57.527c-1.781-1.849-4.65-2.109-6.733-.609l-11.832 8.515z" fill="#4c4c4c"/><path d="m363.589 123.33 52.957 109.644c.32.663.778 1.249 1.344 1.72l52.571 43.809c.989.824 1.634 1.988 1.809 3.263l20.015 145.629h14.552c3.13 0 5.54-2.764 5.114-5.865l-21.061-153.233c-.175-1.275-.82-2.439-1.809-3.263l-52.571-43.809c-.565-.471-1.023-1.058-1.344-1.72l-52.956-109.643c-.492-1.02-1.307-1.849-2.317-2.361l-120.927-61.2c-1.675-.848-3.679-.719-5.232.336l-16.79 11.411 124.328 62.922c1.01.511 1.824 1.341 2.317 2.36z" fill="#8e8e8e"/><path d="m83.28 449.195-45.214 12.057c-1.132.302-2.333.21-3.405-.261l-31.574-13.862c-2.053-.901-3.289-3.024-3.06-5.254l4.291-41.737c.155-1.508.965-2.872 2.215-3.729l27.482-18.845c1.183-.811 2.65-1.094 4.05-.779l41.637 9.347 22.005 32.874z" fill="#e0e0e0"/><path d="m83.28 449.195-45.214 12.057c-1.132.302-2.333.21-3.405-.261l-31.574-13.862c-2.053-.901-3.289-3.024-3.06-5.254l4.291-41.737c.155-1.508.965-2.872 2.215-3.729l27.482-18.845c1.183-.811 2.65-1.094 4.05-.779l41.637 9.347 22.005 32.874z" fill="#e0e0e0"/><path d="m79.702 386.132-21.914-4.92 22.842 34.123-18.526 39.507 21.176-5.647 18.427-30.19z" fill="#ccc"/><path d="m380.741 450.191h67.868c.448 0 .893.058 1.326.173l40.082 10.652c1.652.439 3.414.032 4.706-1.088l15.253-13.218c1.664-1.442 2.23-3.782 1.409-5.825l-12.868-32.028c-.331-.824-.869-1.549-1.563-2.104l-31.263-25.042c-.916-.733-2.054-1.133-3.227-1.133h-18l-21.092-10.546c-2.089-1.044-4.618-.556-6.168 1.19l-40.352 45.448z" fill="#e0e0e0"/><path d="m481.484 415.971 16.518 41.115 11.973-10.376c1.664-1.442 2.23-3.782 1.409-5.825l-12.868-32.028c-.331-.824-.869-1.549-1.563-2.104l-31.263-25.042c-.916-.733-2.054-1.133-3.227-1.133h-18l-19.071-9.535z" fill="#ccc"/><path d="m395.839 457.356-14.563 8.899h-49.982c-3.24 0-5.679-2.95-5.07-6.133l3.3-17.234c.223-1.165.84-2.217 1.748-2.98l32.592-27.396c1.751-1.472 4.262-1.616 6.17-.353l23.022 15.237 5.142 24.496c.45 2.137-.495 4.325-2.359 5.464z" fill="#e0e0e0"/><path d="m382.444 465.542 13.396-8.186c1.864-1.139 2.809-3.327 2.36-5.465l-5.142-24.496-21.625-14.313z" fill="#ccc"/><path d="m99.381 455.457h51.435l12.51-8.56c2.439-1.669 2.982-5.041 1.189-7.39l-15.9-20.846c-.608-.797-1.434-1.399-2.378-1.734l-23.935-8.493c-1.484-.526-3.127-.347-4.462.487l-26.511 16.57-8.051 23.705z" fill="#e0e0e0"/><path d="m136.134 428.845 18.372 24.088 8.821-6.035c2.439-1.669 2.982-5.041 1.189-7.39l-15.9-20.846c-.608-.797-1.434-1.399-2.378-1.734l-23.935-8.493c-1.484-.526-3.127-.347-4.462.487l-13.71 8.569z" fill="#ccc"/></svg>