<svg id="Capa_1" enable-background="new 0 0 504.5 504.5" height="512" viewBox="0 0 504.5 504.5" width="512" xmlns="http://www.w3.org/2000/svg"><path d="m3.75 210.041v112.459l308.5 112.972v-145.818c-88.02-34.971-143.74-85.54-300.917-87.116-4.171-.042-7.583 3.332-7.583 7.503z" fill="#ffd185"/><path d="m410.75 313.5 60 191h22.5c4.142 0 7.5-3.358 7.5-7.5v-23.5z" fill="#ff9a42"/><path d="m3.75 353.5v143.5c0 4.142 3.358 7.5 7.5 7.5h459.5v-251z" fill="#ffba48"/><path d="m493.178 202.538c-7.715.079-15.183.277-22.428.583l-80 134.879 80 134.879c9.59.405 19.571.621 30 .621v-263.459c0-4.169-3.404-7.545-7.572-7.503z" fill="#ffd185"/><path d="m3.75 322.5v31c238.071 0 248.072 110.135 467 119.379v-269.758c-218.928 9.244-228.929 119.379-467 119.379z" fill="#ffe8c2"/><g fill="#ff9a42"><circle cx="63.75" cy="474.5" r="7.5"/><circle cx="252.25" cy="474.5" r="7.5"/><circle cx="33.75" cy="444.5" r="7.5"/></g><path d="m252.25 37.5v120c33.137 0 60-26.863 60-60s-26.863-60-60-60z" fill="#ff7a3c"/><path d="m282.25 97.5c0-33.137-13.431-60-30-60-33.137 0-60 26.863-60 60s26.863 60 60 60c16.569 0 30-26.863 30-60z" fill="#ff9a42"/><path d="m252.25 195c-20.398 0-39.935-6.235-56.498-18.03-3.374-2.403-4.161-7.086-1.759-10.46 2.403-3.374 7.087-4.161 10.46-1.759 14.008 9.976 30.536 15.249 47.797 15.249 45.491 0 82.5-37.009 82.5-82.5s-37.009-82.5-82.5-82.5-82.5 37.009-82.5 82.5c0 17.261 5.273 33.789 15.249 47.797 2.403 3.374 1.615 8.057-1.759 10.46-3.374 2.401-8.057 1.616-10.46-1.759-11.795-16.563-18.03-36.1-18.03-56.498 0-53.762 43.738-97.5 97.5-97.5s97.5 43.738 97.5 97.5-43.738 97.5-97.5 97.5z" fill="#ffba48"/></svg>