<?xml version="1.0" encoding="iso-8859-1"?>
<!-- Generator: Adobe Illustrator 19.0.0, SVG Export Plug-In . SVG Version: 6.00 Build 0)  -->
<svg version="1.1" id="Capa_1" xmlns="http://www.w3.org/2000/svg" xmlns:xlink="http://www.w3.org/1999/xlink" x="0px" y="0px"
	 viewBox="0 0 512 512" style="enable-background:new 0 0 512 512;" xml:space="preserve">
<path style="fill:#B25C4A;" d="M482,257v30c0,8.401-6.599,15-15,15s-15-6.599-15-15v-30c0-8.401,6.599-15,15-15S482,248.599,482,257
	z"/>
<path style="fill:#8B4330;" d="M482,257v30c0,8.401-6.599,15-15,15v-60C475.401,242,482,248.599,482,257z"/>
<path style="fill:#1DE8F1;" d="M301,272c-15.601,0-30.601,0.901-45,2.701C160.3,286.099,89.7,333.8,88.2,394.1
	C34.501,400.699,0,423.5,0,452c0,43.2,74.801,63.6,137.199,59.399c24.901-1.5,49.2-2.399,73.2-2.399
	c15.3,0,30.601,0.298,45.601,1.199c6.899,0.3,13.801,0.601,20.7,0.899C284.801,511.7,292.899,512,301,512c117.9,0,211-52.8,211-120
	S418.9,272,301,272z"/>
<path style="fill:#1BD9DE;" d="M512,392c0,67.2-93.1,120-211,120c-8.101,0-16.199-0.3-24.3-0.901
	c-6.899-0.298-13.801-0.599-20.7-0.899V274.701c14.399-1.8,29.399-2.701,45-2.701C418.9,272,512,324.8,512,392z"/>
<path style="fill:#FEDB41;" d="M361,122c0,21.899-6.301,42.299-16.5,60h-207c-10.199-17.701-16.5-38.101-16.5-60
	C121,55.699,174.699,0,241,0c5.099,0,10.201,0.3,15,0.901C315.099,8.401,361,60.801,361,122z"/>
<path style="fill:#FCBF29;" d="M344.5,182H256V0.901c59.099,7.5,105,59.9,105,121.099C361,143.899,354.699,164.299,344.5,182z"/>
<path style="fill:#8B4330;" d="M382.599,199.401L286,229.999l-30-24.3L190.901,152.6L256,108.8l21.599-14.399
	c5.101-3.301,11.7-3.301,16.802,0L374.2,147.8L382.599,199.401z"/>
<path style="fill:#763220;" d="M382.599,199.401L286,229.999l-30-24.3V108.8l21.599-14.399c5.101-3.301,11.7-3.301,16.802,0
	L374.2,147.8L382.599,199.401z"/>
<path style="fill:#8B4330;" d="M497,242c8.284,0,15-6.716,15-15V107c0-3.9-1.5-7.8-4.501-10.499l-30-30c-5.7-6-15.298-6-20.999,0
	L280.001,242H497z"/>
<path style="fill:#32D736;" d="M467,152c-30.901,0-45,57.599-45,75c0,24.901,20.099,45,45,45s45-20.099,45-45
	C512,209.599,497.901,152,467,152z"/>
<path style="fill:#1BD9DE;" d="M271,377c0,8.401-6.599,15-15,15h-30c-8.401,0-15-6.599-15-15s6.599-15,15-15h30
	C264.401,362,271,368.599,271,377z"/>
<g>
	<path style="fill:#15B7BE;" d="M437,422h-31c-8.291,0-15-6.709-15-15s6.709-15,15-15h31c8.291,0,15,6.709,15,15
		S445.291,422,437,422z"/>
	<path style="fill:#15B7BE;" d="M346,452h-60c-8.291,0-15-6.709-15-15s6.709-15,15-15h60c8.291,0,15,6.709,15,15
		S354.291,452,346,452z"/>
	<path style="fill:#15B7BE;" d="M376,362h-60c-8.291,0-15-6.709-15-15s6.709-15,15-15h60c8.291,0,15,6.709,15,15
		S384.291,362,376,362z"/>
</g>
<path style="fill:#1BD9DE;" d="M226,452h-60c-8.291,0-15-6.709-15-15s6.709-15,15-15h60c8.291,0,15,6.709,15,15S234.291,452,226,452
	z"/>
<path style="fill:#15B7BE;" d="M271,377c0,8.401-6.599,15-15,15v-30C264.401,362,271,368.599,271,377z"/>
<path style="fill:#B25C4A;" d="M321.099,242H15c-8.401,0-15-6.599-15-15V124.999c0-4.499,2.1-9,5.7-11.699l60-48.001
	c5.099-4.2,12.599-4.499,17.999-0.599L256,193.1L321.099,242z"/>
<polygon style="fill:#8B4330;" points="321.099,242 256,242 256,193.1 "/>
<path style="fill:#10BB67;" d="M512,227c0,24.901-20.099,45-45,45V152C497.901,152,512,209.599,512,227z"/>
<path style="fill:#B25C4A;" d="M60,287v60c0,8.401-6.599,15-15,15s-15-6.599-15-15v-60c0-8.401,6.599-15,15-15S60,278.599,60,287z"
	/>
<path style="fill:#8B4330;" d="M60,287v60c0,8.401-6.599,15-15,15v-90C53.401,272,60,278.599,60,287z"/>
<path style="fill:#32D736;" d="M45,182c-30.901,0-45,57.599-45,75c0,24.901,20.099,45,45,45s45-20.099,45-45
	C90,239.599,75.901,182,45,182z"/>
<path style="fill:#10BB67;" d="M90,257c0,24.901-20.099,45-45,45V182C75.901,182,90,239.599,90,257z"/>
<g>
</g>
<g>
</g>
<g>
</g>
<g>
</g>
<g>
</g>
<g>
</g>
<g>
</g>
<g>
</g>
<g>
</g>
<g>
</g>
<g>
</g>
<g>
</g>
<g>
</g>
<g>
</g>
<g>
</g>
</svg>
