<svg id="Layer_1" enable-background="new 0 0 512 512" height="512" viewBox="0 0 512 512" width="512" xmlns="http://www.w3.org/2000/svg"><g><g fill="#199461"><path d="m203.181 287.065c-4.142 0-7.5 3.358-7.5 7.5v78.599c0 4.142 3.358 7.5 7.5 7.5s7.5-3.358 7.5-7.5v-78.599c0-4.142-3.358-7.5-7.5-7.5z"/><path d="m164.632 287.065c-4.142 0-7.5 3.358-7.5 7.5v27.366c0 4.142 3.358 7.5 7.5 7.5s7.5-3.358 7.5-7.5v-27.366c0-4.142-3.358-7.5-7.5-7.5z"/></g><path d="m286.061 294.565h-140.332c-28.24 0-51.133-22.893-51.133-51.133 0-28.24 22.893-51.133 51.133-51.133h140.332c28.24 0 51.133 22.893 51.133 51.133 0 28.24-22.893 51.133-51.133 51.133z" fill="#1eb073"/><path d="m296.177 162.769h-80.354c-44.947 0-81.384-36.437-81.384-81.384 0-44.948 36.437-81.385 81.384-81.385h80.354c44.947 0 81.384 36.437 81.384 81.384 0 44.948-36.437 81.385-81.384 81.385z" fill="#6de470"/><path d="m296.177 0h-30.905c44.947 0 81.384 36.437 81.384 81.384 0 44.947-36.437 81.384-81.384 81.384h30.905c44.947 0 81.384-36.437 81.384-81.384 0-44.947-36.436-81.384-81.384-81.384z" fill="#4dcc68"/><path d="m234.366 162.769h43.268v330.001h-43.268z" fill="#d67b42"/><path d="m483.944 492.77h-71.244v-57.239c0-19.674 15.949-35.622 35.622-35.622 19.674 0 35.622 15.949 35.622 35.622z" fill="#6de470"/><path d="m448.322 399.909c-5.537 0-10.779 1.263-15.453 3.517 11.934 5.755 20.169 17.968 20.169 32.105v57.239h30.905v-57.239c.001-19.673-15.948-35.622-35.621-35.622z" fill="#4dcc68"/><path d="m320.308 430.616v62.154h-180.534v-108.605h19.589c16.904 0 32.381 9.474 40.07 24.528 6.872 13.455 20.706 21.923 35.814 21.923z" fill="#329c9d"/><path d="m151.921 492.77h-70.052v-123.024c0-19.344 15.682-35.026 35.026-35.026 19.344 0 35.026 15.682 35.026 35.026z" fill="#6de470"/><path d="m116.895 334.72c-5.548 0-10.791 1.295-15.453 3.591 11.593 5.71 19.573 17.639 19.573 31.435v123.024h30.905v-123.024c.001-19.345-15.68-35.026-35.025-35.026z" fill="#4dcc68"/><path d="m426.872 492.77h-70.052v-170.517c0-19.344 15.682-35.026 35.026-35.026 19.344 0 35.026 15.682 35.026 35.026z" fill="#6de470"/><path d="m391.846 287.226c-5.548 0-10.791 1.295-15.453 3.591 11.593 5.71 19.573 17.638 19.573 31.435v170.518h30.905v-170.518c.001-19.344-15.681-35.026-35.025-35.026z" fill="#4dcc68"/><path d="m98.382 492.77h-70.052v-64.215c0-19.344 15.682-35.026 35.026-35.026 19.344 0 35.026 15.682 35.026 35.026z" fill="#6de470"/><path d="m63.356 393.529c-5.548 0-10.791 1.295-15.453 3.591 11.593 5.71 19.573 17.638 19.573 31.435v64.215h30.905v-64.215c.001-19.344-15.68-35.026-35.025-35.026z" fill="#4dcc68"/><path d="m395.877 492.77h-88.596v-68.335c0-24.465 19.833-44.298 44.298-44.298 24.465 0 44.298 19.833 44.298 44.298z" fill="#6de470"/><path d="m351.579 380.137c-5.436 0-10.641.984-15.453 2.775 16.844 6.271 28.845 22.493 28.845 41.522v68.335h30.905v-68.335c0-24.464-19.832-44.297-44.297-44.297z" fill="#4dcc68"/><path d="m384.675 213.327c-4.143 0-7.5 3.358-7.5 7.5v131.834c0 4.142 3.357 7.5 7.5 7.5s7.5-3.358 7.5-7.5v-131.834c0-4.142-3.358-7.5-7.5-7.5z" fill="#199461"/><path d="m496.547 512h-481.094c-8.535 0-15.453-6.918-15.453-15.453 0-8.534 6.918-15.453 15.453-15.453h481.095c8.534 0 15.453 6.918 15.453 15.453-.001 8.535-6.919 15.453-15.454 15.453z" fill="#d67b42"/><path d="m496.547 481.095h-30.905c8.534 0 15.453 6.918 15.453 15.453 0 8.534-6.918 15.453-15.453 15.453h30.905c8.534 0 15.453-6.918 15.453-15.453s-6.918-15.453-15.453-15.453z" fill="#be652b"/><path d="m384.674 229.563h-100.118c-32.583 0-58.996-26.414-58.996-58.996 0-32.583 26.414-58.996 58.996-58.996h100.118c32.583 0 58.996 26.414 58.996 58.996.001 32.583-26.413 58.996-58.996 58.996z" fill="#4dcc68"/><path d="m384.674 111.571h-30.905c32.583 0 58.996 26.414 58.996 58.996 0 32.583-26.414 58.996-58.996 58.996h30.905c32.583 0 58.996-26.414 58.996-58.996.001-32.583-26.413-58.996-58.996-58.996z" fill="#1eb073"/><g fill="#199461"><path d="m217.076 49.102h-18.543c-4.142 0-7.5 3.358-7.5 7.5s3.358 7.5 7.5 7.5h18.543c4.142 0 7.5-3.358 7.5-7.5s-3.358-7.5-7.5-7.5z"/><path d="m308.99 142.57h-18.543c-4.143 0-7.5 3.358-7.5 7.5s3.357 7.5 7.5 7.5h18.543c4.143 0 7.5-3.358 7.5-7.5s-3.357-7.5-7.5-7.5z"/><path d="m189.777 241.084h-18.543c-4.142 0-7.5 3.358-7.5 7.5s3.358 7.5 7.5 7.5h18.543c4.142 0 7.5-3.358 7.5-7.5s-3.358-7.5-7.5-7.5z"/></g></g></svg>